Monoto-Regular.ufo
<glyph name="exclam" format="2">
  <advance width="620"/>
  <unicode hex="0021"/>
  <outline>
    <contour>
      <point x="269" y="203" type="line"/>
      <point x="342" y="203" type="line"/>
      <point x="358" y="714" type="line"/>
      <point x="252" y="714" type="line"/>
    </contour>
    <contour>
      <point x="305" y="-12" type="curve" smooth="yes"/>
      <point x="342" y="-12"/>
      <point x="368" y="9"/>
      <point x="368" y="57" type="curve" smooth="yes"/>
      <point x="368" y="105"/>
      <point x="342" y="123"/>
      <point x="305" y="123" type="curve" smooth="yes"/>
      <point x="267" y="123"/>
      <point x="242" y="104"/>
      <point x="242" y="57" type="curve" smooth="yes"/>
      <point x="242" y="10"/>
      <point x="267" y="-12"/>
    </contour>
  </outline>
</glyph>
<glyph name="quotedbl" format="2">
  <advance width="620"/>
  <unicode hex="0022"/>
  <outline>
    <contour>
      <point x="368" y="456" type="line"/>
      <point x="430" y="456" type="line"/>
      <point x="447" y="714" type="line"/>
      <point x="350" y="714" type="line"/>
    </contour>
    <contour>
      <point x="173" y="456" type="line"/>
      <point x="235" y="456" type="line"/>
      <point x="252" y="714" type="line"/>
      <point x="155" y="714" type="line"/>
    </contour>
  </outline>
</glyph>
<glyph name="numbersign" format="2">
  <advance width="620"/>
  <unicode hex="0023"/>
  <outline>
    <contour>
      <point x="102" y="0" type="line"/>
      <point x="168" y="0" type="line"/>
      <point x="204" y="214" type="line"/>
      <point x="337" y="214" type="line"/>
      <point x="300" y="0" type="line"/>
      <point x="368" y="0" type="line"/>
      <point x="405" y="214" type="line"/>
      <point x="532" y="214" type="line"/>
      <point x="532" y="281" type="line"/>
      <point x="414" y="281" type="line"/>
      <point x="442" y="443" type="line"/>
      <point x="564" y="443" type="line"/>
      <point x="564" y="510" type="line"/>
      <point x="452" y="510" type="line"/>
      <point x="486" y="714" type="line"/>
      <point x="420" y="714" type="line"/>
      <point x="386" y="510" type="line"/>
      <point x="253" y="510" type="line"/>
      <point x="287" y="714" type="line"/>
      <point x="219" y="714" type="line"/>
      <point x="185" y="510" type="line"/>
      <point x="57" y="510" type="line"/>
      <point x="57" y="443" type="line"/>
      <point x="175" y="443" type="line"/>
      <point x="146" y="281" type="line"/>
      <point x="25" y="281" type="line"/>
      <point x="25" y="214" type="line"/>
      <point x="137" y="214" type="line"/>
    </contour>
    <contour>
      <point x="214" y="281" type="line"/>
      <point x="242" y="443" type="line"/>
      <point x="375" y="443" type="line"/>
      <point x="346" y="281" type="line"/>
    </contour>
  </outline>
</glyph>
<glyph name="dollar" format="2">
  <advance width="620"/>
  <unicode hex="0024"/>
  <outline>
    <contour>
      <point x="276" y="-58" type="line"/>
      <point x="332" y="-58" type="line"/>
      <point x="332" y="40" type="line"/>
      <point x="456" y="55"/>
      <point x="532" y="121"/>
      <point x="532" y="212" type="curve" smooth="yes"/>
      <point x="532" y="309"/>
      <point x="462" y="352"/>
      <point x="332" y="394" type="curve"/>
      <point x="332" y="614" type="line"/>
      <point x="383" y="610"/>
      <point x="431" y="599"/>
      <point x="478" y="582" type="curve"/>
      <point x="503" y="652" type="line"/>
      <point x="451" y="672"/>
      <point x="395" y="684"/>
      <point x="332" y="687" type="curve"/>
      <point x="332" y="760" type="line"/>
      <point x="276" y="760" type="line"/>
      <point x="276" y="685" type="line"/>
      <point x="159" y="677"/>
      <point x="79" y="614"/>
      <point x="79" y="519" type="curve" smooth="yes"/>
      <point x="79" y="422"/>
      <point x="145" y="375"/>
      <point x="276" y="332" type="curve"/>
      <point x="276" y="108" type="line"/>
      <point x="206" y="110"/>
      <point x="137" y="128"/>
      <point x="90" y="151" type="curve"/>
      <point x="90" y="69" type="line"/>
      <point x="135" y="50"/>
      <point x="200" y="37"/>
      <point x="276" y="36" type="curve"/>
    </contour>
    <contour>
      <point x="332" y="113" type="curve"/>
      <point x="332" y="311" type="line"/>
      <point x="416" y="287"/>
      <point x="453" y="260"/>
      <point x="453" y="209" type="curve" smooth="yes"/>
      <point x="453" y="160"/>
      <point x="410" y="124"/>
    </contour>
    <contour>
      <point x="276" y="415" type="line"/>
      <point x="195" y="442"/>
      <point x="158" y="466"/>
      <point x="158" y="520" type="curve" smooth="yes"/>
      <point x="158" y="570"/>
      <point x="202" y="606"/>
      <point x="276" y="612" type="curve"/>
    </contour>
  </outline>
</glyph>
<glyph name="percent" format="2">
  <advance width="620"/>
  <unicode hex="0025"/>
  <outline>
    <contour>
      <point x="42" y="111" type="line"/>
      <point x="122" y="111" type="line"/>
      <point x="557" y="603" type="line"/>
      <point x="476" y="603" type="line"/>
    </contour>
    <contour>
      <point x="452" y="-9" type="curve" smooth="yes"/>
      <point x="552" y="-9"/>
      <point x="612" y="53"/>
      <point x="612" y="161" type="curve" smooth="yes"/>
      <point x="612" y="269"/>
      <point x="548" y="330"/>
      <point x="454" y="330" type="curve" smooth="yes"/>
      <point x="352" y="330"/>
      <point x="292" y="269"/>
      <point x="292" y="161" type="curve" smooth="yes"/>
      <point x="292" y="53"/>
      <point x="357" y="-9"/>
    </contour>
    <contour>
      <point x="453" y="47" type="curve" smooth="yes"/>
      <point x="394" y="47"/>
      <point x="366" y="84"/>
      <point x="366" y="161" type="curve" smooth="yes"/>
      <point x="366" y="239"/>
      <point x="393" y="273"/>
      <point x="453" y="273" type="curve" smooth="yes"/>
      <point x="511" y="273"/>
      <point x="538" y="239"/>
      <point x="538" y="161" type="curve" smooth="yes"/>
      <point x="538" y="84"/>
      <point x="510" y="47"/>
    </contour>
    <contour>
      <point x="149" y="383" type="curve" smooth="yes"/>
      <point x="249" y="383"/>
      <point x="310" y="445"/>
      <point x="310" y="553" type="curve" smooth="yes"/>
      <point x="310" y="661"/>
      <point x="245" y="722"/>
      <point x="150" y="722" type="curve" smooth="yes"/>
      <point x="49" y="722"/>
      <point x="-10" y="661"/>
      <point x="-10" y="553" type="curve" smooth="yes"/>
      <point x="-10" y="445"/>
      <point x="54" y="383"/>
    </contour>
    <contour>
      <point x="150" y="439" type="curve" smooth="yes"/>
      <point x="91" y="439"/>
      <point x="63" y="476"/>
      <point x="63" y="553" type="curve" smooth="yes"/>
      <point x="63" y="631"/>
      <point x="90" y="665"/>
      <point x="150" y="665" type="curve" smooth="yes"/>
      <point x="208" y="665"/>
      <point x="235" y="631"/>
      <point x="235" y="553" type="curve" smooth="yes"/>
      <point x="235" y="476"/>
      <point x="207" y="439"/>
    </contour>
  </outline>
</glyph>
<glyph name="ampersand" format="2">
  <advance width="620"/>
  <unicode hex="0026"/>
  <outline>
    <contour>
      <point x="240" y="-10" type="curve" smooth="yes"/>
      <point x="436" y="-10"/>
      <point x="543" y="179"/>
      <point x="563" y="345" type="curve"/>
      <point x="482" y="345" type="line"/>
      <point x="471" y="235"/>
      <point x="386" y="64"/>
      <point x="247" y="64" type="curve" smooth="yes"/>
      <point x="174" y="64"/>
      <point x="129" y="106"/>
      <point x="129" y="170" type="curve" smooth="yes"/>
      <point x="129" y="254"/>
      <point x="198" y="307"/>
      <point x="266" y="356" type="curve" smooth="yes"/>
      <point x="339" y="409"/>
      <point x="410" y="482"/>
      <point x="410" y="578" type="curve" smooth="yes"/>
      <point x="410" y="666"/>
      <point x="354" y="724"/>
      <point x="262" y="724" type="curve" smooth="yes"/>
      <point x="169" y="724"/>
      <point x="111" y="666"/>
      <point x="111" y="579" type="curve" smooth="yes"/>
      <point x="111" y="501"/>
      <point x="156" y="427"/>
      <point x="209" y="358" type="curve" smooth="yes"/>
      <point x="496" y="0" type="line"/>
      <point x="594" y="0" type="line"/>
      <point x="262" y="415" type="line" smooth="yes"/>
      <point x="229" y="457"/>
      <point x="189" y="519"/>
      <point x="189" y="579" type="curve" smooth="yes"/>
      <point x="189" y="628"/>
      <point x="216" y="656"/>
      <point x="262" y="656" type="curve" smooth="yes"/>
      <point x="307" y="656"/>
      <point x="334" y="631"/>
      <point x="334" y="581" type="curve" smooth="yes"/>
      <point x="334" y="491"/>
      <point x="259" y="437"/>
      <point x="215" y="409" type="curve" smooth="yes"/>
      <point x="124" y="347"/>
      <point x="45" y="278"/>
      <point x="45" y="169" type="curve" smooth="yes"/>
      <point x="45" y="72"/>
      <point x="110" y="-10"/>
    </contour>
  </outline>
</glyph>
<glyph name="parenleft" format="2">
  <advance width="620"/>
  <unicode hex="0028"/>
  <outline>
    <contour>
      <point x="361" y="-163" type="curve"/>
      <point x="438" y="-163" type="line"/>
      <point x="336" y="-38"/>
      <point x="283" y="117"/>
      <point x="283" y="272" type="curve" smooth="yes"/>
      <point x="283" y="431"/>
      <point x="334" y="585"/>
      <point x="439" y="714" type="curve"/>
      <point x="361" y="714" type="line"/>
      <point x="254" y="596"/>
      <point x="196" y="439"/>
      <point x="196" y="271" type="curve" smooth="yes"/>
      <point x="196" y="106"/>
      <point x="252" y="-48"/>
    </contour>
  </outline>
</glyph>
<glyph name="asterisk" format="2">
  <advance width="620"/>
  <unicode hex="002A"/>
  <outline>
    <contour>
      <point x="391" y="395" type="line"/>
      <point x="464" y="439" type="line"/>
      <point x="353" y="557" type="line"/>
      <point x="516" y="570" type="line"/>
      <point x="500" y="650" type="line"/>
      <point x="334" y="611" type="line"/>
      <point x="348" y="756" type="line"/>
      <point x="263" y="756" type="line"/>
      <point x="277" y="611" type="line"/>
      <point x="112" y="649" type="line"/>
      <point x="95" y="570" type="line"/>
      <point x="257" y="557" type="line"/>
      <point x="149" y="439" type="line"/>
      <point x="219" y="395" type="line"/>
      <point x="306" y="528" type="line"/>
    </contour>
  </outline>
</glyph>
<glyph name="plus" format="2">
  <advance width="620"/>
  <unicode hex="002B"/>
  <outline>
    <contour>
      <point x="265" y="119" type="line"/>
      <point x="338" y="119" type="line"/>
      <point x="338" y="318" type="line"/>
      <point x="532" y="318" type="line"/>
      <point x="532" y="388" type="line"/>
      <point x="338" y="388" type="line"/>
      <point x="338" y="588" type="line"/>
      <point x="265" y="588" type="line"/>
      <point x="265" y="388" type="line"/>
      <point x="70" y="388" type="line"/>
      <point x="70" y="318" type="line"/>
      <point x="265" y="318" type="line"/>
    </contour>
  </outline>
</glyph>
<glyph name="comma" format="2">
  <advance width="620"/>
  <unicode hex="002C"/>
  <outline>
    <contour>
      <point x="204" y="-135" type="curve"/>
      <point x="273" y="-135" type="line"/>
      <point x="310" y="-60"/>
      <point x="345" y="32"/>
      <point x="366" y="109" type="curve"/>
      <point x="359" y="121" type="line"/>
      <point x="262" y="121" type="line"/>
      <point x="252" y="47"/>
      <point x="230" y="-52"/>
    </contour>
  </outline>
</glyph>
<glyph name="hyphen" format="2">
  <advance width="620"/>
  <unicode hex="002D"/>
  <outline>
    <contour>
      <point x="145" y="230" type="line"/>
      <point x="457" y="230" type="line"/>
      <point x="457" y="311" type="line"/>
      <point x="145" y="311" type="line"/>
    </contour>
  </outline>
</glyph>
<glyph name="period" format="2">
  <advance width="620"/>
  <unicode hex="002E"/>
  <outline>
    <contour>
      <point x="300" y="-12" type="curve" smooth="yes"/>
      <point x="338" y="-12"/>
      <point x="364" y="9"/>
      <point x="364" y="57" type="curve" smooth="yes"/>
      <point x="364" y="105"/>
      <point x="338" y="123"/>
      <point x="300" y="123" type="curve" smooth="yes"/>
      <point x="263" y="123"/>
      <point x="238" y="104"/>
      <point x="238" y="57" type="curve" smooth="yes"/>
      <point x="238" y="10"/>
      <point x="263" y="-12"/>
    </contour>
  </outline>
</glyph>
<glyph name="zero" format="2">
  <advance width="620"/>
  <unicode hex="0030"/>
  <outline>
    <contour>
      <point x="300" y="-10" type="curve" smooth="yes"/>
      <point x="486" y="-10"/>
      <point x="557" y="127"/>
      <point x="557" y="358" type="curve" smooth="yes"/>
      <point x="557" y="590"/>
      <point x="485" y="725"/>
      <point x="300" y="725" type="curve" smooth="yes"/>
      <point x="112" y="725"/>
      <point x="45" y="589"/>
      <point x="45" y="358" type="curve" smooth="yes"/>
      <point x="45" y="127"/>
      <point x="121" y="-10"/>
    </contour>
    <contour>
      <point x="163" y="99" type="line"/>
      <point x="483" y="563" type="line"/>
      <point x="430" y="622" type="line"/>
      <point x="105" y="145" type="line"/>
    </contour>
    <contour>
      <point x="300" y="67" type="curve" smooth="yes"/>
      <point x="181" y="67"/>
      <point x="134" y="175"/>
      <point x="134" y="358" type="curve" smooth="yes"/>
      <point x="134" y="552"/>
      <point x="179" y="648"/>
      <point x="300" y="648" type="curve" smooth="yes"/>
      <point x="431" y="648"/>
      <point x="470" y="546"/>
      <point x="470" y="358" type="curve" smooth="yes"/>
      <point x="470" y="162"/>
      <point x="420" y="67"/>
    </contour>
  </outline>
</glyph>
<glyph name="one" format="2">
  <advance width="620"/>
  <unicode hex="0031"/>
  <outline>
    <contour>
      <point x="289" y="0" type="line"/>
      <point x="377" y="0" type="line"/>
      <point x="377" y="714" type="line"/>
      <point x="304" y="714" type="line"/>
      <point x="89" y="606" type="line"/>
      <point x="130" y="540" type="line"/>
      <point x="227" y="584" type="line" smooth="yes"/>
      <point x="258" y="598"/>
      <point x="271" y="606"/>
      <point x="293" y="622" type="curve"/>
      <point x="291" y="578"/>
      <point x="289" y="501"/>
      <point x="289" y="445" type="curve" smooth="yes"/>
    </contour>
    <contour>
      <point x="135" y="0" type="line"/>
      <point x="524" y="0" type="line"/>
      <point x="524" y="61" type="line"/>
      <point x="378" y="71" type="line"/>
      <point x="290" y="71" type="line"/>
      <point x="135" y="61" type="line"/>
    </contour>
  </outline>
</glyph>
<glyph name="two" format="2">
  <advance width="620"/>
  <unicode hex="0032"/>
  <outline>
    <contour>
      <point x="69" y="0" type="line"/>
      <point x="545" y="0" type="line"/>
      <point x="545" y="81" type="line"/>
      <point x="185" y="81" type="line"/>
      <point x="185" y="86" type="line"/>
      <point x="339" y="232" type="line" smooth="yes"/>
      <point x="445" y="338"/>
      <point x="514" y="421"/>
      <point x="514" y="533" type="curve" smooth="yes"/>
      <point x="514" y="652"/>
      <point x="428" y="724"/>
      <point x="295" y="724" type="curve" smooth="yes"/>
      <point x="204" y="724"/>
      <point x="130" y="690"/>
      <point x="68" y="641" type="curve"/>
      <point x="116" y="581" type="line"/>
      <point x="163" y="616"/>
      <point x="224" y="647"/>
      <point x="288" y="647" type="curve" smooth="yes"/>
      <point x="370" y="647"/>
      <point x="424" y="607"/>
      <point x="424" y="526" type="curve" smooth="yes"/>
      <point x="424" y="430"/>
      <point x="358" y="358"/>
      <point x="262" y="264" type="curve" smooth="yes"/>
      <point x="69" y="76" type="line"/>
    </contour>
  </outline>
</glyph>
<glyph name="three" format="2">
  <advance width="620"/>
  <unicode hex="0033"/>
  <outline>
    <contour>
      <point x="259" y="-10" type="curve" smooth="yes"/>
      <point x="443" y="-10"/>
      <point x="537" y="78"/>
      <point x="537" y="201" type="curve" smooth="yes"/>
      <point x="537" y="299"/>
      <point x="475" y="359"/>
      <point x="358" y="373" type="curve"/>
      <point x="358" y="376" type="line"/>
      <point x="454" y="391"/>
      <point x="514" y="455"/>
      <point x="514" y="545" type="curve" smooth="yes"/>
      <point x="514" y="651"/>
      <point x="432" y="724"/>
      <point x="291" y="724" type="curve" smooth="yes"/>
      <point x="204" y="724"/>
      <point x="129" y="698"/>
      <point x="72" y="658" type="curve"/>
      <point x="115" y="596" type="line"/>
      <point x="167" y="627"/>
      <point x="224" y="647"/>
      <point x="287" y="647" type="curve" smooth="yes"/>
      <point x="375" y="647"/>
      <point x="423" y="607"/>
      <point x="423" y="540" type="curve" smooth="yes"/>
      <point x="423" y="461"/>
      <point x="357" y="407"/>
      <point x="248" y="407" type="curve" smooth="yes"/>
      <point x="176" y="407" type="line"/>
      <point x="176" y="331" type="line"/>
      <point x="247" y="331" type="line" smooth="yes"/>
      <point x="373" y="331"/>
      <point x="443" y="294"/>
      <point x="443" y="203" type="curve" smooth="yes"/>
      <point x="443" y="121"/>
      <point x="385" y="67"/>
      <point x="263" y="67" type="curve" smooth="yes"/>
      <point x="196" y="67"/>
      <point x="123" y="83"/>
      <point x="65" y="113" type="curve"/>
      <point x="65" y="29" type="line"/>
      <point x="124" y="0"/>
      <point x="195" y="-10"/>
    </contour>
  </outline>
</glyph>
<glyph name="four" format="2">
  <advance width="620"/>
  <unicode hex="0034"/>
  <outline>
    <contour>
      <point x="365" y="0" type="line"/>
      <point x="453" y="0" type="line"/>
      <point x="453" y="161" type="line"/>
      <point x="560" y="161" type="line"/>
      <point x="560" y="240" type="line"/>
      <point x="453" y="240" type="line"/>
      <point x="453" y="718" type="line"/>
      <point x="349" y="718" type="line"/>
      <point x="42" y="237" type="line"/>
      <point x="42" y="161" type="line"/>
      <point x="365" y="161" type="line"/>
    </contour>
    <contour>
      <point x="130" y="240" type="line"/>
      <point x="312" y="511" type="line" smooth="yes"/>
      <point x="331" y="540"/>
      <point x="352" y="587"/>
      <point x="367" y="620" type="curve"/>
      <point x="370" y="620" type="line"/>
      <point x="368" y="574"/>
      <point x="365" y="483"/>
      <point x="365" y="410" type="curve" smooth="yes"/>
      <point x="365" y="240" type="line"/>
    </contour>
  </outline>
</glyph>
<glyph name="five" format="2">
  <advance width="620"/>
  <unicode hex="0035"/>
  <outline>
    <contour>
      <point x="258" y="-10" type="curve" smooth="yes"/>
      <point x="429" y="-10"/>
      <point x="527" y="80"/>
      <point x="527" y="227" type="curve" smooth="yes"/>
      <point x="527" y="365"/>
      <point x="430" y="438"/>
      <point x="290" y="438" type="curve" smooth="yes"/>
      <point x="249" y="438"/>
      <point x="208" y="433"/>
      <point x="179" y="428" type="curve"/>
      <point x="200" y="633" type="line"/>
      <point x="481" y="633" type="line"/>
      <point x="481" y="714" type="line"/>
      <point x="121" y="714" type="line"/>
      <point x="93" y="378" type="line"/>
      <point x="135" y="349" type="line"/>
      <point x="170" y="356"/>
      <point x="221" y="364"/>
      <point x="262" y="364" type="curve" smooth="yes"/>
      <point x="372" y="364"/>
      <point x="435" y="313"/>
      <point x="435" y="218" type="curve" smooth="yes"/>
      <point x="435" y="115"/>
      <point x="370" y="68"/>
      <point x="256" y="68" type="curve" smooth="yes"/>
      <point x="193" y="68"/>
      <point x="125" y="84"/>
      <point x="74" y="114" type="curve"/>
      <point x="74" y="29" type="line"/>
      <point x="120" y="3"/>
      <point x="188" y="-10"/>
    </contour>
  </outline>
</glyph>
<glyph name="six" format="2">
  <advance width="620"/>
  <unicode hex="0036"/>
  <outline>
    <contour>
      <point x="310" y="-10" type="curve" smooth="yes"/>
      <point x="453" y="-10"/>
      <point x="541" y="82"/>
      <point x="541" y="229" type="curve" smooth="yes"/>
      <point x="541" y="369"/>
      <point x="459" y="449"/>
      <point x="329" y="449" type="curve" smooth="yes"/>
      <point x="238" y="449"/>
      <point x="185" y="413"/>
      <point x="154" y="364" type="curve"/>
      <point x="149" y="364" type="line"/>
      <point x="155" y="520"/>
      <point x="221" y="649"/>
      <point x="394" y="649" type="curve" smooth="yes"/>
      <point x="426" y="649"/>
      <point x="458" y="646"/>
      <point x="483" y="638" type="curve"/>
      <point x="483" y="715" type="line"/>
      <point x="460" y="721"/>
      <point x="422" y="724"/>
      <point x="392" y="724" type="curve" smooth="yes"/>
      <point x="152" y="724"/>
      <point x="60" y="523"/>
      <point x="60" y="311" type="curve" smooth="yes"/>
      <point x="60" y="89"/>
      <point x="153" y="-10"/>
    </contour>
    <contour>
      <point x="311" y="66" type="curve" smooth="yes"/>
      <point x="193" y="66"/>
      <point x="153" y="160"/>
      <point x="153" y="241" type="curve" smooth="yes"/>
      <point x="153" y="315"/>
      <point x="219" y="378"/>
      <point x="313" y="378" type="curve" smooth="yes"/>
      <point x="406" y="378"/>
      <point x="453" y="323"/>
      <point x="453" y="227" type="curve" smooth="yes"/>
      <point x="453" y="118"/>
      <point x="396" y="66"/>
    </contour>
  </outline>
</glyph>
<glyph name="seven" format="2">
  <advance width="620"/>
  <unicode hex="0037"/>
  <outline>
    <contour>
      <point x="165" y="0" type="line"/>
      <point x="261" y="0" type="line"/>
      <point x="542" y="642" type="line"/>
      <point x="542" y="714" type="line"/>
      <point x="66" y="714" type="line"/>
      <point x="66" y="633" type="line"/>
      <point x="447" y="633" type="line"/>
    </contour>
  </outline>
</glyph>
<glyph name="eight" format="2">
  <advance width="620"/>
  <unicode hex="0038"/>
  <outline>
    <contour>
      <point x="291" y="-10" type="curve" smooth="yes"/>
      <point x="435" y="-10"/>
      <point x="534" y="67"/>
      <point x="534" y="185" type="curve" smooth="yes"/>
      <point x="534" y="280"/>
      <point x="468" y="336"/>
      <point x="369" y="378" type="curve"/>
      <point x="456" y="413"/>
      <point x="510" y="467"/>
      <point x="510" y="552" type="curve" smooth="yes"/>
      <point x="510" y="668"/>
      <point x="415" y="725"/>
      <point x="299" y="725" type="curve" smooth="yes"/>
      <point x="181" y="725"/>
      <point x="84" y="669"/>
      <point x="84" y="551" type="curve" smooth="yes"/>
      <point x="84" y="469"/>
      <point x="139" y="412"/>
      <point x="215" y="374" type="curve"/>
      <point x="121" y="336"/>
      <point x="60" y="279"/>
      <point x="60" y="182" type="curve" smooth="yes"/>
      <point x="60" y="56"/>
      <point x="155" y="-10"/>
    </contour>
    <contour>
      <point x="294" y="65" type="curve" smooth="yes"/>
      <point x="198" y="65"/>
      <point x="148" y="112"/>
      <point x="148" y="183" type="curve" smooth="yes"/>
      <point x="148" y="253"/>
      <point x="201" y="302"/>
      <point x="287" y="339" type="curve"/>
      <point x="405" y="290"/>
      <point x="447" y="254"/>
      <point x="447" y="187" type="curve" smooth="yes"/>
      <point x="447" y="112"/>
      <point x="391" y="65"/>
    </contour>
    <contour>
      <point x="298" y="415" type="curve"/>
      <point x="225" y="445"/>
      <point x="171" y="476"/>
      <point x="171" y="547" type="curve" smooth="yes"/>
      <point x="171" y="615"/>
      <point x="222" y="649"/>
      <point x="298" y="649" type="curve" smooth="yes"/>
      <point x="374" y="649"/>
      <point x="422" y="615"/>
      <point x="422" y="548" type="curve" smooth="yes"/>
      <point x="422" y="482"/>
      <point x="376" y="443"/>
    </contour>
  </outline>
</glyph>
<glyph name="nine" format="2">
  <advance width="620"/>
  <unicode hex="0039"/>
  <outline>
    <contour>
      <point x="208" y="-10" type="curve" smooth="yes"/>
      <point x="450" y="-10"/>
      <point x="539" y="205"/>
      <point x="539" y="404" type="curve" smooth="yes"/>
      <point x="539" y="623"/>
      <point x="447" y="724"/>
      <point x="291" y="724" type="curve" smooth="yes"/>
      <point x="147" y="724"/>
      <point x="59" y="633"/>
      <point x="59" y="485" type="curve" smooth="yes"/>
      <point x="59" y="344"/>
      <point x="139" y="265"/>
      <point x="270" y="265" type="curve" smooth="yes"/>
      <point x="359" y="265"/>
      <point x="413" y="300"/>
      <point x="446" y="350" type="curve"/>
      <point x="451" y="350" type="line"/>
      <point x="444" y="195"/>
      <point x="370" y="65"/>
      <point x="205" y="65" type="curve"/>
      <point x="172" y="65"/>
      <point x="139" y="68"/>
      <point x="114" y="77" type="curve"/>
      <point x="114" y="-1" type="line"/>
      <point x="138" y="-7"/>
      <point x="175" y="-10"/>
    </contour>
    <contour>
      <point x="285" y="336" type="curve" smooth="yes"/>
      <point x="196" y="336"/>
      <point x="147" y="389"/>
      <point x="147" y="488" type="curve" smooth="yes"/>
      <point x="147" y="594"/>
      <point x="202" y="648"/>
      <point x="291" y="648" type="curve" smooth="yes"/>
      <point x="407" y="648"/>
      <point x="447" y="548"/>
      <point x="447" y="480" type="curve" smooth="yes"/>
      <point x="447" y="388"/>
      <point x="374" y="336"/>
    </contour>
  </outline>
</glyph>
<glyph name="colon" format="2">
  <advance width="620"/>
  <unicode hex="003A"/>
  <outline>
    <contour>
      <point x="301" y="411" type="curve" smooth="yes"/>
      <point x="338" y="411"/>
      <point x="364" y="431"/>
      <point x="364" y="479" type="curve" smooth="yes"/>
      <point x="364" y="526"/>
      <point x="339" y="545"/>
      <point x="301" y="545" type="curve" smooth="yes"/>
      <point x="263" y="545"/>
      <point x="238" y="526"/>
      <point x="238" y="479" type="curve" smooth="yes"/>
      <point x="238" y="432"/>
      <point x="263" y="411"/>
    </contour>
    <contour>
      <point x="301" y="-12" type="curve" smooth="yes"/>
      <point x="338" y="-12"/>
      <point x="364" y="9"/>
      <point x="364" y="57" type="curve" smooth="yes"/>
      <point x="364" y="105"/>
      <point x="338" y="123"/>
      <point x="301" y="123" type="curve" smooth="yes"/>
      <point x="263" y="123"/>
      <point x="238" y="104"/>
      <point x="238" y="57" type="curve" smooth="yes"/>
      <point x="238" y="10"/>
      <point x="263" y="-12"/>
    </contour>
  </outline>
</glyph>
<glyph name="semicolon" format="2">
  <advance width="620"/>
  <unicode hex="003B"/>
  <outline>
    <contour>
      <point x="199" y="-135" type="curve"/>
      <point x="268" y="-135" type="line"/>
      <point x="305" y="-60"/>
      <point x="340" y="32"/>
      <point x="361" y="109" type="curve"/>
      <point x="354" y="121" type="line"/>
      <point x="257" y="121" type="line"/>
      <point x="246" y="47"/>
      <point x="224" y="-52"/>
    </contour>
    <contour>
      <point x="305" y="411" type="curve" smooth="yes"/>
      <point x="342" y="411"/>
      <point x="367" y="431"/>
      <point x="367" y="479" type="curve" smooth="yes"/>
      <point x="367" y="526"/>
      <point x="343" y="545"/>
      <point x="305" y="545" type="curve" smooth="yes"/>
      <point x="267" y="545"/>
      <point x="243" y="526"/>
      <point x="243" y="479" type="curve" smooth="yes"/>
      <point x="243" y="432"/>
      <point x="267" y="411"/>
    </contour>
  </outline>
</glyph>
<glyph name="equal" format="2">
  <advance width="620"/>
  <unicode hex="003D"/>
  <outline>
    <contour>
      <point x="57" y="412" type="line"/>
      <point x="545" y="412" type="line"/>
      <point x="545" y="492" type="line"/>
      <point x="57" y="492" type="line"/>
    </contour>
    <contour>
      <point x="57" y="211" type="line"/>
      <point x="545" y="211" type="line"/>
      <point x="545" y="292" type="line"/>
      <point x="57" y="292" type="line"/>
    </contour>
  </outline>
</glyph>
<glyph name="greater" format="2">
  <advance width="620"/>
  <unicode hex="003E"/>
  <outline>
    <contour>
      <point x="72" y="126" type="line"/>
      <point x="530" y="329" type="line"/>
      <point x="530" y="378" type="line"/>
      <point x="72" y="589" type="line"/>
      <point x="72" y="509" type="line"/>
      <point x="433" y="354" type="line"/>
      <point x="72" y="206" type="line"/>
    </contour>
  </outline>
</glyph>
<glyph name="question" format="2">
  <advance width="620"/>
  <unicode hex="003F"/>
  <outline>
    <contour>
      <point x="226" y="203" type="line"/>
      <point x="299" y="203" type="line"/>
      <point x="299" y="219" type="line" smooth="yes"/>
      <point x="299" y="274"/>
      <point x="315" y="300"/>
      <point x="383" y="355" type="curve" smooth="yes"/>
      <point x="463" y="420"/>
      <point x="507" y="463"/>
      <point x="507" y="553" type="curve" smooth="yes"/>
      <point x="507" y="659"/>
      <point x="427" y="724"/>
      <point x="292" y="724" type="curve" smooth="yes"/>
      <point x="214" y="724"/>
      <point x="153" y="704"/>
      <point x="94" y="677" type="curve"/>
      <point x="127" y="605" type="line"/>
      <point x="178" y="629"/>
      <point x="227" y="646"/>
      <point x="290" y="646" type="curve" smooth="yes"/>
      <point x="372" y="646"/>
      <point x="421" y="609"/>
      <point x="421" y="548" type="curve" smooth="yes"/>
      <point x="421" y="485"/>
      <point x="391" y="453"/>
      <point x="317" y="396" type="curve" smooth="yes"/>
      <point x="246" y="343"/>
      <point x="226" y="301"/>
      <point x="226" y="228" type="curve" smooth="yes"/>
    </contour>
    <contour>
      <point x="266" y="-12" type="curve" smooth="yes"/>
      <point x="303" y="-12"/>
      <point x="328" y="9"/>
      <point x="328" y="57" type="curve" smooth="yes"/>
      <point x="328" y="105"/>
      <point x="303" y="123"/>
      <point x="266" y="123" type="curve" smooth="yes"/>
      <point x="227" y="123"/>
      <point x="204" y="104"/>
      <point x="204" y="57" type="curve" smooth="yes"/>
      <point x="204" y="10"/>
      <point x="228" y="-12"/>
    </contour>
  </outline>
</glyph>
<glyph name="at" format="2">
  <advance width="620"/>
  <unicode hex="0040"/>
  <outline>
    <contour>
      <point x="327" y="-89" type="curve" smooth="yes"/>
      <point x="396" y="-89"/>
      <point x="454" y="-75"/>
      <point x="510" y="-49" type="curve"/>
      <point x="510" y="10" type="line"/>
      <point x="453" y="-14"/>
      <point x="394" y="-28"/>
      <point x="329" y="-28" type="curve" smooth="yes"/>
      <point x="151" y="-28"/>
      <point x="63" y="92"/>
      <point x="63" y="297" type="curve" smooth="yes"/>
      <point x="63" y="517"/>
      <point x="156" y="653"/>
      <point x="321" y="653" type="curve" smooth="yes"/>
      <point x="462" y="653"/>
      <point x="541" y="542"/>
      <point x="541" y="358" type="curve" smooth="yes"/>
      <point x="541" y="240"/>
      <point x="523" y="166"/>
      <point x="481" y="166" type="curve" smooth="yes"/>
      <point x="453" y="166"/>
      <point x="439" y="192"/>
      <point x="439" y="256" type="curve" smooth="yes"/>
      <point x="439" y="266"/>
      <point x="440" y="281"/>
      <point x="441" y="293" type="curve" smooth="yes"/>
      <point x="452" y="497" type="line"/>
      <point x="424" y="508"/>
      <point x="376" y="520"/>
      <point x="332" y="520" type="curve" smooth="yes"/>
      <point x="217" y="520"/>
      <point x="144" y="430"/>
      <point x="144" y="296" type="curve" smooth="yes"/>
      <point x="144" y="181"/>
      <point x="193" y="108"/>
      <point x="276" y="108" type="curve" smooth="yes"/>
      <point x="329" y="108"/>
      <point x="371" y="140"/>
      <point x="393" y="191" type="curve"/>
      <point x="395" y="190" type="line"/>
      <point x="402" y="143"/>
      <point x="434" y="108"/>
      <point x="479" y="108" type="curve" smooth="yes"/>
      <point x="570" y="108"/>
      <point x="605" y="234"/>
      <point x="605" y="357" type="curve" smooth="yes"/>
      <point x="605" y="576"/>
      <point x="500" y="714"/>
      <point x="321" y="714" type="curve" smooth="yes"/>
      <point x="118" y="714"/>
      <point x="-3" y="549"/>
      <point x="-3" y="294" type="curve" smooth="yes"/>
      <point x="-3" y="56"/>
      <point x="110" y="-89"/>
    </contour>
    <contour>
      <point x="290" y="166" type="curve" smooth="yes"/>
      <point x="243" y="166"/>
      <point x="218" y="208"/>
      <point x="218" y="294" type="curve" smooth="yes"/>
      <point x="218" y="392"/>
      <point x="258" y="462"/>
      <point x="330" y="462" type="curve" smooth="yes"/>
      <point x="347" y="462"/>
      <point x="364" y="459"/>
      <point x="379" y="453" type="curve"/>
      <point x="371" y="323" type="line" smooth="yes"/>
      <point x="364" y="221"/>
      <point x="340" y="166"/>
    </contour>
  </outline>
</glyph>
<glyph name="A" format="2">
  <advance width="620"/>
  <unicode hex="0041"/>
  <anchor x="301" y="0" name="bottom"/>
  <anchor x="550" y="10" name="ogonek"/>
  <anchor x="301" y="714" name="top"/>
  <anchor x="589" y="714" name="topright"/>
  <outline>
    <contour>
      <point x="12" y="0" type="line"/>
      <point x="103" y="0" type="line"/>
      <point x="270" y="525" type="line" smooth="yes"/>
      <point x="279" y="557"/>
      <point x="292" y="604"/>
      <point x="299" y="638" type="curve"/>
      <point x="307" y="604"/>
      <point x="320" y="558"/>
      <point x="330" y="525" type="curve" smooth="yes"/>
      <point x="499" y="0" type="line"/>
      <point x="589" y="0" type="line"/>
      <point x="353" y="715" type="line"/>
      <point x="246" y="715" type="line"/>
    </contour>
    <contour>
      <point x="150" y="221" type="line"/>
      <point x="456" y="221" type="line"/>
      <point x="447" y="300" type="line"/>
      <point x="160" y="300" type="line"/>
    </contour>
  </outline>
</glyph>
<glyph name="B" format="2">
  <advance width="620"/>
  <unicode hex="0042"/>
  <anchor x="301" y="0" name="bottom"/>
  <anchor x="301" y="714" name="top"/>
  <anchor x="589" y="714" name="topright"/>
  <outline>
    <contour>
      <point x="82" y="0" type="line"/>
      <point x="298" y="0" type="line" smooth="yes"/>
      <point x="455" y="0"/>
      <point x="555" y="76"/>
      <point x="555" y="205" type="curve" smooth="yes"/>
      <point x="555" y="313"/>
      <point x="493" y="358"/>
      <point x="395" y="374" type="curve"/>
      <point x="395" y="379" type="line"/>
      <point x="484" y="394"/>
      <point x="534" y="450"/>
      <point x="534" y="540" type="curve" smooth="yes"/>
      <point x="534" y="663"/>
      <point x="442" y="714"/>
      <point x="274" y="714" type="curve" smooth="yes"/>
      <point x="82" y="714" type="line"/>
    </contour>
    <contour>
      <point x="167" y="78" type="line"/>
      <point x="167" y="335" type="line"/>
      <point x="278" y="335" type="line" smooth="yes"/>
      <point x="408" y="335"/>
      <point x="464" y="287"/>
      <point x="464" y="207" type="curve" smooth="yes"/>
      <point x="464" y="128"/>
      <point x="408" y="78"/>
      <point x="285" y="78" type="curve" smooth="yes"/>
    </contour>
    <contour>
      <point x="167" y="412" type="line"/>
      <point x="167" y="636" type="line"/>
      <point x="263" y="636" type="line" smooth="yes"/>
      <point x="391" y="636"/>
      <point x="445" y="604"/>
      <point x="445" y="526" type="curve" smooth="yes"/>
      <point x="445" y="450"/>
      <point x="394" y="412"/>
      <point x="274" y="412" type="curve" smooth="yes"/>
    </contour>
  </outline>
</glyph>
<glyph name="C" format="2">
  <advance width="620"/>
  <unicode hex="0043"/>
  <anchor x="349" y="0" name="bottom"/>
  <anchor x="368" y="714" name="top"/>
  <anchor x="589" y="714" name="topright"/>
  <outline>
    <contour>
      <point x="369" y="-10" type="curve" smooth="yes"/>
      <point x="439" y="-10"/>
      <point x="493" y="-3"/>
      <point x="545" y="17" type="curve"/>
      <point x="545" y="98" type="line"/>
      <point x="493" y="80"/>
      <point x="437" y="70"/>
      <point x="379" y="70" type="curve" smooth="yes"/>
      <point x="216" y="70"/>
      <point x="138" y="180"/>
      <point x="138" y="357" type="curve" smooth="yes"/>
      <point x="138" y="527"/>
      <point x="220" y="646"/>
      <point x="382" y="646" type="curve" smooth="yes"/>
      <point x="436" y="646"/>
      <point x="492" y="633"/>
      <point x="538" y="613" type="curve"/>
      <point x="571" y="686" type="line"/>
      <point x="514" y="711"/>
      <point x="450" y="726"/>
      <point x="381" y="726" type="curve" smooth="yes"/>
      <point x="166" y="726"/>
      <point x="49" y="573"/>
      <point x="49" y="358" type="curve" smooth="yes"/>
      <point x="49" y="133"/>
      <point x="157" y="-10"/>
    </contour>
  </outline>
</glyph>
<glyph name="D" format="2">
  <advance width="620"/>
  <unicode hex="0044"/>
  <anchor x="264" y="0" name="bottom"/>
  <anchor x="304" y="357" name="center"/>
  <anchor x="285" y="714" name="top"/>
  <anchor x="612" y="714" name="topright"/>
  <outline>
    <contour>
      <point x="58" y="0" type="line"/>
      <point x="245" y="0" type="line" smooth="yes"/>
      <point x="458" y="0"/>
      <point x="572" y="125"/>
      <point x="572" y="366" type="curve" smooth="yes"/>
      <point x="572" y="593"/>
      <point x="459" y="714"/>
      <point x="262" y="714" type="curve" smooth="yes"/>
      <point x="58" y="714" type="line"/>
    </contour>
    <contour>
      <point x="144" y="80" type="line"/>
      <point x="144" y="634" type="line"/>
      <point x="244" y="634" type="line" smooth="yes"/>
      <point x="407" y="634"/>
      <point x="481" y="555"/>
      <point x="481" y="364" type="curve" smooth="yes"/>
      <point x="481" y="177"/>
      <point x="404" y="80"/>
      <point x="238" y="80" type="curve" smooth="yes"/>
    </contour>
  </outline>
</glyph>
<glyph name="E" format="2">
  <advance width="620"/>
  <unicode hex="0045"/>
  <anchor x="307" y="0" name="bottom"/>
  <anchor x="468" y="10" name="ogonek"/>
  <anchor x="304" y="714" name="top"/>
  <anchor x="13" y="714" name="topleft"/>
  <anchor x="589" y="714" name="topright"/>
  <outline>
    <contour>
      <point x="82" y="0" type="line"/>
      <point x="531" y="0" type="line"/>
      <point x="531" y="81" type="line"/>
      <point x="171" y="81" type="line"/>
      <point x="171" y="331" type="line"/>
      <point x="510" y="331" type="line"/>
      <point x="510" y="411" type="line"/>
      <point x="171" y="411" type="line"/>
      <point x="171" y="633" type="line"/>
      <point x="531" y="633" type="line"/>
      <point x="531" y="714" type="line"/>
      <point x="82" y="714" type="line"/>
    </contour>
  </outline>
</glyph>
<glyph name="F" format="2">
  <advance width="620"/>
  <unicode hex="0046"/>
  <anchor x="314" y="0" name="bottom"/>
  <anchor x="315" y="714" name="top"/>
  <anchor x="589" y="714" name="topright"/>
  <outline>
    <contour>
      <point x="82" y="0" type="line"/>
      <point x="171" y="0" type="line"/>
      <point x="171" y="303" type="line"/>
      <point x="514" y="303" type="line"/>
      <point x="514" y="383" type="line"/>
      <point x="171" y="383" type="line"/>
      <point x="171" y="633" type="line"/>
      <point x="531" y="633" type="line"/>
      <point x="531" y="714" type="line"/>
      <point x="82" y="714" type="line"/>
    </contour>
  </outline>
</glyph>
<glyph name="G" format="2">
  <advance width="620"/>
  <unicode hex="0047"/>
  <anchor x="337" y="0" name="bottom"/>
  <anchor x="328" y="714" name="top"/>
  <anchor x="589" y="714" name="topright"/>
  <outline>
    <contour>
      <point x="339" y="-10" type="curve" smooth="yes"/>
      <point x="412" y="-10"/>
      <point x="478" y="4"/>
      <point x="542" y="25" type="curve"/>
      <point x="542" y="378" type="line"/>
      <point x="321" y="378" type="line"/>
      <point x="321" y="298" type="line"/>
      <point x="456" y="298" type="line"/>
      <point x="456" y="83" type="line"/>
      <point x="422" y="75"/>
      <point x="385" y="69"/>
      <point x="339" y="69" type="curve" smooth="yes"/>
      <point x="188" y="69"/>
      <point x="120" y="194"/>
      <point x="120" y="355" type="curve" smooth="yes"/>
      <point x="120" y="541"/>
      <point x="200" y="646"/>
      <point x="350" y="646" type="curve" smooth="yes"/>
      <point x="407" y="646"/>
      <point x="455" y="635"/>
      <point x="507" y="609" type="curve"/>
      <point x="540" y="682" type="line"/>
      <point x="484" y="711"/>
      <point x="416" y="726"/>
      <point x="348" y="726" type="curve" smooth="yes"/>
      <point x="137" y="726"/>
      <point x="30" y="577"/>
      <point x="30" y="354" type="curve" smooth="yes"/>
      <point x="30" y="137"/>
      <point x="127" y="-10"/>
    </contour>
  </outline>
</glyph>
<glyph name="H" format="2">
  <advance width="620"/>
  <unicode hex="0048"/>
  <anchor x="301" y="0" name="bottom"/>
  <anchor x="301" y="372" name="center"/>
  <anchor x="301" y="714" name="top"/>
  <anchor x="13" y="714" name="topleft"/>
  <anchor x="612" y="714" name="topright"/>
  <outline>
    <contour>
      <point x="58" y="0" type="line"/>
      <point x="146" y="0" type="line"/>
      <point x="146" y="330" type="line"/>
      <point x="456" y="330" type="line"/>
      <point x="456" y="0" type="line"/>
      <point x="544" y="0" type="line"/>
      <point x="544" y="714" type="line"/>
      <point x="456" y="714" type="line"/>
      <point x="456" y="411" type="line"/>
      <point x="146" y="411" type="line"/>
      <point x="146" y="714" type="line"/>
      <point x="58" y="714" type="line"/>
    </contour>
  </outline>
</glyph>
<glyph name="I" format="2">
  <advance width="620"/>
  <unicode hex="0049"/>
  <anchor x="301" y="0" name="bottom"/>
  <anchor x="372" y="10" name="ogonek"/>
  <anchor x="301" y="714" name="top"/>
  <anchor x="13" y="714" name="topleft"/>
  <anchor x="589" y="714" name="topright"/>
  <outline>
    <contour>
      <point x="102" y="0" type="line"/>
      <point x="500" y="0" type="line"/>
      <point x="500" y="62" type="line"/>
      <point x="343" y="73" type="line"/>
      <point x="343" y="641" type="line"/>
      <point x="500" y="652" type="line"/>
      <point x="500" y="714" type="line"/>
      <point x="102" y="714" type="line"/>
      <point x="102" y="652" type="line"/>
      <point x="257" y="641" type="line"/>
      <point x="257" y="73" type="line"/>
      <point x="102" y="62" type="line"/>
    </contour>
  </outline>
</glyph>
<glyph name="J" format="2">
  <advance width="620"/>
  <unicode hex="004A"/>
  <anchor x="301" y="0" name="bottom"/>
  <anchor x="422" y="714" name="top"/>
  <anchor x="589" y="714" name="topright"/>
  <outline>
    <contour>
      <point x="230" y="-10" type="curve" smooth="yes"/>
      <point x="389" y="-10"/>
      <point x="466" y="77"/>
      <point x="466" y="209" type="curve" smooth="yes"/>
      <point x="466" y="714" type="line"/>
      <point x="379" y="714" type="line"/>
      <point x="379" y="224" type="line" smooth="yes"/>
      <point x="379" y="122"/>
      <point x="326" y="70"/>
      <point x="223" y="70" type="curve" smooth="yes"/>
      <point x="171" y="70"/>
      <point x="116" y="82"/>
      <point x="75" y="100" type="curve"/>
      <point x="75" y="19" type="line"/>
      <point x="116" y="1"/>
      <point x="172" y="-10"/>
    </contour>
  </outline>
</glyph>
<glyph name="K" format="2">
  <advance width="620"/>
  <unicode hex="004B"/>
  <anchor x="314" y="0" name="bottom"/>
  <anchor x="301" y="714" name="top"/>
  <anchor x="589" y="714" name="topright"/>
  <outline>
    <contour>
      <point x="58" y="0" type="line"/>
      <point x="144" y="0" type="line"/>
      <point x="144" y="254" type="line"/>
      <point x="234" y="331" type="line"/>
      <point x="470" y="0" type="line"/>
      <point x="570" y="0" type="line"/>
      <point x="294" y="393" type="line"/>
      <point x="560" y="714" type="line"/>
      <point x="457" y="714" type="line"/>
      <point x="231" y="462" type="line" smooth="yes"/>
      <point x="195" y="418"/>
      <point x="171" y="380"/>
      <point x="144" y="348" type="curve"/>
      <point x="144" y="714" type="line"/>
      <point x="58" y="714" type="line"/>
    </contour>
  </outline>
</glyph>
<glyph name="L" format="2">
  <advance width="620"/>
  <unicode hex="004C"/>
  <anchor x="331" y="0" name="bottom"/>
  <anchor x="301" y="357" name="center"/>
  <anchor x="147" y="714" name="top"/>
  <anchor x="442" y="714" name="topright"/>
  <outline>
    <contour>
      <point x="102" y="0" type="line"/>
      <point x="531" y="0" type="line"/>
      <point x="531" y="83" type="line"/>
      <point x="190" y="83" type="line"/>
      <point x="190" y="714" type="line"/>
      <point x="102" y="714" type="line"/>
    </contour>
  </outline>
</glyph>
<glyph name="M" format="2">
  <advance width="620"/>
  <unicode hex="004D"/>
  <anchor x="301" y="0" name="bottom"/>
  <anchor x="305" y="714" name="top"/>
  <anchor x="612" y="714" name="topright"/>
  <outline>
    <contour>
      <point x="36" y="0" type="line"/>
      <point x="118" y="0" type="line"/>
      <point x="118" y="381" type="line" smooth="yes"/>
      <point x="118" y="468"/>
      <point x="111" y="577"/>
      <point x="104" y="636" type="curve"/>
      <point x="109" y="636" type="line"/>
      <point x="256" y="194" type="line"/>
      <point x="342" y="194" type="line"/>
      <point x="490" y="636" type="line"/>
      <point x="495" y="636" type="line"/>
      <point x="489" y="561"/>
      <point x="484" y="463"/>
      <point x="484" y="382" type="curve" smooth="yes"/>
      <point x="484" y="0" type="line"/>
      <point x="566" y="0" type="line"/>
      <point x="566" y="714" type="line"/>
      <point x="439" y="714" type="line"/>
      <point x="301" y="294" type="line"/>
      <point x="298" y="294" type="line"/>
      <point x="161" y="714" type="line"/>
      <point x="36" y="714" type="line"/>
    </contour>
  </outline>
</glyph>
<glyph name="N" format="2">
  <advance width="620"/>
  <unicode hex="004E"/>
  <anchor x="301" y="0" name="bottom"/>
  <anchor x="306" y="714" name="top"/>
  <anchor x="612" y="714" name="topright"/>
  <outline>
    <contour>
      <point x="58" y="0" type="line"/>
      <point x="140" y="0" type="line"/>
      <point x="140" y="421" type="line" smooth="yes"/>
      <point x="140" y="494"/>
      <point x="135" y="557"/>
      <point x="129" y="626" type="curve"/>
      <point x="134" y="626" type="line"/>
      <point x="431" y="0" type="line"/>
      <point x="544" y="0" type="line"/>
      <point x="544" y="714" type="line"/>
      <point x="461" y="714" type="line"/>
      <point x="461" y="284" type="line" smooth="yes"/>
      <point x="461" y="213"/>
      <point x="468" y="140"/>
      <point x="472" y="98" type="curve"/>
      <point x="467" y="98" type="line"/>
      <point x="177" y="714" type="line"/>
      <point x="58" y="714" type="line"/>
    </contour>
  </outline>
</glyph>
<glyph name="O" format="2">
  <advance width="620"/>
  <unicode hex="004F"/>
  <anchor x="301" y="0" name="bottom"/>
  <anchor x="301" y="357" name="center"/>
  <anchor x="300" y="10" name="ogonek"/>
  <anchor x="301" y="714" name="top"/>
  <anchor x="13" y="714" name="topleft"/>
  <anchor x="612" y="714" name="topright"/>
  <outline>
    <contour>
      <point x="302" y="-10" type="curve" smooth="yes"/>
      <point x="499" y="-10"/>
      <point x="572" y="146"/>
      <point x="572" y="358" type="curve" smooth="yes"/>
      <point x="572" y="569"/>
      <point x="494" y="726"/>
      <point x="301" y="726" type="curve" smooth="yes"/>
      <point x="118" y="726"/>
      <point x="30" y="591"/>
      <point x="30" y="359" type="curve" smooth="yes"/>
      <point x="30" y="150"/>
      <point x="103" y="-10"/>
    </contour>
    <contour>
      <point x="302" y="69" type="curve" smooth="yes"/>
      <point x="178" y="69"/>
      <point x="120" y="172"/>
      <point x="120" y="358" type="curve" smooth="yes"/>
      <point x="120" y="543"/>
      <point x="173" y="647"/>
      <point x="302" y="647" type="curve" smooth="yes"/>
      <point x="425" y="647"/>
      <point x="482" y="544"/>
      <point x="482" y="358" type="curve" smooth="yes"/>
      <point x="482" y="170"/>
      <point x="426" y="69"/>
    </contour>
  </outline>
</glyph>
<glyph name="P" format="2">
  <advance width="620"/>
  <unicode hex="0050"/>
  <anchor x="301" y="0" name="bottom"/>
  <anchor x="301" y="714" name="top"/>
  <anchor x="612" y="714" name="topright"/>
  <outline>
    <contour>
      <point x="82" y="0" type="line"/>
      <point x="169" y="0" type="line"/>
      <point x="169" y="276" type="line"/>
      <point x="287" y="276" type="line" smooth="yes"/>
      <point x="478" y="276"/>
      <point x="555" y="377"/>
      <point x="555" y="505" type="curve" smooth="yes"/>
      <point x="555" y="638"/>
      <point x="474" y="714"/>
      <point x="300" y="714" type="curve" smooth="yes"/>
      <point x="82" y="714" type="line"/>
    </contour>
    <contour>
      <point x="169" y="355" type="line"/>
      <point x="169" y="635" type="line"/>
      <point x="294" y="635" type="line" smooth="yes"/>
      <point x="411" y="635"/>
      <point x="465" y="593"/>
      <point x="465" y="500" type="curve" smooth="yes"/>
      <point x="465" y="395"/>
      <point x="400" y="355"/>
      <point x="278" y="355" type="curve" smooth="yes"/>
    </contour>
  </outline>
</glyph>
<glyph name="Q" format="2">
  <advance width="620"/>
  <unicode hex="0051"/>
  <anchor x="301" y="-220" name="bottom"/>
  <anchor x="301" y="714" name="top"/>
  <anchor x="612" y="714" name="topright"/>
  <anchor x="3" y="714" name="topleft"/>
  <anchor x="290" y="10" name="ogonek"/>
  <anchor x="291" y="357" name="center"/>
  <outline>
    <contour>
      <point x="459" y="-180" type="line"/>
      <point x="555" y="-180" type="line"/>
      <point x="412" y="92" type="line"/>
      <point x="350" y="27" type="line"/>
    </contour>
    <component base="O" xOffset="-10"/>
  </outline>
</glyph>
<glyph name="R" format="2">
  <advance width="620"/>
  <unicode hex="0052"/>
  <anchor x="325" y="0" name="bottom"/>
  <anchor x="301" y="714" name="top"/>
  <anchor x="589" y="714" name="topright"/>
  <outline>
    <contour>
      <point x="82" y="0" type="line"/>
      <point x="169" y="0" type="line"/>
      <point x="169" y="292" type="line"/>
      <point x="309" y="292" type="line"/>
      <point x="486" y="0" type="line"/>
      <point x="584" y="0" type="line"/>
      <point x="388" y="316" type="line"/>
      <point x="472" y="343"/>
      <point x="532" y="399"/>
      <point x="532" y="511" type="curve" smooth="yes"/>
      <point x="532" y="647"/>
      <point x="440" y="714"/>
      <point x="267" y="714" type="curve" smooth="yes"/>
      <point x="82" y="714" type="line"/>
    </contour>
    <contour>
      <point x="169" y="370" type="line"/>
      <point x="169" y="636" type="line"/>
      <point x="262" y="636" type="line" smooth="yes"/>
      <point x="380" y="636"/>
      <point x="440" y="599"/>
      <point x="440" y="507" type="curve" smooth="yes"/>
      <point x="440" y="417"/>
      <point x="384" y="370"/>
      <point x="272" y="370" type="curve" smooth="yes"/>
    </contour>
  </outline>
</glyph>
<glyph name="S" format="2">
  <advance width="620"/>
  <unicode hex="0053"/>
  <anchor x="301" y="0" name="bottom"/>
  <anchor x="317" y="714" name="top"/>
  <anchor x="589" y="714" name="topright"/>
  <outline>
    <contour>
      <point x="270" y="-10" type="curve" smooth="yes"/>
      <point x="438" y="-10"/>
      <point x="538" y="63"/>
      <point x="538" y="194" type="curve" smooth="yes"/>
      <point x="538" y="312"/>
      <point x="453" y="349"/>
      <point x="335" y="398" type="curve" smooth="yes"/>
      <point x="230" y="441"/>
      <point x="170" y="466"/>
      <point x="170" y="539" type="curve" smooth="yes"/>
      <point x="170" y="608"/>
      <point x="229" y="646"/>
      <point x="326" y="646" type="curve" smooth="yes"/>
      <point x="380" y="646"/>
      <point x="439" y="633"/>
      <point x="492" y="612" type="curve"/>
      <point x="524" y="686" type="line"/>
      <point x="462" y="711"/>
      <point x="395" y="726"/>
      <point x="325" y="726" type="curve" smooth="yes"/>
      <point x="180" y="726"/>
      <point x="81" y="664"/>
      <point x="81" y="538" type="curve" smooth="yes"/>
      <point x="81" y="420"/>
      <point x="169" y="373"/>
      <point x="271" y="332" type="curve" smooth="yes"/>
      <point x="390" y="284"/>
      <point x="448" y="261"/>
      <point x="448" y="189" type="curve" smooth="yes"/>
      <point x="448" y="118"/>
      <point x="388" y="68"/>
      <point x="270" y="68" type="curve" smooth="yes"/>
      <point x="204" y="68"/>
      <point x="130" y="84"/>
      <point x="71" y="107" type="curve"/>
      <point x="71" y="25" type="line"/>
      <point x="121" y="3"/>
      <point x="197" y="-10"/>
    </contour>
  </outline>
</glyph>
<glyph name="T" format="2">
  <advance width="620"/>
  <unicode hex="0054"/>
  <anchor x="301" y="0" name="bottom"/>
  <anchor x="301" y="357" name="center"/>
  <anchor x="301" y="714" name="top"/>
  <anchor x="589" y="714" name="topright"/>
  <outline>
    <contour>
      <point x="256" y="0" type="line"/>
      <point x="345" y="0" type="line"/>
      <point x="345" y="633" type="line"/>
      <point x="567" y="633" type="line"/>
      <point x="567" y="714" type="line"/>
      <point x="35" y="714" type="line"/>
      <point x="35" y="633" type="line"/>
      <point x="256" y="633" type="line"/>
    </contour>
  </outline>
</glyph>
<glyph name="U" format="2">
  <advance width="620"/>
  <unicode hex="0055"/>
  <anchor x="301" y="0" name="bottom"/>
  <anchor x="550" y="10" name="ogonek"/>
  <anchor x="301" y="714" name="top"/>
  <anchor x="589" y="714" name="topright"/>
  <outline>
    <contour>
      <point x="300" y="-10" type="curve" smooth="yes"/>
      <point x="465" y="-10"/>
      <point x="544" y="76"/>
      <point x="544" y="230" type="curve" smooth="yes"/>
      <point x="544" y="714" type="line"/>
      <point x="456" y="714" type="line"/>
      <point x="456" y="236" type="line" smooth="yes"/>
      <point x="456" y="126"/>
      <point x="409" y="69"/>
      <point x="301" y="69" type="curve" smooth="yes"/>
      <point x="195" y="69"/>
      <point x="146" y="123"/>
      <point x="146" y="235" type="curve" smooth="yes"/>
      <point x="146" y="714" type="line"/>
      <point x="58" y="714" type="line"/>
      <point x="58" y="231" type="line" smooth="yes"/>
      <point x="58" y="73"/>
      <point x="136" y="-10"/>
    </contour>
  </outline>
</glyph>
<glyph name="V" format="2">
  <advance width="620"/>
  <unicode hex="0056"/>
  <anchor x="301" y="0" name="bottom"/>
  <anchor x="301" y="714" name="top"/>
  <anchor x="589" y="714" name="topright"/>
  <outline>
    <contour>
      <point x="254" y="0" type="line"/>
      <point x="347" y="0" type="line"/>
      <point x="587" y="714" type="line"/>
      <point x="500" y="714" type="line"/>
      <point x="345" y="254" type="line" smooth="yes"/>
      <point x="325" y="194"/>
      <point x="312" y="131"/>
      <point x="302" y="84" type="curve"/>
      <point x="299" y="84" type="line"/>
      <point x="290" y="132"/>
      <point x="276" y="194"/>
      <point x="257" y="251" type="curve" smooth="yes"/>
      <point x="102" y="714" type="line"/>
      <point x="15" y="714" type="line"/>
    </contour>
  </outline>
</glyph>
<glyph name="W" format="2">
  <advance width="620"/>
  <unicode hex="0057"/>
  <anchor x="301" y="0" name="bottom"/>
  <anchor x="301" y="714" name="top"/>
  <anchor x="589" y="714" name="topright"/>
  <outline>
    <contour>
      <point x="100" y="0" type="line"/>
      <point x="203" y="0" type="line"/>
      <point x="275" y="322" type="line" smooth="yes"/>
      <point x="289" y="382"/>
      <point x="295" y="419"/>
      <point x="300" y="444" type="curve"/>
      <point x="303" y="444" type="line"/>
      <point x="308" y="419"/>
      <point x="315" y="382"/>
      <point x="329" y="322" type="curve" smooth="yes"/>
      <point x="402" y="0" type="line"/>
      <point x="506" y="0" type="line"/>
      <point x="587" y="714" type="line"/>
      <point x="507" y="714" type="line"/>
      <point x="493" y="605"/>
      <point x="479" y="503"/>
      <point x="468" y="397" type="curve" smooth="yes"/>
      <point x="457" y="321"/>
      <point x="452" y="135"/>
      <point x="449" y="86" type="curve"/>
      <point x="445" y="86" type="line"/>
      <point x="439" y="133"/>
      <point x="423" y="236"/>
      <point x="405" y="304" type="curve" smooth="yes"/>
      <point x="345" y="536" type="line"/>
      <point x="257" y="536" type="line"/>
      <point x="198" y="306" type="line" smooth="yes"/>
      <point x="182" y="244"/>
      <point x="167" y="132"/>
      <point x="160" y="86" type="curve"/>
      <point x="157" y="86" type="line"/>
      <point x="155" y="135"/>
      <point x="144" y="323"/>
      <point x="134" y="396" type="curve" smooth="yes"/>
      <point x="121" y="501"/>
      <point x="105" y="605"/>
      <point x="90" y="714" type="curve"/>
      <point x="15" y="714" type="line"/>
    </contour>
  </outline>
</glyph>
<glyph name="X" format="2">
  <advance width="620"/>
  <unicode hex="0058"/>
  <anchor x="301" y="0" name="bottom"/>
  <anchor x="301" y="714" name="top"/>
  <anchor x="589" y="714" name="topright"/>
  <outline>
    <contour>
      <point x="23" y="0" type="line"/>
      <point x="117" y="0" type="line"/>
      <point x="298" y="297" type="line"/>
      <point x="484" y="0" type="line"/>
      <point x="579" y="0" type="line"/>
      <point x="347" y="370" type="line"/>
      <point x="563" y="714" type="line"/>
      <point x="468" y="714" type="line"/>
      <point x="301" y="445" type="line"/>
      <point x="136" y="714" type="line"/>
      <point x="41" y="714" type="line"/>
      <point x="252" y="372" type="line"/>
    </contour>
  </outline>
</glyph>
<glyph name="Z" format="2">
  <advance width="620"/>
  <unicode hex="005A"/>
  <anchor x="322" y="0" name="bottom"/>
  <anchor x="315" y="714" name="top"/>
  <anchor x="589" y="714" name="topright"/>
  <outline>
    <contour>
      <point x="82" y="0" type="line"/>
      <point x="529" y="0" type="line"/>
      <point x="529" y="81" type="line"/>
      <point x="180" y="81" type="line"/>
      <point x="522" y="642" type="line"/>
      <point x="522" y="714" type="line"/>
      <point x="102" y="714" type="line"/>
      <point x="102" y="634" type="line"/>
      <point x="426" y="634" type="line"/>
      <point x="82" y="72" type="line"/>
    </contour>
  </outline>
</glyph>
<glyph name="asciicircum" format="2">
  <advance width="620"/>
  <unicode hex="005E"/>
  <outline>
    <contour>
      <point x="44" y="309" type="line"/>
      <point x="126" y="309" type="line"/>
      <point x="299" y="612" type="line"/>
      <point x="475" y="309" type="line"/>
      <point x="557" y="309" type="line"/>
      <point x="324" y="715" type="line"/>
      <point x="274" y="715" type="line"/>
    </contour>
  </outline>
</glyph>
<glyph name="grave" format="2">
  <advance width="620"/>
  <unicode hex="0060"/>
  <outline>
    <contour>
      <point x="315" y="606" type="curve"/>
      <point x="372" y="606" type="line"/>
      <point x="372" y="617" type="line"/>
      <point x="336" y="654"/>
      <point x="284" y="720"/>
      <point x="257" y="766" type="curve"/>
      <point x="155" y="766" type="line"/>
      <point x="155" y="757" type="line"/>
      <point x="186" y="716"/>
      <point x="265" y="640"/>
    </contour>
  </outline>
</glyph>
<glyph name="a" format="2">
  <advance width="620"/>
  <unicode hex="0061"/>
  <anchor x="303" y="0" name="bottom"/>
  <anchor x="550" y="10" name="ogonek"/>
  <anchor x="313" y="536" name="top"/>
  <anchor x="589" y="536" name="topright"/>
  <outline>
    <contour>
      <point x="249" y="-10" type="curve" smooth="yes"/>
      <point x="336" y="-10"/>
      <point x="396" y="20"/>
      <point x="439" y="75" type="curve"/>
      <point x="443" y="75" type="line"/>
      <point x="458" y="0" type="line"/>
      <point x="525" y="0" type="line"/>
      <point x="525" y="365" type="line" smooth="yes"/>
      <point x="525" y="490"/>
      <point x="447" y="547"/>
      <point x="306" y="547" type="curve" smooth="yes"/>
      <point x="227" y="547"/>
      <point x="166" y="528"/>
      <point x="105" y="499" type="curve"/>
      <point x="136" y="431" type="line"/>
      <point x="187" y="455"/>
      <point x="243" y="472"/>
      <point x="301" y="472" type="curve" smooth="yes"/>
      <point x="387" y="472"/>
      <point x="441" y="443"/>
      <point x="441" y="355" type="curve" smooth="yes"/>
      <point x="441" y="324" type="line"/>
      <point x="322" y="321" type="line" smooth="yes"/>
      <point x="157" y="317"/>
      <point x="67" y="263"/>
      <point x="67" y="150" type="curve" smooth="yes"/>
      <point x="67" y="42"/>
      <point x="141" y="-10"/>
    </contour>
    <contour>
      <point x="269" y="65" type="curve" smooth="yes"/>
      <point x="202" y="65"/>
      <point x="155" y="89"/>
      <point x="155" y="152" type="curve" smooth="yes"/>
      <point x="155" y="220"/>
      <point x="217" y="255"/>
      <point x="342" y="259" type="curve" smooth="yes"/>
      <point x="441" y="262" type="line"/>
      <point x="441" y="214" type="line" smooth="yes"/>
      <point x="441" y="111"/>
      <point x="363" y="65"/>
    </contour>
  </outline>
</glyph>
<glyph name="b" format="2">
  <advance width="620"/>
  <unicode hex="0062"/>
  <anchor x="301" y="0" name="bottom"/>
  <anchor x="301" y="760" name="top"/>
  <anchor x="589" y="760" name="topright"/>
  <outline>
    <contour>
      <point x="333" y="-10" type="curve" smooth="yes"/>
      <point x="476" y="-10"/>
      <point x="556" y="87"/>
      <point x="556" y="269" type="curve" smooth="yes"/>
      <point x="556" y="451"/>
      <point x="475" y="547"/>
      <point x="337" y="547" type="curve" smooth="yes"/>
      <point x="249" y="547"/>
      <point x="192" y="512"/>
      <point x="159" y="465" type="curve"/>
      <point x="156" y="465" type="line"/>
      <point x="159" y="503"/>
      <point x="159" y="540"/>
      <point x="159" y="576" type="curve" smooth="yes"/>
      <point x="159" y="760" type="line"/>
      <point x="72" y="760" type="line"/>
      <point x="72" y="0" type="line"/>
      <point x="138" y="0" type="line"/>
      <point x="153" y="68" type="line"/>
      <point x="159" y="68" type="line"/>
      <point x="195" y="21"/>
      <point x="251" y="-10"/>
    </contour>
    <contour>
      <point x="311" y="65" type="curve" smooth="yes"/>
      <point x="210" y="65"/>
      <point x="159" y="133"/>
      <point x="159" y="274" type="curve" smooth="yes"/>
      <point x="159" y="406"/>
      <point x="213" y="472"/>
      <point x="313" y="472" type="curve" smooth="yes"/>
      <point x="414" y="472"/>
      <point x="466" y="403"/>
      <point x="466" y="268" type="curve" smooth="yes"/>
      <point x="466" y="136"/>
      <point x="414" y="65"/>
    </contour>
  </outline>
</glyph>
<glyph name="c" format="2">
  <advance width="620"/>
  <unicode hex="0063"/>
  <anchor x="344" y="0" name="bottom"/>
  <anchor x="338" y="536" name="top"/>
  <anchor x="589" y="536" name="topright"/>
  <outline>
    <contour>
      <point x="355" y="-10" type="curve" smooth="yes"/>
      <point x="416" y="-10"/>
      <point x="473" y="1"/>
      <point x="517" y="20" type="curve"/>
      <point x="517" y="99" type="line"/>
      <point x="472" y="80"/>
      <point x="416" y="66"/>
      <point x="361" y="66" type="curve" smooth="yes"/>
      <point x="232" y="66"/>
      <point x="168" y="125"/>
      <point x="168" y="266" type="curve" smooth="yes"/>
      <point x="168" y="405"/>
      <point x="235" y="471"/>
      <point x="367" y="471" type="curve" smooth="yes"/>
      <point x="414" y="471"/>
      <point x="454" y="463"/>
      <point x="498" y="442" type="curve"/>
      <point x="526" y="515" type="line"/>
      <point x="477" y="536"/>
      <point x="423" y="547"/>
      <point x="362" y="547" type="curve" smooth="yes"/>
      <point x="195" y="547"/>
      <point x="78" y="469"/>
      <point x="78" y="265" type="curve" smooth="yes"/>
      <point x="78" y="70"/>
      <point x="181" y="-10"/>
    </contour>
  </outline>
</glyph>
<glyph name="d" format="2">
  <advance width="620"/>
  <unicode hex="0064"/>
  <anchor x="301" y="0" name="bottom"/>
  <anchor x="301" y="268" name="center"/>
  <anchor x="301" y="760" name="top"/>
  <anchor x="589" y="760" name="topright"/>
  <outline>
    <contour>
      <point x="269" y="-10" type="curve" smooth="yes"/>
      <point x="358" y="-10"/>
      <point x="412" y="26"/>
      <point x="443" y="72" type="curve"/>
      <point x="447" y="72" type="line"/>
      <point x="461" y="0" type="line"/>
      <point x="530" y="0" type="line"/>
      <point x="530" y="760" type="line"/>
      <point x="443" y="760" type="line"/>
      <point x="443" y="549" type="line" smooth="yes"/>
      <point x="443" y="523"/>
      <point x="445" y="494"/>
      <point x="449" y="467" type="curve"/>
      <point x="444" y="467" type="line"/>
      <point x="414" y="512"/>
      <point x="361" y="547"/>
      <point x="274" y="547" type="curve" smooth="yes"/>
      <point x="130" y="547"/>
      <point x="46" y="449"/>
      <point x="46" y="268" type="curve" smooth="yes"/>
      <point x="46" y="85"/>
      <point x="130" y="-10"/>
    </contour>
    <contour>
      <point x="292" y="65" type="curve" smooth="yes"/>
      <point x="183" y="65"/>
      <point x="136" y="130"/>
      <point x="136" y="260" type="curve" smooth="yes"/>
      <point x="136" y="400"/>
      <point x="190" y="472"/>
      <point x="297" y="472" type="curve" smooth="yes"/>
      <point x="407" y="472"/>
      <point x="445" y="392"/>
      <point x="445" y="267" type="curve" smooth="yes"/>
      <point x="445" y="247" type="line" smooth="yes"/>
      <point x="445" y="135"/>
      <point x="403" y="65"/>
    </contour>
  </outline>
</glyph>
<glyph name="e" format="2">
  <advance width="620"/>
  <unicode hex="0065"/>
  <anchor x="313" y="0" name="bottom"/>
  <anchor x="318" y="10" name="ogonek"/>
  <anchor x="305" y="536" name="top"/>
  <anchor x="589" y="536" name="topright"/>
  <outline>
    <contour>
      <point x="342" y="-10" type="curve" smooth="yes"/>
      <point x="407" y="-10"/>
      <point x="467" y="2"/>
      <point x="527" y="27" type="curve"/>
      <point x="527" y="107" type="line"/>
      <point x="467" y="81"/>
      <point x="411" y="65"/>
      <point x="346" y="65" type="curve" smooth="yes"/>
      <point x="212" y="65"/>
      <point x="144" y="122"/>
      <point x="141" y="249" type="curve"/>
      <point x="551" y="249" type="line"/>
      <point x="551" y="300" type="line" smooth="yes"/>
      <point x="551" y="448"/>
      <point x="466" y="547"/>
      <point x="312" y="547" type="curve" smooth="yes"/>
      <point x="147" y="547"/>
      <point x="51" y="441"/>
      <point x="51" y="265" type="curve" smooth="yes"/>
      <point x="51" y="88"/>
      <point x="156" y="-10"/>
    </contour>
    <contour>
      <point x="143" y="321" type="line"/>
      <point x="153" y="416"/>
      <point x="216" y="473"/>
      <point x="311" y="473" type="curve" smooth="yes"/>
      <point x="410" y="473"/>
      <point x="463" y="412"/>
      <point x="464" y="321" type="curve"/>
    </contour>
  </outline>
</glyph>
<glyph name="g" format="2">
  <advance width="620"/>
  <unicode hex="0067"/>
  <anchor x="301" y="-245" name="bottom"/>
  <anchor x="301" y="536" name="top"/>
  <anchor x="589" y="536" name="topright"/>
  <outline>
    <contour>
      <point x="275" y="-245" type="curve" smooth="yes"/>
      <point x="449" y="-245"/>
      <point x="530" y="-167"/>
      <point x="530" y="-13" type="curve" smooth="yes"/>
      <point x="530" y="536" type="line"/>
      <point x="459" y="536" type="line"/>
      <point x="448" y="467" type="line"/>
      <point x="443" y="467" type="line"/>
      <point x="406" y="522"/>
      <point x="352" y="547"/>
      <point x="274" y="547" type="curve" smooth="yes"/>
      <point x="130" y="547"/>
      <point x="46" y="439"/>
      <point x="46" y="266" type="curve" smooth="yes"/>
      <point x="46" y="92"/>
      <point x="131" y="-9"/>
      <point x="273" y="-9" type="curve" smooth="yes"/>
      <point x="349" y="-9"/>
      <point x="408" y="13"/>
      <point x="443" y="68" type="curve"/>
      <point x="447" y="68" type="line"/>
      <point x="444" y="50"/>
      <point x="444" y="21"/>
      <point x="444" y="5" type="curve" smooth="yes"/>
      <point x="444" y="-18" type="line" smooth="yes"/>
      <point x="444" y="-112"/>
      <point x="395" y="-171"/>
      <point x="275" y="-171" type="curve" smooth="yes"/>
      <point x="215" y="-171"/>
      <point x="140" y="-156"/>
      <point x="83" y="-128" type="curve"/>
      <point x="83" y="-210" type="line"/>
      <point x="139" y="-233"/>
      <point x="205" y="-245"/>
    </contour>
    <contour>
      <point x="297" y="65" type="curve" smooth="yes"/>
      <point x="189" y="65"/>
      <point x="136" y="135"/>
      <point x="136" y="267" type="curve" smooth="yes"/>
      <point x="136" y="399"/>
      <point x="188" y="472"/>
      <point x="297" y="472" type="curve" smooth="yes"/>
      <point x="400" y="472"/>
      <point x="447" y="410"/>
      <point x="447" y="267" type="curve" smooth="yes"/>
      <point x="447" y="246" type="line" smooth="yes"/>
      <point x="447" y="121"/>
      <point x="403" y="65"/>
    </contour>
  </outline>
</glyph>
<glyph name="h" format="2">
  <advance width="620"/>
  <unicode hex="0068"/>
  <anchor x="301" y="0" name="bottom"/>
  <anchor x="301" y="268" name="center"/>
  <anchor x="115" y="760" name="top"/>
  <anchor x="589" y="760" name="topright"/>
  <outline>
    <contour>
      <point x="72" y="0" type="line"/>
      <point x="159" y="0" type="line"/>
      <point x="159" y="278" type="line" smooth="yes"/>
      <point x="159" y="402"/>
      <point x="216" y="472"/>
      <point x="317" y="472" type="curve" smooth="yes"/>
      <point x="403" y="472"/>
      <point x="448" y="426"/>
      <point x="448" y="332" type="curve" smooth="yes"/>
      <point x="448" y="0" type="line"/>
      <point x="535" y="0" type="line"/>
      <point x="535" y="350" type="line" smooth="yes"/>
      <point x="535" y="487"/>
      <point x="454" y="547"/>
      <point x="338" y="547" type="curve" smooth="yes"/>
      <point x="248" y="547"/>
      <point x="192" y="515"/>
      <point x="160" y="460" type="curve"/>
      <point x="155" y="460" type="line"/>
      <point x="156" y="483"/>
      <point x="159" y="515"/>
      <point x="159" y="539" type="curve" smooth="yes"/>
      <point x="159" y="760" type="line"/>
      <point x="72" y="760" type="line"/>
    </contour>
  </outline>
</glyph>
<glyph name="i" format="2">
  <advance width="620"/>
  <unicode hex="0069"/>
  <anchor x="318" y="0" name="bottom"/>
  <anchor x="308" y="764" name="top"/>
  <anchor x="501" y="764" name="topright"/>
  <outline>
    <contour>
      <point x="81" y="0" type="line"/>
      <point x="532" y="0" type="line"/>
      <point x="532" y="61" type="line"/>
      <point x="358" y="73" type="line"/>
      <point x="358" y="536" type="line"/>
      <point x="94" y="536" type="line"/>
      <point x="94" y="475" type="line"/>
      <point x="271" y="461" type="line"/>
      <point x="271" y="73" type="line"/>
      <point x="81" y="61" type="line"/>
    </contour>
    <contour>
      <point x="308" y="632" type="curve" smooth="yes"/>
      <point x="347" y="632"/>
      <point x="371" y="654"/>
      <point x="371" y="698" type="curve" smooth="yes"/>
      <point x="371" y="743"/>
      <point x="346" y="764"/>
      <point x="308" y="764" type="curve" smooth="yes"/>
      <point x="269" y="764"/>
      <point x="246" y="743"/>
      <point x="246" y="698" type="curve" smooth="yes"/>
      <point x="246" y="654"/>
      <point x="269" y="632"/>
    </contour>
  </outline>
</glyph>
<glyph name="j" format="2">
  <advance width="620"/>
  <unicode hex="006A"/>
  <anchor x="223" y="-245" name="bottom"/>
  <anchor x="344" y="764" name="top"/>
  <anchor x="589" y="764" name="topright"/>
  <outline>
    <contour>
      <point x="191" y="-245" type="curve" smooth="yes"/>
      <point x="323" y="-245"/>
      <point x="399" y="-182"/>
      <point x="399" y="-57" type="curve" smooth="yes"/>
      <point x="399" y="536" type="line"/>
      <point x="109" y="536" type="line"/>
      <point x="109" y="475" type="line"/>
      <point x="312" y="461" type="line"/>
      <point x="312" y="-56" type="line" smooth="yes"/>
      <point x="312" y="-131"/>
      <point x="270" y="-170"/>
      <point x="184" y="-170" type="curve" smooth="yes"/>
      <point x="144" y="-170"/>
      <point x="88" y="-161"/>
      <point x="52" y="-150" type="curve"/>
      <point x="52" y="-228" type="line"/>
      <point x="87" y="-238"/>
      <point x="143" y="-245"/>
    </contour>
    <contour>
      <point x="345" y="632" type="curve" smooth="yes"/>
      <point x="383" y="632"/>
      <point x="408" y="654"/>
      <point x="408" y="698" type="curve" smooth="yes"/>
      <point x="408" y="743"/>
      <point x="383" y="764"/>
      <point x="345" y="764" type="curve" smooth="yes"/>
      <point x="306" y="764"/>
      <point x="283" y="743"/>
      <point x="283" y="698" type="curve" smooth="yes"/>
      <point x="283" y="654"/>
      <point x="306" y="632"/>
    </contour>
  </outline>
</glyph>
<glyph name="k" format="2">
  <advance width="620"/>
  <unicode hex="006B"/>
  <anchor x="334" y="0" name="bottom"/>
  <anchor x="340" y="760" name="top"/>
  <anchor x="589" y="760" name="topright"/>
  <outline>
    <contour>
      <point x="89" y="0" type="line"/>
      <point x="176" y="0" type="line"/>
      <point x="176" y="189" type="line"/>
      <point x="265" y="244" type="line"/>
      <point x="474" y="0" type="line"/>
      <point x="578" y="0" type="line"/>
      <point x="324" y="305" type="line"/>
      <point x="562" y="536" type="line"/>
      <point x="454" y="536" type="line"/>
      <point x="241" y="340" type="line" smooth="yes"/>
      <point x="214" y="315"/>
      <point x="195" y="293"/>
      <point x="172" y="265" type="curve"/>
      <point x="170" y="265" type="line"/>
      <point x="174" y="314"/>
      <point x="176" y="361"/>
      <point x="176" y="406" type="curve" smooth="yes"/>
      <point x="176" y="760" type="line"/>
      <point x="89" y="760" type="line"/>
    </contour>
  </outline>
</glyph>
<glyph name="l" format="2">
  <advance width="620"/>
  <unicode hex="006C"/>
  <anchor x="312" y="0" name="bottom"/>
  <anchor x="312" y="376" name="center"/>
  <anchor x="301" y="760" name="top"/>
  <anchor x="501" y="760" name="topright"/>
  <outline>
    <contour>
      <point x="81" y="0" type="line"/>
      <point x="532" y="0" type="line"/>
      <point x="532" y="61" type="line"/>
      <point x="354" y="73" type="line"/>
      <point x="354" y="760" type="line"/>
      <point x="90" y="760" type="line"/>
      <point x="90" y="698" type="line"/>
      <point x="267" y="687" type="line"/>
      <point x="267" y="73" type="line"/>
      <point x="81" y="61" type="line"/>
    </contour>
  </outline>
</glyph>
<glyph name="m" format="2">
  <advance width="620"/>
  <unicode hex="006D"/>
  <anchor x="305" y="0" name="bottom"/>
  <anchor x="324" y="536" name="top"/>
  <anchor x="589" y="536" name="topright"/>
  <outline>
    <contour>
      <point x="34" y="0" type="line"/>
      <point x="115" y="0" type="line"/>
      <point x="115" y="312" type="line" smooth="yes"/>
      <point x="115" y="395"/>
      <point x="131" y="471"/>
      <point x="198" y="471" type="curve" smooth="yes"/>
      <point x="244" y="471"/>
      <point x="260" y="436"/>
      <point x="260" y="373" type="curve" smooth="yes"/>
      <point x="260" y="0" type="line"/>
      <point x="343" y="0" type="line"/>
      <point x="343" y="318" type="line" smooth="yes"/>
      <point x="343" y="408"/>
      <point x="363" y="471"/>
      <point x="426" y="471" type="curve" smooth="yes"/>
      <point x="473" y="471"/>
      <point x="488" y="436"/>
      <point x="488" y="373" type="curve" smooth="yes"/>
      <point x="488" y="0" type="line"/>
      <point x="569" y="0" type="line"/>
      <point x="569" y="384" type="line" smooth="yes"/>
      <point x="569" y="498"/>
      <point x="533" y="547"/>
      <point x="451" y="547" type="curve" smooth="yes"/>
      <point x="392" y="547"/>
      <point x="357" y="524"/>
      <point x="332" y="475" type="curve"/>
      <point x="329" y="475" type="line"/>
      <point x="312" y="523"/>
      <point x="285" y="547"/>
      <point x="224" y="547" type="curve" smooth="yes"/>
      <point x="169" y="547"/>
      <point x="135" y="527"/>
      <point x="112" y="480" type="curve"/>
      <point x="107" y="480" type="line"/>
      <point x="95" y="536" type="line"/>
      <point x="34" y="536" type="line"/>
    </contour>
  </outline>
</glyph>
<glyph name="n" format="2">
  <advance width="620"/>
  <unicode hex="006E"/>
  <anchor x="307" y="0" name="bottom"/>
  <anchor x="313" y="536" name="top"/>
  <anchor x="589" y="536" name="topright"/>
  <outline>
    <contour>
      <point x="72" y="0" type="line"/>
      <point x="159" y="0" type="line"/>
      <point x="159" y="277" type="line" smooth="yes"/>
      <point x="159" y="401"/>
      <point x="216" y="472"/>
      <point x="322" y="472" type="curve" smooth="yes"/>
      <point x="408" y="472"/>
      <point x="448" y="430"/>
      <point x="448" y="344" type="curve" smooth="yes"/>
      <point x="448" y="0" type="line"/>
      <point x="535" y="0" type="line"/>
      <point x="535" y="353" type="line" smooth="yes"/>
      <point x="535" y="487"/>
      <point x="463" y="547"/>
      <point x="342" y="547" type="curve" smooth="yes"/>
      <point x="256" y="547"/>
      <point x="192" y="520"/>
      <point x="161" y="462" type="curve"/>
      <point x="156" y="462" type="line"/>
      <point x="143" y="536" type="line"/>
      <point x="72" y="536" type="line"/>
    </contour>
  </outline>
</glyph>
<glyph name="o" format="2">
  <advance width="620"/>
  <unicode hex="006F"/>
  <anchor x="301" y="0" name="bottom"/>
  <anchor x="301" y="268" name="center"/>
  <anchor x="301" y="10" name="ogonek"/>
  <anchor x="301" y="536" name="top"/>
  <anchor x="589" y="536" name="topright"/>
  <outline>
    <contour>
      <point x="302" y="-10" type="curve" smooth="yes"/>
      <point x="460" y="-10"/>
      <point x="556" y="88"/>
      <point x="556" y="267" type="curve" smooth="yes"/>
      <point x="556" y="449"/>
      <point x="459" y="547"/>
      <point x="300" y="547" type="curve" smooth="yes"/>
      <point x="143" y="547"/>
      <point x="46" y="449"/>
      <point x="46" y="270" type="curve" smooth="yes"/>
      <point x="46" y="88"/>
      <point x="144" y="-10"/>
    </contour>
    <contour>
      <point x="301" y="63" type="curve" smooth="yes"/>
      <point x="192" y="63"/>
      <point x="135" y="137"/>
      <point x="135" y="269" type="curve" smooth="yes"/>
      <point x="135" y="401"/>
      <point x="193" y="474"/>
      <point x="301" y="474" type="curve" smooth="yes"/>
      <point x="412" y="474"/>
      <point x="466" y="401"/>
      <point x="466" y="268" type="curve" smooth="yes"/>
      <point x="466" y="137"/>
      <point x="411" y="63"/>
    </contour>
  </outline>
</glyph>
<glyph name="p" format="2">
  <advance width="620"/>
  <unicode hex="0070"/>
  <anchor x="328" y="-240" name="bottom"/>
  <anchor x="328" y="536" name="top"/>
  <anchor x="589" y="536" name="topright"/>
  <outline>
    <contour>
      <point x="72" y="-240" type="line"/>
      <point x="159" y="-240" type="line"/>
      <point x="159" y="-11" type="line" smooth="yes"/>
      <point x="159" y="14"/>
      <point x="156" y="48"/>
      <point x="154" y="68" type="curve"/>
      <point x="159" y="68" type="line"/>
      <point x="193" y="26"/>
      <point x="248" y="-10"/>
      <point x="334" y="-10" type="curve" smooth="yes"/>
      <point x="469" y="-10"/>
      <point x="556" y="86"/>
      <point x="556" y="269" type="curve" smooth="yes"/>
      <point x="556" y="451"/>
      <point x="475" y="547"/>
      <point x="337" y="547" type="curve" smooth="yes"/>
      <point x="248" y="547"/>
      <point x="192" y="512"/>
      <point x="160" y="464" type="curve"/>
      <point x="156" y="464" type="line"/>
      <point x="143" y="536" type="line"/>
      <point x="72" y="536" type="line"/>
    </contour>
    <contour>
      <point x="315" y="65" type="curve" smooth="yes"/>
      <point x="207" y="65"/>
      <point x="159" y="141"/>
      <point x="159" y="269" type="curve" smooth="yes"/>
      <point x="159" y="289" type="line" smooth="yes"/>
      <point x="159" y="406"/>
      <point x="208" y="472"/>
      <point x="317" y="472" type="curve" smooth="yes"/>
      <point x="416" y="472"/>
      <point x="466" y="406"/>
      <point x="466" y="270" type="curve" smooth="yes"/>
      <point x="466" y="137"/>
      <point x="414" y="65"/>
    </contour>
  </outline>
</glyph>
<glyph name="q" format="2">
  <advance width="620"/>
  <unicode hex="0071"/>
  <anchor x="286" y="-240" name="bottom"/>
  <anchor x="286" y="536" name="top"/>
  <anchor x="589" y="536" name="topright"/>
  <outline>
    <contour>
      <point x="443" y="-240" type="line"/>
      <point x="530" y="-240" type="line"/>
      <point x="530" y="536" type="line"/>
      <point x="459" y="536" type="line"/>
      <point x="448" y="464" type="line"/>
      <point x="443" y="464" type="line"/>
      <point x="411" y="510"/>
      <point x="362" y="547"/>
      <point x="277" y="547" type="curve" smooth="yes"/>
      <point x="131" y="547"/>
      <point x="46" y="449"/>
      <point x="46" y="267" type="curve" smooth="yes"/>
      <point x="46" y="86"/>
      <point x="132" y="-10"/>
      <point x="274" y="-10" type="curve" smooth="yes"/>
      <point x="358" y="-10"/>
      <point x="411" y="27"/>
      <point x="443" y="72" type="curve"/>
      <point x="448" y="72" type="line"/>
      <point x="444" y="42"/>
      <point x="443" y="16"/>
      <point x="443" y="-11" type="curve" smooth="yes"/>
    </contour>
    <contour>
      <point x="292" y="65" type="curve" smooth="yes"/>
      <point x="191" y="65"/>
      <point x="136" y="136"/>
      <point x="136" y="266" type="curve" smooth="yes"/>
      <point x="136" y="400"/>
      <point x="190" y="472"/>
      <point x="296" y="472" type="curve" smooth="yes"/>
      <point x="400" y="472"/>
      <point x="445" y="393"/>
      <point x="445" y="267" type="curve" smooth="yes"/>
      <point x="445" y="247" type="line" smooth="yes"/>
      <point x="445" y="137"/>
      <point x="397" y="65"/>
    </contour>
  </outline>
</glyph>
<glyph name="r" format="2">
  <advance width="620"/>
  <unicode hex="0072"/>
  <anchor x="258" y="0" name="bottom"/>
  <anchor x="328" y="536" name="top"/>
  <anchor x="589" y="536" name="topright"/>
  <outline>
    <contour>
      <point x="52" y="0" type="line"/>
      <point x="469" y="0" type="line"/>
      <point x="469" y="61" type="line"/>
      <point x="300" y="73" type="line"/>
      <point x="300" y="267" type="line" smooth="yes"/>
      <point x="300" y="377"/>
      <point x="362" y="462"/>
      <point x="466" y="462" type="curve" smooth="yes"/>
      <point x="495" y="462"/>
      <point x="529" y="457"/>
      <point x="555" y="445" type="curve"/>
      <point x="578" y="529" type="line"/>
      <point x="545" y="541"/>
      <point x="510" y="547"/>
      <point x="474" y="547" type="curve" smooth="yes"/>
      <point x="387" y="547"/>
      <point x="329" y="507"/>
      <point x="298" y="441" type="curve"/>
      <point x="294" y="441" type="line"/>
      <point x="285" y="536" type="line"/>
      <point x="64" y="536" type="line"/>
      <point x="64" y="475" type="line"/>
      <point x="213" y="461" type="line"/>
      <point x="213" y="73" type="line"/>
      <point x="52" y="61" type="line"/>
    </contour>
  </outline>
</glyph>
<glyph name="s" format="2">
  <advance width="620"/>
  <unicode hex="0073"/>
  <anchor x="307" y="0" name="bottom"/>
  <anchor x="307" y="536" name="top"/>
  <anchor x="589" y="536" name="topright"/>
  <outline>
    <contour>
      <point x="281" y="-10" type="curve" smooth="yes"/>
      <point x="436" y="-10"/>
      <point x="512" y="44"/>
      <point x="512" y="144" type="curve" smooth="yes"/>
      <point x="512" y="234"/>
      <point x="444" y="262"/>
      <point x="340" y="304" type="curve" smooth="yes"/>
      <point x="236" y="348"/>
      <point x="192" y="365"/>
      <point x="192" y="407" type="curve" smooth="yes"/>
      <point x="192" y="450"/>
      <point x="237" y="473"/>
      <point x="322" y="473" type="curve" smooth="yes"/>
      <point x="369" y="473"/>
      <point x="415" y="466"/>
      <point x="469" y="443" type="curve"/>
      <point x="499" y="513" type="line"/>
      <point x="441" y="537"/>
      <point x="387" y="547"/>
      <point x="323" y="547" type="curve" smooth="yes"/>
      <point x="186" y="547"/>
      <point x="106" y="498"/>
      <point x="106" y="404" type="curve" smooth="yes"/>
      <point x="106" y="319"/>
      <point x="178" y="288"/>
      <point x="279" y="244" type="curve" smooth="yes"/>
      <point x="390" y="195"/>
      <point x="425" y="184"/>
      <point x="425" y="142" type="curve" smooth="yes"/>
      <point x="425" y="94"/>
      <point x="390" y="64"/>
      <point x="286" y="64" type="curve" smooth="yes"/>
      <point x="212" y="64"/>
      <point x="148" y="83"/>
      <point x="96" y="105" type="curve"/>
      <point x="96" y="24" type="line"/>
      <point x="141" y="2"/>
      <point x="207" y="-10"/>
    </contour>
  </outline>
</glyph>
<glyph name="t" format="2">
  <advance width="620"/>
  <unicode hex="0074"/>
  <anchor x="388" y="0" name="bottom"/>
  <anchor x="267" y="283" name="center"/>
  <anchor x="278" y="679" name="top"/>
  <anchor x="589" y="679" name="topright"/>
  <outline>
    <contour>
      <point x="412" y="-10" type="curve" smooth="yes"/>
      <point x="454" y="-10"/>
      <point x="494" y="-4"/>
      <point x="528" y="5" type="curve"/>
      <point x="528" y="79" type="line"/>
      <point x="493" y="70"/>
      <point x="457" y="65"/>
      <point x="425" y="65" type="curve" smooth="yes"/>
      <point x="342" y="65"/>
      <point x="307" y="95"/>
      <point x="307" y="166" type="curve" smooth="yes"/>
      <point x="307" y="462" type="line"/>
      <point x="528" y="462" type="line"/>
      <point x="528" y="536" type="line"/>
      <point x="309" y="536" type="line"/>
      <point x="309" y="679" type="line"/>
      <point x="247" y="679" type="line"/>
      <point x="222" y="539" type="line"/>
      <point x="55" y="517" type="line"/>
      <point x="55" y="462" type="line"/>
      <point x="220" y="462" type="line"/>
      <point x="220" y="151" type="line" smooth="yes"/>
      <point x="220" y="28"/>
      <point x="295" y="-10"/>
    </contour>
  </outline>
</glyph>
<glyph name="u" format="2">
  <advance width="620"/>
  <unicode hex="0075"/>
  <anchor x="301" y="0" name="bottom"/>
  <anchor x="550" y="10" name="ogonek"/>
  <anchor x="301" y="536" name="top"/>
  <anchor x="589" y="536" name="topright"/>
  <outline>
    <contour>
      <point x="261" y="-10" type="curve" smooth="yes"/>
      <point x="346" y="-10"/>
      <point x="407" y="15"/>
      <point x="439" y="72" type="curve"/>
      <point x="444" y="72" type="line"/>
      <point x="457" y="0" type="line"/>
      <point x="530" y="0" type="line"/>
      <point x="530" y="536" type="line"/>
      <point x="443" y="536" type="line"/>
      <point x="443" y="258" type="line" smooth="yes"/>
      <point x="443" y="135"/>
      <point x="391" y="64"/>
      <point x="286" y="64" type="curve" smooth="yes"/>
      <point x="196" y="64"/>
      <point x="154" y="100"/>
      <point x="154" y="192" type="curve" smooth="yes"/>
      <point x="154" y="536" type="line"/>
      <point x="67" y="536" type="line"/>
      <point x="67" y="176" type="line" smooth="yes"/>
      <point x="67" y="51"/>
      <point x="134" y="-10"/>
    </contour>
  </outline>
</glyph>
<glyph name="v" format="2">
  <advance width="620"/>
  <unicode hex="0076"/>
  <anchor x="301" y="0" name="bottom"/>
  <anchor x="301" y="536" name="top"/>
  <anchor x="589" y="536" name="topright"/>
  <outline>
    <contour>
      <point x="249" y="0" type="line"/>
      <point x="351" y="0" type="line"/>
      <point x="563" y="536" type="line"/>
      <point x="474" y="536" type="line"/>
      <point x="353" y="222" type="line" smooth="yes"/>
      <point x="337" y="180"/>
      <point x="317" y="121"/>
      <point x="303" y="74" type="curve"/>
      <point x="301" y="74" type="line"/>
      <point x="285" y="121"/>
      <point x="266" y="179"/>
      <point x="250" y="222" type="curve" smooth="yes"/>
      <point x="126" y="536" type="line"/>
      <point x="39" y="536" type="line"/>
    </contour>
  </outline>
</glyph>
<glyph name="w" format="2">
  <advance width="620"/>
  <unicode hex="0077"/>
  <anchor x="303" y="0" name="bottom"/>
  <anchor x="303" y="536" name="top"/>
  <anchor x="589" y="536" name="topright"/>
  <outline>
    <contour>
      <point x="102" y="0" type="line"/>
      <point x="206" y="0" type="line"/>
      <point x="263" y="196" type="line" smooth="yes"/>
      <point x="277" y="249"/>
      <point x="290" y="308"/>
      <point x="299" y="362" type="curve"/>
      <point x="302" y="362" type="line"/>
      <point x="311" y="308"/>
      <point x="324" y="251"/>
      <point x="339" y="198" type="curve" smooth="yes"/>
      <point x="394" y="0" type="line"/>
      <point x="500" y="0" type="line"/>
      <point x="597" y="536" type="line"/>
      <point x="519" y="536" type="line"/>
      <point x="470" y="264" type="line" smooth="yes"/>
      <point x="457" y="200"/>
      <point x="453" y="121"/>
      <point x="448" y="73" type="curve"/>
      <point x="445" y="73" type="line"/>
      <point x="438" y="111"/>
      <point x="424" y="199"/>
      <point x="408" y="247" type="curve" smooth="yes"/>
      <point x="348" y="444" type="line"/>
      <point x="255" y="444" type="line"/>
      <point x="194" y="247" type="line" smooth="yes"/>
      <point x="178" y="200"/>
      <point x="164" y="110"/>
      <point x="158" y="73" type="curve"/>
      <point x="155" y="73" type="line"/>
      <point x="151" y="124"/>
      <point x="147" y="203"/>
      <point x="135" y="264" type="curve" smooth="yes"/>
      <point x="85" y="536" type="line"/>
      <point x="5" y="536" type="line"/>
    </contour>
  </outline>
</glyph>
<glyph name="x" format="2">
  <advance width="620"/>
  <unicode hex="0078"/>
  <anchor x="301" y="0" name="bottom"/>
  <anchor x="301" y="536" name="top"/>
  <anchor x="589" y="536" name="topright"/>
  <outline>
    <contour>
      <point x="39" y="0" type="line"/>
      <point x="140" y="0" type="line"/>
      <point x="301" y="212" type="line"/>
      <point x="461" y="0" type="line"/>
      <point x="563" y="0" type="line"/>
      <point x="351" y="273" type="line"/>
      <point x="553" y="536" type="line"/>
      <point x="453" y="536" type="line"/>
      <point x="299" y="338" type="line"/>
      <point x="150" y="536" type="line"/>
      <point x="50" y="536" type="line"/>
      <point x="248" y="275" type="line"/>
    </contour>
  </outline>
</glyph>
<glyph name="y" format="2">
  <advance width="620"/>
  <unicode hex="0079"/>
  <anchor x="301" y="-245" name="bottom"/>
  <anchor x="301" y="536" name="top"/>
  <anchor x="589" y="536" name="topright"/>
  <outline>
    <contour>
      <point x="128" y="-245" type="curve" smooth="yes"/>
      <point x="231" y="-245"/>
      <point x="282" y="-174"/>
      <point x="322" y="-70" type="curve" smooth="yes"/>
      <point x="563" y="536" type="line"/>
      <point x="472" y="536" type="line"/>
      <point x="356" y="226" type="line" smooth="yes"/>
      <point x="340" y="183"/>
      <point x="323" y="125"/>
      <point x="311" y="81" type="curve"/>
      <point x="308" y="81" type="line"/>
      <point x="296" y="126"/>
      <point x="280" y="176"/>
      <point x="261" y="225" type="curve" smooth="yes"/>
      <point x="129" y="536" type="line"/>
      <point x="40" y="536" type="line"/>
      <point x="268" y="-6" type="line"/>
      <point x="236" y="-77" type="line" smooth="yes"/>
      <point x="205" y="-145"/>
      <point x="178" y="-172"/>
      <point x="119" y="-172" type="curve" smooth="yes"/>
      <point x="97" y="-172"/>
      <point x="74" y="-169"/>
      <point x="56" y="-166" type="curve"/>
      <point x="56" y="-237" type="line"/>
      <point x="78" y="-241"/>
      <point x="103" y="-245"/>
    </contour>
  </outline>
</glyph>
<glyph name="z" format="2">
  <advance width="620"/>
  <unicode hex="007A"/>
  <anchor x="310" y="0" name="bottom"/>
  <anchor x="310" y="536" name="top"/>
  <anchor x="589" y="536" name="topright"/>
  <outline>
    <contour>
      <point x="81" y="0" type="line"/>
      <point x="520" y="0" type="line"/>
      <point x="520" y="75" type="line"/>
      <point x="183" y="75" type="line"/>
      <point x="514" y="465" type="line"/>
      <point x="514" y="536" type="line"/>
      <point x="100" y="536" type="line"/>
      <point x="100" y="464" type="line"/>
      <point x="417" y="464" type="line"/>
      <point x="81" y="61" type="line"/>
    </contour>
  </outline>
</glyph>
<glyph name="braceleft" format="2">
  <advance width="620"/>
  <unicode hex="007B"/>
  <outline>
    <contour>
      <point x="468" y="-161" type="curve"/>
      <point x="468" y="-90" type="line"/>
      <point x="380" y="-89"/>
      <point x="343" y="-62"/>
      <point x="343" y="3" type="curve" smooth="yes"/>
      <point x="343" y="152" type="line" smooth="yes"/>
      <point x="343" y="221"/>
      <point x="314" y="263"/>
      <point x="235" y="276" type="curve"/>
      <point x="235" y="280" type="line"/>
      <point x="312" y="293"/>
      <point x="343" y="332"/>
      <point x="343" y="405" type="curve" smooth="yes"/>
      <point x="343" y="552" type="line" smooth="yes"/>
      <point x="343" y="619"/>
      <point x="384" y="644"/>
      <point x="468" y="646" type="curve"/>
      <point x="468" y="717" type="line"/>
      <point x="325" y="715"/>
      <point x="259" y="662"/>
      <point x="259" y="558" type="curve" smooth="yes"/>
      <point x="259" y="408" type="line" smooth="yes"/>
      <point x="259" y="336"/>
      <point x="220" y="312"/>
      <point x="136" y="312" type="curve"/>
      <point x="136" y="244" type="line"/>
      <point x="225" y="244"/>
      <point x="259" y="215"/>
      <point x="259" y="148" type="curve" smooth="yes"/>
      <point x="259" y="-1" type="line" smooth="yes"/>
      <point x="259" y="-109"/>
      <point x="326" y="-159"/>
    </contour>
  </outline>
</glyph>
<glyph name="asciitilde" format="2">
  <advance width="620"/>
  <unicode hex="007E"/>
  <outline>
    <contour>
      <point x="69" y="287" type="line"/>
      <point x="106" y="323"/>
      <point x="150" y="346"/>
      <point x="188" y="346" type="curve" smooth="yes"/>
      <point x="220" y="346"/>
      <point x="249" y="336"/>
      <point x="288" y="319" type="curve" smooth="yes"/>
      <point x="335" y="298"/>
      <point x="365" y="289"/>
      <point x="411" y="289" type="curve" smooth="yes"/>
      <point x="459" y="289"/>
      <point x="501" y="307"/>
      <point x="532" y="340" type="curve"/>
      <point x="532" y="418" type="line"/>
      <point x="497" y="384"/>
      <point x="453" y="359"/>
      <point x="415" y="359" type="curve" smooth="yes"/>
      <point x="383" y="359"/>
      <point x="354" y="368"/>
      <point x="313" y="387" type="curve" smooth="yes"/>
      <point x="268" y="407"/>
      <point x="237" y="417"/>
      <point x="192" y="417" type="curve" smooth="yes"/>
      <point x="143" y="417"/>
      <point x="102" y="399"/>
      <point x="69" y="365" type="curve"/>
    </contour>
  </outline>
</glyph>
<glyph name="cent" format="2">
  <advance width="620"/>
  <unicode hex="00A2"/>
  <outline>
    <contour>
      <point x="316" y="-10" type="line"/>
      <point x="376" y="-10" type="line"/>
      <point x="376" y="88" type="line"/>
      <point x="426" y="92"/>
      <point x="470" y="101"/>
      <point x="501" y="116" type="curve"/>
      <point x="501" y="190" type="line"/>
      <point x="460" y="174"/>
      <point x="409" y="162"/>
      <point x="361" y="162" type="curve" smooth="yes"/>
      <point x="235" y="162"/>
      <point x="176" y="225"/>
      <point x="176" y="364" type="curve" smooth="yes"/>
      <point x="176" y="501"/>
      <point x="239" y="570"/>
      <point x="367" y="570" type="curve" smooth="yes"/>
      <point x="404" y="570"/>
      <point x="445" y="561"/>
      <point x="483" y="547" type="curve"/>
      <point x="508" y="617" type="line"/>
      <point x="474" y="632"/>
      <point x="427" y="641"/>
      <point x="376" y="644" type="curve"/>
      <point x="376" y="724" type="line"/>
      <point x="316" y="724" type="line"/>
      <point x="316" y="641" type="line"/>
      <point x="170" y="624"/>
      <point x="89" y="528"/>
      <point x="89" y="363" type="curve" smooth="yes"/>
      <point x="89" y="196"/>
      <point x="165" y="105"/>
      <point x="316" y="90" type="curve"/>
    </contour>
  </outline>
</glyph>
<glyph name="sterling" format="2">
  <advance width="620"/>
  <unicode hex="00A3"/>
  <outline>
    <contour>
      <point x="83" y="0" type="line"/>
      <point x="546" y="0" type="line"/>
      <point x="546" y="79" type="line"/>
      <point x="192" y="79" type="line"/>
      <point x="238" y="104"/>
      <point x="266" y="154"/>
      <point x="266" y="215" type="curve" smooth="yes"/>
      <point x="266" y="324" type="line"/>
      <point x="447" y="324" type="line"/>
      <point x="447" y="391" type="line"/>
      <point x="266" y="391" type="line"/>
      <point x="266" y="532" type="line" smooth="yes"/>
      <point x="266" y="613"/>
      <point x="305" y="647"/>
      <point x="391" y="647" type="curve" smooth="yes"/>
      <point x="431" y="647"/>
      <point x="467" y="637"/>
      <point x="509" y="614" type="curve"/>
      <point x="541" y="682" type="line"/>
      <point x="495" y="710"/>
      <point x="447" y="724"/>
      <point x="385" y="724" type="curve" smooth="yes"/>
      <point x="251" y="724"/>
      <point x="179" y="658"/>
      <point x="179" y="540" type="curve" smooth="yes"/>
      <point x="179" y="391" type="line"/>
      <point x="84" y="391" type="line"/>
      <point x="84" y="324" type="line"/>
      <point x="179" y="324" type="line"/>
      <point x="179" y="214" type="line" smooth="yes"/>
      <point x="179" y="136"/>
      <point x="144" y="93"/>
      <point x="83" y="73" type="curve"/>
    </contour>
  </outline>
</glyph>
<glyph name="currency" format="2">
  <advance width="620"/>
  <unicode hex="00A4"/>
  <outline>
    <contour>
      <point x="513" y="132" type="line"/>
      <point x="558" y="176" type="line"/>
      <point x="482" y="242" type="line"/>
      <point x="510" y="275"/>
      <point x="527" y="313"/>
      <point x="527" y="356" type="curve" smooth="yes"/>
      <point x="527" y="398"/>
      <point x="510" y="437"/>
      <point x="482" y="469" type="curve"/>
      <point x="559" y="536" type="line"/>
      <point x="513" y="579" type="line"/>
      <point x="435" y="514" type="line"/>
      <point x="396" y="539"/>
      <point x="350" y="552"/>
      <point x="301" y="552" type="curve" smooth="yes"/>
      <point x="251" y="552"/>
      <point x="205" y="539"/>
      <point x="166" y="514" type="curve"/>
      <point x="89" y="579" type="line"/>
      <point x="43" y="535" type="line"/>
      <point x="120" y="468" type="line"/>
      <point x="91" y="435"/>
      <point x="76" y="397"/>
      <point x="76" y="356" type="curve" smooth="yes"/>
      <point x="76" y="314"/>
      <point x="92" y="276"/>
      <point x="121" y="243" type="curve"/>
      <point x="44" y="178" type="line"/>
      <point x="90" y="133" type="line"/>
      <point x="167" y="198" type="line"/>
      <point x="204" y="173"/>
      <point x="251" y="160"/>
      <point x="300" y="160" type="curve" smooth="yes"/>
      <point x="350" y="160"/>
      <point x="396" y="173"/>
      <point x="434" y="197" type="curve"/>
    </contour>
    <contour>
      <point x="301" y="226" type="curve" smooth="yes"/>
      <point x="210" y="226"/>
      <point x="144" y="282"/>
      <point x="144" y="355" type="curve" smooth="yes"/>
      <point x="144" y="430"/>
      <point x="210" y="487"/>
      <point x="302" y="487" type="curve" smooth="yes"/>
      <point x="393" y="487"/>
      <point x="457" y="433"/>
      <point x="457" y="357" type="curve" smooth="yes"/>
      <point x="457" y="283"/>
      <point x="394" y="226"/>
    </contour>
  </outline>
</glyph>
<glyph name="yen" format="2">
  <advance width="620"/>
  <unicode hex="00A5"/>
  <outline>
    <contour>
      <point x="257" y="0" type="line"/>
      <point x="345" y="0" type="line"/>
      <point x="345" y="129" type="line"/>
      <point x="496" y="129" type="line"/>
      <point x="496" y="191" type="line"/>
      <point x="345" y="191" type="line"/>
      <point x="345" y="275" type="line"/>
      <point x="496" y="275" type="line"/>
      <point x="496" y="336" type="line"/>
      <point x="364" y="336" type="line"/>
      <point x="556" y="714" type="line"/>
      <point x="465" y="714" type="line"/>
      <point x="302" y="376" type="line"/>
      <point x="137" y="714" type="line"/>
      <point x="46" y="714" type="line"/>
      <point x="236" y="336" type="line"/>
      <point x="108" y="336" type="line"/>
      <point x="108" y="275" type="line"/>
      <point x="257" y="275" type="line"/>
      <point x="257" y="191" type="line"/>
      <point x="108" y="191" type="line"/>
      <point x="108" y="129" type="line"/>
      <point x="257" y="129" type="line"/>
    </contour>
  </outline>
</glyph>
<glyph name="brokenbar" format="2">
  <advance width="620"/>
  <unicode hex="00A6"/>
  <outline>
    <contour>
      <point x="262" y="371" type="line"/>
      <point x="338" y="371" type="line"/>
      <point x="338" y="759" type="line"/>
      <point x="262" y="759" type="line"/>
    </contour>
    <contour>
      <point x="262" y="-238" type="line"/>
      <point x="338" y="-238" type="line"/>
      <point x="338" y="151" type="line"/>
      <point x="262" y="151" type="line"/>
    </contour>
  </outline>
</glyph>
<glyph name="section" format="2">
  <advance width="620"/>
  <unicode hex="00A7"/>
  <outline>
    <contour>
      <point x="269" y="-9" type="curve" smooth="yes"/>
      <point x="406" y="-9"/>
      <point x="487" y="44"/>
      <point x="487" y="133" type="curve" smooth="yes"/>
      <point x="487" y="181"/>
      <point x="461" y="214"/>
      <point x="411" y="249" type="curve"/>
      <point x="463" y="271"/>
      <point x="504" y="319"/>
      <point x="504" y="381" type="curve" smooth="yes"/>
      <point x="504" y="467"/>
      <point x="419" y="501"/>
      <point x="332" y="538" type="curve" smooth="yes"/>
      <point x="261" y="566"/>
      <point x="212" y="594"/>
      <point x="212" y="638" type="curve" smooth="yes"/>
      <point x="212" y="678"/>
      <point x="253" y="703"/>
      <point x="329" y="703" type="curve" smooth="yes"/>
      <point x="376" y="703"/>
      <point x="416" y="693"/>
      <point x="459" y="673" type="curve"/>
      <point x="486" y="734" type="line"/>
      <point x="437" y="755"/>
      <point x="392" y="766"/>
      <point x="331" y="766" type="curve" smooth="yes"/>
      <point x="210" y="766"/>
      <point x="134" y="719"/>
      <point x="134" y="635" type="curve" smooth="yes"/>
      <point x="134" y="581"/>
      <point x="167" y="545"/>
      <point x="218" y="516" type="curve"/>
      <point x="158" y="495"/>
      <point x="112" y="454"/>
      <point x="112" y="391" type="curve" smooth="yes"/>
      <point x="112" y="320"/>
      <point x="168" y="286"/>
      <point x="276" y="237" type="curve" smooth="yes"/>
      <point x="358" y="203"/>
      <point x="408" y="177"/>
      <point x="408" y="130" type="curve" smooth="yes"/>
      <point x="408" y="81"/>
      <point x="356" y="54"/>
      <point x="271" y="54" type="curve" smooth="yes"/>
      <point x="211" y="54"/>
      <point x="143" y="73"/>
      <point x="100" y="96" type="curve"/>
      <point x="100" y="23" type="line"/>
      <point x="142" y="2"/>
      <point x="201" y="-9"/>
    </contour>
    <contour>
      <point x="356" y="280" type="curve"/>
      <point x="314" y="299" type="line" smooth="yes"/>
      <point x="245" y="325"/>
      <point x="185" y="349"/>
      <point x="185" y="402" type="curve" smooth="yes"/>
      <point x="185" y="441"/>
      <point x="221" y="474"/>
      <point x="276" y="485" type="curve"/>
      <point x="390" y="442"/>
      <point x="430" y="416"/>
      <point x="430" y="368" type="curve" smooth="yes"/>
      <point x="430" y="329"/>
      <point x="402" y="297"/>
    </contour>
  </outline>
</glyph>
<glyph name="dieresis" format="2">
  <advance width="620"/>
  <unicode hex="00A8"/>
  <anchor x="301" y="536" name="_top"/>
  <anchor x="301" y="646" name="top"/>
  <outline>
    <contour>
      <point x="416" y="624" type="curve" smooth="yes"/>
      <point x="448" y="624"/>
      <point x="471" y="644"/>
      <point x="471" y="685" type="curve" smooth="yes"/>
      <point x="471" y="726"/>
      <point x="448" y="744"/>
      <point x="416" y="744" type="curve" smooth="yes"/>
      <point x="383" y="744"/>
      <point x="361" y="727"/>
      <point x="361" y="685" type="curve" smooth="yes"/>
      <point x="361" y="644"/>
      <point x="383" y="624"/>
    </contour>
    <contour>
      <point x="186" y="624" type="curve" smooth="yes"/>
      <point x="217" y="624"/>
      <point x="240" y="644"/>
      <point x="240" y="685" type="curve" smooth="yes"/>
      <point x="240" y="726"/>
      <point x="217" y="744"/>
      <point x="186" y="744" type="curve" smooth="yes"/>
      <point x="153" y="744"/>
      <point x="131" y="727"/>
      <point x="131" y="685" type="curve" smooth="yes"/>
      <point x="131" y="644"/>
      <point x="153" y="624"/>
    </contour>
  </outline>
</glyph>
<glyph name="copyright" format="2">
  <advance width="620"/>
  <unicode hex="00A9"/>
  <outline>
    <contour>
      <point x="301" y="121" type="curve"/>
      <point x="464" y="121"/>
      <point x="578" y="217"/>
      <point x="578" y="360" type="curve" smooth="yes"/>
      <point x="578" y="501"/>
      <point x="470" y="598"/>
      <point x="302" y="598" type="curve" smooth="yes"/>
      <point x="137" y="598"/>
      <point x="24" y="501"/>
      <point x="24" y="359" type="curve" smooth="yes"/>
      <point x="24" y="219"/>
      <point x="130" y="121"/>
    </contour>
    <contour>
      <point x="314" y="210" type="curve" smooth="yes"/>
      <point x="346" y="210"/>
      <point x="371" y="216"/>
      <point x="396" y="225" type="curve"/>
      <point x="396" y="271" type="line"/>
      <point x="368" y="263"/>
      <point x="339" y="257"/>
      <point x="315" y="257" type="curve" smooth="yes"/>
      <point x="248" y="257"/>
      <point x="214" y="293"/>
      <point x="214" y="356" type="curve" smooth="yes"/>
      <point x="214" y="424"/>
      <point x="252" y="459"/>
      <point x="316" y="459" type="curve" smooth="yes"/>
      <point x="340" y="459"/>
      <point x="365" y="455"/>
      <point x="389" y="444" type="curve"/>
      <point x="409" y="488" type="line"/>
      <point x="382" y="501"/>
      <point x="348" y="508"/>
      <point x="315" y="508" type="curve" smooth="yes"/>
      <point x="214" y="508"/>
      <point x="158" y="446"/>
      <point x="158" y="356" type="curve" smooth="yes"/>
      <point x="158" y="270"/>
      <point x="211" y="210"/>
    </contour>
    <contour>
      <point x="301" y="166" type="curve"/>
      <point x="165" y="166"/>
      <point x="74" y="242"/>
      <point x="74" y="360" type="curve" smooth="yes"/>
      <point x="74" y="480"/>
      <point x="167" y="552"/>
      <point x="300" y="552" type="curve" smooth="yes"/>
      <point x="436" y="552"/>
      <point x="527" y="477"/>
      <point x="527" y="358" type="curve" smooth="yes"/>
      <point x="527" y="237"/>
      <point x="434" y="166"/>
    </contour>
  </outline>
</glyph>
<glyph name="ordfeminine" format="2">
  <advance width="620"/>
  <unicode hex="00AA"/>
  <outline>
    <contour>
      <point x="261" y="382" type="curve" smooth="yes"/>
      <point x="316" y="382"/>
      <point x="353" y="398"/>
      <point x="379" y="433" type="curve"/>
      <point x="390" y="388" type="line"/>
      <point x="438" y="388" type="line"/>
      <point x="438" y="609" type="line" smooth="yes"/>
      <point x="438" y="685"/>
      <point x="391" y="722"/>
      <point x="297" y="722" type="curve" smooth="yes"/>
      <point x="249" y="722"/>
      <point x="208" y="712"/>
      <point x="171" y="694" type="curve"/>
      <point x="192" y="646" type="line"/>
      <point x="224" y="661"/>
      <point x="255" y="670"/>
      <point x="291" y="670" type="curve" smooth="yes"/>
      <point x="344" y="670"/>
      <point x="373" y="654"/>
      <point x="373" y="613" type="curve" smooth="yes"/>
      <point x="373" y="592" type="line"/>
      <point x="315" y="590" type="line" smooth="yes"/>
      <point x="200" y="584"/>
      <point x="142" y="549"/>
      <point x="142" y="480" type="curve" smooth="yes"/>
      <point x="142" y="417"/>
      <point x="192" y="382"/>
    </contour>
    <contour>
      <point x="278" y="436" type="curve" smooth="yes"/>
      <point x="236" y="436"/>
      <point x="210" y="450"/>
      <point x="210" y="484" type="curve" smooth="yes"/>
      <point x="210" y="522"/>
      <point x="245" y="535"/>
      <point x="324" y="541" type="curve" smooth="yes"/>
      <point x="373" y="544" type="line"/>
      <point x="373" y="519" type="line" smooth="yes"/>
      <point x="373" y="468"/>
      <point x="340" y="436"/>
    </contour>
  </outline>
</glyph>
<glyph name="guillemotleft" format="2">
  <advance width="620"/>
  <unicode hex="00AB"/>
  <outline>
    <contour>
      <point x="465" y="59" type="line"/>
      <point x="523" y="94" type="line"/>
      <point x="388" y="264" type="line"/>
      <point x="523" y="436" type="line"/>
      <point x="465" y="470" type="line"/>
      <point x="290" y="271" type="line"/>
      <point x="290" y="257" type="line"/>
    </contour>
    <contour>
      <point x="248" y="59" type="line"/>
      <point x="307" y="94" type="line"/>
      <point x="172" y="264" type="line"/>
      <point x="307" y="436" type="line"/>
      <point x="248" y="470" type="line"/>
      <point x="74" y="271" type="line"/>
      <point x="74" y="257" type="line"/>
    </contour>
  </outline>
</glyph>
<glyph name="logicalnot" format="2">
  <advance width="620"/>
  <unicode hex="00AC"/>
  <outline>
    <contour>
      <point x="450" y="122" type="line"/>
      <point x="522" y="122" type="line"/>
      <point x="522" y="388" type="line"/>
      <point x="68" y="388" type="line"/>
      <point x="68" y="318" type="line"/>
      <point x="450" y="318" type="line"/>
    </contour>
  </outline>
</glyph>
<glyph name="registered" format="2">
  <advance width="620"/>
  <unicode hex="00AE"/>
  <outline>
    <contour>
      <point x="301" y="121" type="curve"/>
      <point x="464" y="121"/>
      <point x="578" y="217"/>
      <point x="578" y="360" type="curve" smooth="yes"/>
      <point x="578" y="501"/>
      <point x="470" y="598"/>
      <point x="302" y="598" type="curve" smooth="yes"/>
      <point x="137" y="598"/>
      <point x="24" y="501"/>
      <point x="24" y="359" type="curve" smooth="yes"/>
      <point x="24" y="219"/>
      <point x="130" y="121"/>
    </contour>
    <contour>
      <point x="301" y="166" type="curve"/>
      <point x="165" y="166"/>
      <point x="74" y="242"/>
      <point x="74" y="360" type="curve" smooth="yes"/>
      <point x="74" y="480"/>
      <point x="167" y="552"/>
      <point x="300" y="552" type="curve" smooth="yes"/>
      <point x="436" y="552"/>
      <point x="527" y="477"/>
      <point x="527" y="358" type="curve" smooth="yes"/>
      <point x="527" y="237"/>
      <point x="434" y="166"/>
    </contour>
    <contour>
      <point x="195" y="215" type="line"/>
      <point x="245" y="215" type="line"/>
      <point x="245" y="326" type="line"/>
      <point x="301" y="326" type="line"/>
      <point x="380" y="215" type="line"/>
      <point x="441" y="215" type="line"/>
      <point x="350" y="339" type="line"/>
      <point x="383" y="350"/>
      <point x="415" y="373"/>
      <point x="415" y="421" type="curve" smooth="yes"/>
      <point x="415" y="474"/>
      <point x="374" y="508"/>
      <point x="293" y="508" type="curve" smooth="yes"/>
      <point x="195" y="508" type="line"/>
    </contour>
    <contour>
      <point x="245" y="368" type="line"/>
      <point x="245" y="463" type="line"/>
      <point x="291" y="463" type="line" smooth="yes"/>
      <point x="338" y="463"/>
      <point x="363" y="448"/>
      <point x="363" y="417" type="curve" smooth="yes"/>
      <point x="363" y="384"/>
      <point x="334" y="368"/>
      <point x="291" y="368" type="curve" smooth="yes"/>
    </contour>
  </outline>
</glyph>
<glyph name="degree" format="2">
  <advance width="620"/>
  <unicode hex="00B0"/>
  <outline>
    <contour>
      <point x="300" y="443" type="curve" smooth="yes"/>
      <point x="391" y="443"/>
      <point x="462" y="498"/>
      <point x="462" y="582" type="curve" smooth="yes"/>
      <point x="462" y="666"/>
      <point x="390" y="723"/>
      <point x="300" y="723" type="curve" smooth="yes"/>
      <point x="211" y="723"/>
      <point x="140" y="667"/>
      <point x="140" y="583" type="curve" smooth="yes"/>
      <point x="140" y="499"/>
      <point x="209" y="443"/>
    </contour>
    <contour>
      <point x="301" y="498" type="curve" smooth="yes"/>
      <point x="246" y="498"/>
      <point x="199" y="529"/>
      <point x="199" y="582" type="curve" smooth="yes"/>
      <point x="199" y="634"/>
      <point x="242" y="667"/>
      <point x="301" y="667" type="curve" smooth="yes"/>
      <point x="358" y="667"/>
      <point x="402" y="635"/>
      <point x="402" y="583" type="curve" smooth="yes"/>
      <point x="402" y="530"/>
      <point x="357" y="498"/>
    </contour>
  </outline>
</glyph>
<glyph name="plusminus" format="2">
  <advance width="620"/>
  <unicode hex="00B1"/>
  <outline>
    <contour>
      <point x="264" y="134" type="line"/>
      <point x="336" y="134" type="line"/>
      <point x="336" y="332" type="line"/>
      <point x="531" y="332" type="line"/>
      <point x="531" y="402" type="line"/>
      <point x="336" y="402" type="line"/>
      <point x="336" y="601" type="line"/>
      <point x="264" y="601" type="line"/>
      <point x="264" y="402" type="line"/>
      <point x="68" y="402" type="line"/>
      <point x="68" y="332" type="line"/>
      <point x="264" y="332" type="line"/>
    </contour>
    <contour>
      <point x="70" y="0" type="line"/>
      <point x="532" y="0" type="line"/>
      <point x="532" y="71" type="line"/>
      <point x="70" y="71" type="line"/>
    </contour>
  </outline>
</glyph>
<glyph name="twosuperior" format="2">
  <advance width="620"/>
  <unicode hex="00B2"/>
  <outline>
    <contour>
      <point x="149" y="415" type="line"/>
      <point x="466" y="415" type="line"/>
      <point x="466" y="475" type="line"/>
      <point x="233" y="475" type="line"/>
      <point x="310" y="541" type="line" smooth="yes"/>
      <point x="405" y="629"/>
      <point x="454" y="667"/>
      <point x="454" y="738" type="curve" smooth="yes"/>
      <point x="454" y="808"/>
      <point x="398" y="853"/>
      <point x="303" y="853" type="curve" smooth="yes"/>
      <point x="242" y="853"/>
      <point x="190" y="832"/>
      <point x="153" y="797" type="curve"/>
      <point x="188" y="752" type="line"/>
      <point x="222" y="779"/>
      <point x="258" y="794"/>
      <point x="297" y="794" type="curve" smooth="yes"/>
      <point x="352" y="794"/>
      <point x="383" y="770"/>
      <point x="383" y="733" type="curve" smooth="yes"/>
      <point x="383" y="684"/>
      <point x="345" y="655"/>
      <point x="266" y="581" type="curve" smooth="yes"/>
      <point x="149" y="471" type="line"/>
    </contour>
  </outline>
</glyph>
<glyph name="threesuperior" format="2">
  <advance width="620"/>
  <unicode hex="00B3"/>
  <outline>
    <contour>
      <point x="279" y="407" type="curve" smooth="yes"/>
      <point x="390" y="407"/>
      <point x="459" y="455"/>
      <point x="459" y="534" type="curve" smooth="yes"/>
      <point x="459" y="589"/>
      <point x="425" y="624"/>
      <point x="366" y="638" type="curve"/>
      <point x="366" y="642" type="line"/>
      <point x="414" y="658"/>
      <point x="445" y="693"/>
      <point x="445" y="743" type="curve" smooth="yes"/>
      <point x="445" y="811"/>
      <point x="387" y="853"/>
      <point x="296" y="853" type="curve" smooth="yes"/>
      <point x="238" y="853"/>
      <point x="193" y="836"/>
      <point x="151" y="805" type="curve"/>
      <point x="185" y="758" type="line"/>
      <point x="219" y="781"/>
      <point x="251" y="794"/>
      <point x="290" y="794" type="curve" smooth="yes"/>
      <point x="344" y="794"/>
      <point x="376" y="772"/>
      <point x="376" y="734" type="curve" smooth="yes"/>
      <point x="376" y="692"/>
      <point x="339" y="664"/>
      <point x="270" y="664" type="curve" smooth="yes"/>
      <point x="219" y="664" type="line"/>
      <point x="219" y="608" type="line"/>
      <point x="271" y="608" type="line" smooth="yes"/>
      <point x="349" y="608"/>
      <point x="388" y="584"/>
      <point x="388" y="537" type="curve" smooth="yes"/>
      <point x="388" y="494"/>
      <point x="354" y="467"/>
      <point x="280" y="467" type="curve" smooth="yes"/>
      <point x="235" y="467"/>
      <point x="192" y="478"/>
      <point x="151" y="498" type="curve"/>
      <point x="151" y="433" type="line"/>
      <point x="190" y="415"/>
      <point x="233" y="407"/>
    </contour>
  </outline>
</glyph>
<glyph name="acute" format="2">
  <advance width="620"/>
  <unicode hex="00B4"/>
  <outline>
    <contour>
      <point x="257" y="606" type="line"/>
      <point x="314" y="606" type="line"/>
      <point x="366" y="642"/>
      <point x="443" y="716"/>
      <point x="474" y="757" type="curve"/>
      <point x="474" y="766" type="line"/>
      <point x="372" y="766" type="line"/>
      <point x="346" y="721"/>
      <point x="300" y="666"/>
      <point x="257" y="617" type="curve"/>
    </contour>
  </outline>
</glyph>
<glyph name="micro" format="2">
  <advance width="620"/>
  <unicode hex="00B5"/>
  <anchor x="291" y="536" name="top"/>
  <anchor x="540" y="10" name="ogonek"/>
  <anchor x="579" y="536" name="topright"/>
  <anchor x="291" y="0" name="bottom"/>
  <outline>
    <contour>
      <point x="67" y="-240" type="line"/>
      <point x="154" y="-240" type="line"/>
      <point x="154" y="227" type="line"/>
      <point x="67" y="227" type="line"/>
    </contour>
    <component base="u" xOffset="-10"/>
  </outline>
</glyph>
<glyph name="paragraph" format="2">
  <advance width="620"/>
  <unicode hex="00B6"/>
  <outline>
    <contour>
      <point x="282" y="-127" type="line"/>
      <point x="343" y="-127" type="line"/>
      <point x="343" y="703" type="line"/>
      <point x="445" y="703" type="line"/>
      <point x="445" y="-127" type="line"/>
      <point x="506" y="-127" type="line"/>
      <point x="506" y="760" type="line"/>
      <point x="245" y="760" type="line" smooth="yes"/>
      <point x="120" y="760"/>
      <point x="59" y="683"/>
      <point x="59" y="509" type="curve" smooth="yes"/>
      <point x="59" y="338"/>
      <point x="115" y="264"/>
      <point x="222" y="264" type="curve" smooth="yes"/>
      <point x="245" y="264"/>
      <point x="265" y="267"/>
      <point x="282" y="273" type="curve"/>
    </contour>
  </outline>
</glyph>
<glyph name="cedilla" format="2">
  <advance width="620"/>
  <unicode hex="00B8"/>
  <outline>
    <contour>
      <point x="261" y="-240" type="curve" smooth="yes"/>
      <point x="355" y="-240"/>
      <point x="408" y="-203"/>
      <point x="408" y="-141" type="curve" smooth="yes"/>
      <point x="408" y="-89"/>
      <point x="372" y="-62"/>
      <point x="310" y="-50" type="curve"/>
      <point x="338" y="2" type="line"/>
      <point x="283" y="2" type="line"/>
      <point x="240" y="-81" type="line"/>
      <point x="302" y="-88"/>
      <point x="337" y="-104"/>
      <point x="337" y="-138" type="curve" smooth="yes"/>
      <point x="337" y="-168"/>
      <point x="309" y="-185"/>
      <point x="254" y="-185" type="curve" smooth="yes"/>
      <point x="237" y="-185"/>
      <point x="217" y="-183"/>
      <point x="202" y="-179" type="curve"/>
      <point x="202" y="-234" type="line"/>
      <point x="216" y="-238"/>
      <point x="240" y="-240"/>
    </contour>
  </outline>
</glyph>
<glyph name="onesuperior" format="2">
  <advance width="620"/>
  <unicode hex="00B9"/>
  <outline>
    <contour>
      <point x="283" y="415" type="line"/>
      <point x="351" y="415" type="line"/>
      <point x="351" y="843" type="line"/>
      <point x="291" y="843" type="line"/>
      <point x="144" y="753" type="line"/>
      <point x="178" y="703" type="line"/>
      <point x="243" y="743" type="line" smooth="yes"/>
      <point x="260" y="752"/>
      <point x="272" y="760"/>
      <point x="287" y="769" type="curve"/>
      <point x="284" y="739"/>
      <point x="283" y="711"/>
      <point x="283" y="679" type="curve" smooth="yes"/>
    </contour>
    <contour>
      <point x="170" y="415" type="line"/>
      <point x="461" y="415" type="line"/>
      <point x="461" y="464" type="line"/>
      <point x="333" y="470" type="line"/>
      <point x="297" y="470" type="line"/>
      <point x="170" y="464" type="line"/>
    </contour>
  </outline>
</glyph>
<glyph name="ordmasculine" format="2">
  <advance width="620"/>
  <unicode hex="00BA"/>
  <outline>
    <contour>
      <point x="306" y="382" type="curve" smooth="yes"/>
      <point x="406" y="382"/>
      <point x="462" y="443"/>
      <point x="462" y="553" type="curve" smooth="yes"/>
      <point x="462" y="664"/>
      <point x="405" y="722"/>
      <point x="307" y="722" type="curve" smooth="yes"/>
      <point x="208" y="722"/>
      <point x="149" y="660"/>
      <point x="149" y="553" type="curve" smooth="yes"/>
      <point x="149" y="444"/>
      <point x="205" y="382"/>
    </contour>
    <contour>
      <point x="305" y="436" type="curve" smooth="yes"/>
      <point x="245" y="436"/>
      <point x="216" y="474"/>
      <point x="216" y="553" type="curve" smooth="yes"/>
      <point x="216" y="631"/>
      <point x="247" y="668"/>
      <point x="306" y="668" type="curve" smooth="yes"/>
      <point x="368" y="668"/>
      <point x="395" y="633"/>
      <point x="395" y="553" type="curve" smooth="yes"/>
      <point x="395" y="474"/>
      <point x="369" y="436"/>
    </contour>
  </outline>
</glyph>
<glyph name="AE" format="2">
  <advance width="620"/>
  <unicode hex="00C6"/>
  <anchor x="301" y="0" name="bottom"/>
  <anchor x="348" y="714" name="top"/>
  <outline>
    <contour>
      <point x="12" y="0" type="line"/>
      <point x="97" y="0" type="line"/>
      <point x="266" y="632" type="line"/>
      <point x="293" y="632" type="line"/>
      <point x="293" y="0" type="line"/>
      <point x="577" y="0" type="line"/>
      <point x="577" y="82" type="line"/>
      <point x="376" y="82" type="line"/>
      <point x="376" y="332" type="line"/>
      <point x="559" y="332" type="line"/>
      <point x="559" y="413" type="line"/>
      <point x="376" y="413" type="line"/>
      <point x="376" y="632" type="line"/>
      <point x="577" y="632" type="line"/>
      <point x="577" y="714" type="line"/>
      <point x="205" y="714" type="line"/>
    </contour>
    <contour>
      <point x="137" y="222" type="line"/>
      <point x="316" y="222" type="line"/>
      <point x="318" y="301" type="line"/>
      <point x="155" y="301" type="line"/>
    </contour>
  </outline>
</glyph>
<glyph name="Eth" format="2">
  <advance width="620"/>
  <unicode hex="00D0"/>
  <anchor x="301" y="0" name="bottom"/>
  <anchor x="301" y="714" name="top"/>
  <anchor x="613" y="714" name="topright"/>
  <anchor x="305" y="357" name="center"/>
  <outline>
    <contour>
      <point x="-10" y="324" type="line"/>
      <point x="318" y="324" type="line"/>
      <point x="318" y="401" type="line"/>
      <point x="-10" y="401" type="line"/>
    </contour>
    <component base="D" xOffset="1"/>
  </outline>
</glyph>
<glyph name="multiply" format="2">
  <advance width="620"/>
  <unicode hex="00D7"/>
  <outline>
    <contour>
      <point x="125" y="159" type="line"/>
      <point x="300" y="304" type="line"/>
      <point x="476" y="160" type="line"/>
      <point x="525" y="208" type="line"/>
      <point x="351" y="353" type="line"/>
      <point x="528" y="499" type="line"/>
      <point x="477" y="548" type="line"/>
      <point x="300" y="402" type="line"/>
      <point x="124" y="546" type="line"/>
      <point x="76" y="497" type="line"/>
      <point x="251" y="353" type="line"/>
      <point x="76" y="208" type="line"/>
    </contour>
  </outline>
</glyph>
<glyph name="Thorn" format="2">
  <advance width="620"/>
  <unicode hex="00DE"/>
  <anchor x="301" y="0" name="bottom"/>
  <anchor x="301" y="714" name="top"/>
  <outline>
    <contour>
      <point x="82" y="0" type="line"/>
      <point x="169" y="0" type="line"/>
      <point x="169" y="153" type="line"/>
      <point x="286" y="153" type="line" smooth="yes"/>
      <point x="477" y="153"/>
      <point x="555" y="254"/>
      <point x="555" y="381" type="curve" smooth="yes"/>
      <point x="555" y="515"/>
      <point x="475" y="591"/>
      <point x="301" y="591" type="curve" smooth="yes"/>
      <point x="169" y="591" type="line"/>
      <point x="169" y="714" type="line"/>
      <point x="82" y="714" type="line"/>
    </contour>
    <contour>
      <point x="169" y="232" type="line"/>
      <point x="169" y="511" type="line"/>
      <point x="295" y="511" type="line" smooth="yes"/>
      <point x="412" y="511"/>
      <point x="465" y="467"/>
      <point x="465" y="377" type="curve" smooth="yes"/>
      <point x="465" y="272"/>
      <point x="400" y="232"/>
      <point x="277" y="232" type="curve" smooth="yes"/>
    </contour>
  </outline>
</glyph>
<glyph name="germandbls" format="2">
  <advance width="620"/>
  <unicode hex="00DF"/>
  <anchor x="301" y="0" name="bottom"/>
  <anchor x="301" y="765" name="top"/>
  <outline>
    <contour>
      <point x="376" y="-10" type="curve" smooth="yes"/>
      <point x="492" y="-10"/>
      <point x="559" y="46"/>
      <point x="559" y="148" type="curve" smooth="yes"/>
      <point x="559" y="223"/>
      <point x="519" y="256"/>
      <point x="448" y="318" type="curve" smooth="yes"/>
      <point x="396" y="361"/>
      <point x="374" y="378"/>
      <point x="374" y="408" type="curve" smooth="yes"/>
      <point x="374" y="486"/>
      <point x="500" y="503"/>
      <point x="500" y="618" type="curve" smooth="yes"/>
      <point x="500" y="711"/>
      <point x="422" y="765"/>
      <point x="300" y="765" type="curve" smooth="yes"/>
      <point x="162" y="765"/>
      <point x="85" y="700"/>
      <point x="85" y="585" type="curve" smooth="yes"/>
      <point x="85" y="0" type="line"/>
      <point x="170" y="0" type="line"/>
      <point x="170" y="573" type="line" smooth="yes"/>
      <point x="170" y="655"/>
      <point x="213" y="691"/>
      <point x="296" y="691" type="curve" smooth="yes"/>
      <point x="369" y="691"/>
      <point x="410" y="663"/>
      <point x="410" y="611" type="curve" smooth="yes"/>
      <point x="410" y="521"/>
      <point x="285" y="507"/>
      <point x="285" y="404" type="curve" smooth="yes"/>
      <point x="285" y="343"/>
      <point x="329" y="305"/>
      <point x="385" y="263" type="curve" smooth="yes"/>
      <point x="443" y="218"/>
      <point x="473" y="197"/>
      <point x="473" y="148" type="curve" smooth="yes"/>
      <point x="473" y="95"/>
      <point x="439" y="65"/>
      <point x="370" y="65" type="curve" smooth="yes"/>
      <point x="323" y="65"/>
      <point x="280" y="82"/>
      <point x="244" y="101" type="curve"/>
      <point x="244" y="19" type="line"/>
      <point x="279" y="-1"/>
      <point x="325" y="-10"/>
    </contour>
  </outline>
</glyph>
<glyph name="ae" format="2">
  <advance width="620"/>
  <unicode hex="00E6"/>
  <anchor x="301" y="0" name="bottom"/>
  <anchor x="301" y="536" name="top"/>
  <outline>
    <contour>
      <point x="149" y="-10" type="curve" smooth="yes"/>
      <point x="223" y="-10"/>
      <point x="269" y="19"/>
      <point x="297" y="100" type="curve"/>
      <point x="326" y="18"/>
      <point x="382" y="-10"/>
      <point x="457" y="-10" type="curve" smooth="yes"/>
      <point x="500" y="-10"/>
      <point x="535" y="-1"/>
      <point x="573" y="26" type="curve"/>
      <point x="573" y="106" type="line"/>
      <point x="533" y="76"/>
      <point x="502" y="65"/>
      <point x="465" y="65" type="curve" smooth="yes"/>
      <point x="388" y="65"/>
      <point x="338" y="109"/>
      <point x="336" y="251" type="curve"/>
      <point x="590" y="251" type="line"/>
      <point x="590" y="306" type="line" smooth="yes"/>
      <point x="590" y="459"/>
      <point x="537" y="546"/>
      <point x="437" y="546" type="curve" smooth="yes"/>
      <point x="374" y="546"/>
      <point x="332" y="516"/>
      <point x="310" y="466" type="curve"/>
      <point x="288" y="523"/>
      <point x="242" y="546"/>
      <point x="177" y="546" type="curve" smooth="yes"/>
      <point x="126" y="546"/>
      <point x="73" y="525"/>
      <point x="37" y="499" type="curve"/>
      <point x="66" y="436" type="line"/>
      <point x="96" y="457"/>
      <point x="134" y="472"/>
      <point x="168" y="472" type="curve" smooth="yes"/>
      <point x="225" y="472"/>
      <point x="254" y="442"/>
      <point x="255" y="357" type="curve" smooth="yes"/>
      <point x="255" y="323" type="line"/>
      <point x="186" y="320" type="line" smooth="yes"/>
      <point x="76" y="316"/>
      <point x="12" y="257"/>
      <point x="12" y="148" type="curve" smooth="yes"/>
      <point x="12" y="44"/>
      <point x="64" y="-10"/>
    </contour>
    <contour>
      <point x="161" y="64" type="curve" smooth="yes"/>
      <point x="120" y="64"/>
      <point x="91" y="90"/>
      <point x="91" y="149" type="curve" smooth="yes"/>
      <point x="91" y="220"/>
      <point x="134" y="252"/>
      <point x="210" y="256" type="curve" smooth="yes"/>
      <point x="254" y="258" type="line"/>
      <point x="254" y="214" type="line" smooth="yes"/>
      <point x="254" y="103"/>
      <point x="217" y="64"/>
    </contour>
    <contour>
      <point x="338" y="323" type="line"/>
      <point x="343" y="421"/>
      <point x="375" y="472"/>
      <point x="431" y="472" type="curve" smooth="yes"/>
      <point x="487" y="472"/>
      <point x="512" y="422"/>
      <point x="512" y="323" type="curve"/>
    </contour>
  </outline>
</glyph>
<glyph name="eth" format="2">
  <advance width="620"/>
  <unicode hex="00F0"/>
  <anchor x="301" y="0" name="bottom"/>
  <anchor x="301" y="268" name="center"/>
  <anchor x="301" y="765" name="top"/>
  <anchor x="589" y="760" name="topright"/>
  <outline>
    <contour>
      <point x="304" y="-10" type="curve" smooth="yes"/>
      <point x="465" y="-10"/>
      <point x="556" y="84"/>
      <point x="556" y="270" type="curve" smooth="yes"/>
      <point x="556" y="488"/>
      <point x="440" y="668"/>
      <point x="215" y="764" type="curve"/>
      <point x="178" y="708" type="line"/>
      <point x="312" y="642"/>
      <point x="422" y="546"/>
      <point x="461" y="423" type="curve"/>
      <point x="456" y="421" type="line"/>
      <point x="423" y="458"/>
      <point x="367" y="474"/>
      <point x="292" y="474" type="curve" smooth="yes"/>
      <point x="144" y="474"/>
      <point x="46" y="385"/>
      <point x="46" y="233" type="curve" smooth="yes"/>
      <point x="46" y="89"/>
      <point x="146" y="-10"/>
    </contour>
    <contour>
      <point x="305" y="63" type="curve" smooth="yes"/>
      <point x="191" y="63"/>
      <point x="135" y="134"/>
      <point x="135" y="230" type="curve" smooth="yes"/>
      <point x="135" y="342"/>
      <point x="193" y="402"/>
      <point x="307" y="402" type="curve" smooth="yes"/>
      <point x="419" y="402"/>
      <point x="467" y="331"/>
      <point x="467" y="247" type="curve" smooth="yes"/>
      <point x="467" y="126"/>
      <point x="415" y="63"/>
    </contour>
    <contour>
      <point x="193" y="547" type="line"/>
      <point x="498" y="709" type="line"/>
      <point x="462" y="764" type="line"/>
      <point x="156" y="602" type="line"/>
    </contour>
  </outline>
</glyph>
<glyph name="divide" format="2">
  <advance width="620"/>
  <unicode hex="00F7"/>
  <outline>
    <contour>
      <point x="70" y="318" type="line"/>
      <point x="532" y="318" type="line"/>
      <point x="532" y="388" type="line"/>
      <point x="70" y="388" type="line"/>
    </contour>
    <contour>
      <point x="302" y="114" type="curve" smooth="yes"/>
      <point x="335" y="114"/>
      <point x="356" y="133"/>
      <point x="356" y="176" type="curve" smooth="yes"/>
      <point x="356" y="219"/>
      <point x="337" y="238"/>
      <point x="302" y="238" type="curve" smooth="yes"/>
      <point x="266" y="238"/>
      <point x="247" y="219"/>
      <point x="247" y="176" type="curve" smooth="yes"/>
      <point x="247" y="134"/>
      <point x="267" y="114"/>
    </contour>
    <contour>
      <point x="302" y="467" type="curve" smooth="yes"/>
      <point x="335" y="467"/>
      <point x="356" y="486"/>
      <point x="356" y="529" type="curve" smooth="yes"/>
      <point x="356" y="572"/>
      <point x="337" y="591"/>
      <point x="302" y="591" type="curve" smooth="yes"/>
      <point x="266" y="591"/>
      <point x="247" y="572"/>
      <point x="247" y="529" type="curve" smooth="yes"/>
      <point x="247" y="487"/>
      <point x="267" y="467"/>
    </contour>
  </outline>
</glyph>
<glyph name="oslash" format="2">
  <advance width="620"/>
  <unicode hex="00F8"/>
  <anchor x="301" y="0" name="bottom"/>
  <anchor x="301" y="536" name="top"/>
  <anchor x="291" y="10" name="ogonek"/>
  <anchor x="579" y="536" name="topright"/>
  <anchor x="291" y="268" name="center"/>
  <outline>
    <contour>
      <point x="118" y="-44" type="line"/>
      <point x="560" y="539" type="line"/>
      <point x="503" y="573" type="line"/>
      <point x="63" y="-10" type="line"/>
    </contour>
    <component base="o" xOffset="-10"/>
  </outline>
</glyph>
<glyph name="thorn" format="2">
  <advance width="620"/>
  <unicode hex="00FE"/>
  <anchor x="324" y="-240" name="bottom"/>
  <anchor x="324" y="760" name="top"/>
  <outline>
    <contour>
      <point x="72" y="-240" type="line"/>
      <point x="159" y="-240" type="line"/>
      <point x="159" y="-11" type="line" smooth="yes"/>
      <point x="159" y="15"/>
      <point x="158" y="41"/>
      <point x="154" y="68" type="curve"/>
      <point x="159" y="68" type="line"/>
      <point x="193" y="26"/>
      <point x="248" y="-10"/>
      <point x="334" y="-10" type="curve" smooth="yes"/>
      <point x="469" y="-10"/>
      <point x="556" y="86"/>
      <point x="556" y="269" type="curve" smooth="yes"/>
      <point x="556" y="451"/>
      <point x="475" y="547"/>
      <point x="337" y="547" type="curve" smooth="yes"/>
      <point x="248" y="547"/>
      <point x="192" y="512"/>
      <point x="160" y="464" type="curve"/>
      <point x="156" y="464" type="line"/>
      <point x="158" y="493"/>
      <point x="159" y="517"/>
      <point x="159" y="550" type="curve" smooth="yes"/>
      <point x="159" y="760" type="line"/>
      <point x="72" y="760" type="line"/>
    </contour>
    <contour>
      <point x="315" y="65" type="curve" smooth="yes"/>
      <point x="207" y="65"/>
      <point x="159" y="141"/>
      <point x="159" y="269" type="curve" smooth="yes"/>
      <point x="159" y="289" type="line" smooth="yes"/>
      <point x="159" y="406"/>
      <point x="208" y="472"/>
      <point x="317" y="472" type="curve" smooth="yes"/>
      <point x="416" y="472"/>
      <point x="466" y="406"/>
      <point x="466" y="270" type="curve" smooth="yes"/>
      <point x="466" y="137"/>
      <point x="414" y="65"/>
    </contour>
  </outline>
</glyph>
<glyph name="dcaron" format="2">
  <advance width="620"/>
  <unicode hex="010F"/>
  <anchor x="268" y="0" name="bottom"/>
  <anchor x="257" y="268" name="center"/>
  <anchor x="309" y="760" name="top"/>
  <anchor x="562" y="760" name="topright"/>
  <outline>
    <contour>
      <point x="239" y="-10" type="curve" smooth="yes"/>
      <point x="321" y="-10"/>
      <point x="373" y="25"/>
      <point x="404" y="72" type="curve"/>
      <point x="408" y="72" type="line"/>
      <point x="422" y="0" type="line"/>
      <point x="490" y="0" type="line"/>
      <point x="490" y="760" type="line"/>
      <point x="403" y="760" type="line"/>
      <point x="403" y="550" type="line" smooth="yes"/>
      <point x="403" y="521"/>
      <point x="405" y="494"/>
      <point x="410" y="467" type="curve"/>
      <point x="404" y="467" type="line"/>
      <point x="375" y="512"/>
      <point x="328" y="547"/>
      <point x="245" y="547" type="curve" smooth="yes"/>
      <point x="114" y="547"/>
      <point x="34" y="449"/>
      <point x="34" y="267" type="curve" smooth="yes"/>
      <point x="34" y="86"/>
      <point x="111" y="-10"/>
    </contour>
    <contour>
      <point x="263" y="65" type="curve" smooth="yes"/>
      <point x="166" y="65"/>
      <point x="124" y="129"/>
      <point x="124" y="262" type="curve" smooth="yes"/>
      <point x="124" y="402"/>
      <point x="171" y="472"/>
      <point x="267" y="472" type="curve" smooth="yes"/>
      <point x="368" y="472"/>
      <point x="405" y="390"/>
      <point x="405" y="267" type="curve" smooth="yes"/>
      <point x="405" y="247" type="line" smooth="yes"/>
      <point x="405" y="136"/>
      <point x="366" y="65"/>
    </contour>
    <component base="caroncommaaccent" xOffset="290" yOffset="14"/>
  </outline>
</glyph>
<glyph name="dcroat" format="2">
  <advance width="620"/>
  <unicode hex="0111"/>
  <anchor x="301" y="0" name="bottom"/>
  <anchor x="301" y="268" name="center"/>
  <anchor x="301" y="760" name="top"/>
  <anchor x="589" y="760" name="topright"/>
  <outline>
    <contour>
      <point x="269" y="-10" type="curve" smooth="yes"/>
      <point x="358" y="-10"/>
      <point x="412" y="26"/>
      <point x="443" y="72" type="curve"/>
      <point x="447" y="72" type="line"/>
      <point x="461" y="0" type="line"/>
      <point x="530" y="0" type="line"/>
      <point x="530" y="760" type="line"/>
      <point x="443" y="760" type="line"/>
      <point x="443" y="544" type="line" smooth="yes"/>
      <point x="443" y="519"/>
      <point x="446" y="487"/>
      <point x="449" y="462" type="curve"/>
      <point x="444" y="462" type="line"/>
      <point x="414" y="507"/>
      <point x="361" y="542"/>
      <point x="274" y="542" type="curve" smooth="yes"/>
      <point x="130" y="542"/>
      <point x="46" y="445"/>
      <point x="46" y="264" type="curve" smooth="yes"/>
      <point x="46" y="83"/>
      <point x="130" y="-10"/>
    </contour>
    <contour>
      <point x="292" y="65" type="curve" smooth="yes"/>
      <point x="183" y="65"/>
      <point x="136" y="129"/>
      <point x="136" y="256" type="curve" smooth="yes"/>
      <point x="136" y="395"/>
      <point x="190" y="467"/>
      <point x="297" y="467" type="curve" smooth="yes"/>
      <point x="407" y="467"/>
      <point x="445" y="387"/>
      <point x="445" y="263" type="curve" smooth="yes"/>
      <point x="445" y="243" type="line" smooth="yes"/>
      <point x="445" y="134"/>
      <point x="403" y="65"/>
    </contour>
    <contour>
      <point x="236" y="604" type="line"/>
      <point x="612" y="604" type="line"/>
      <point x="612" y="670" type="line"/>
      <point x="236" y="670" type="line"/>
    </contour>
  </outline>
</glyph>
<glyph name="eogonek" format="2">
  <advance width="620"/>
  <unicode hex="0119"/>
  <anchor x="317" y="-224" name="bottom"/>
  <anchor x="301" y="536" name="top"/>
  <anchor x="308" y="10" name="ogonek"/>
  <anchor x="579" y="536" name="topright"/>
  <outline>
    <contour>
      <point x="471" y="-224" type="curve" smooth="yes"/>
      <point x="493" y="-224"/>
      <point x="513" y="-220"/>
      <point x="529" y="-215" type="curve"/>
      <point x="529" y="-157" type="line"/>
      <point x="518" y="-161"/>
      <point x="502" y="-164"/>
      <point x="488" y="-164" type="curve" smooth="yes"/>
      <point x="449" y="-164"/>
      <point x="430" y="-142"/>
      <point x="430" y="-107" type="curve" smooth="yes"/>
      <point x="430" y="-61"/>
      <point x="472" y="-11"/>
      <point x="527" y="27" type="curve"/>
      <point x="476" y="36" type="line"/>
      <point x="412" y="1"/>
      <point x="359" y="-49"/>
      <point x="359" y="-119" type="curve" smooth="yes"/>
      <point x="359" y="-179"/>
      <point x="397" y="-224"/>
    </contour>
    <component base="e" xOffset="-10"/>
  </outline>
</glyph>
<glyph name="Hbar" format="2">
  <advance width="620"/>
  <unicode hex="0126"/>
  <anchor x="301" y="0" name="bottom"/>
  <anchor x="301" y="357" name="center"/>
  <anchor x="301" y="714" name="top"/>
  <anchor x="13" y="714" name="topleft"/>
  <outline>
    <contour>
      <point x="-10" y="526" type="line"/>
      <point x="612" y="526" type="line"/>
      <point x="612" y="596" type="line"/>
      <point x="-10" y="596" type="line"/>
    </contour>
    <contour>
      <point x="58" y="0" type="line"/>
      <point x="146" y="0" type="line"/>
      <point x="146" y="330" type="line"/>
      <point x="456" y="330" type="line"/>
      <point x="456" y="0" type="line"/>
      <point x="544" y="0" type="line"/>
      <point x="544" y="714" type="line"/>
      <point x="456" y="714" type="line"/>
      <point x="456" y="411" type="line"/>
      <point x="146" y="411" type="line"/>
      <point x="146" y="714" type="line"/>
      <point x="58" y="714" type="line"/>
    </contour>
  </outline>
</glyph>
<glyph name="hbar" format="2">
  <advance width="620"/>
  <unicode hex="0127"/>
  <anchor x="301" y="0" name="bottom"/>
  <anchor x="301" y="268" name="center"/>
  <anchor x="115" y="760" name="top"/>
  <outline>
    <contour>
      <point x="-10" y="604" type="line"/>
      <point x="366" y="604" type="line"/>
      <point x="366" y="670" type="line"/>
      <point x="-10" y="670" type="line"/>
    </contour>
    <contour>
      <point x="72" y="0" type="line"/>
      <point x="159" y="0" type="line"/>
      <point x="159" y="277" type="line" smooth="yes"/>
      <point x="159" y="401"/>
      <point x="216" y="471"/>
      <point x="317" y="471" type="curve" smooth="yes"/>
      <point x="403" y="471"/>
      <point x="448" y="425"/>
      <point x="448" y="331" type="curve" smooth="yes"/>
      <point x="448" y="0" type="line"/>
      <point x="535" y="0" type="line"/>
      <point x="535" y="350" type="line" smooth="yes"/>
      <point x="535" y="486"/>
      <point x="454" y="546"/>
      <point x="338" y="546" type="curve" smooth="yes"/>
      <point x="248" y="546"/>
      <point x="192" y="513"/>
      <point x="160" y="458" type="curve"/>
      <point x="155" y="458" type="line"/>
      <point x="156" y="482"/>
      <point x="159" y="514"/>
      <point x="159" y="539" type="curve" smooth="yes"/>
      <point x="159" y="760" type="line"/>
      <point x="72" y="760" type="line"/>
    </contour>
  </outline>
</glyph>
<glyph name="idotless" format="2">
  <advance width="602"/>
  <unicode hex="0131"/>
  <anchor x="301" y="0" name="bottom"/>
  <anchor x="550" y="10" name="ogonek"/>
  <anchor x="301" y="536" name="top"/>
  <outline>
    <contour>
      <point x="81" y="0" type="line"/>
      <point x="532" y="0" type="line"/>
      <point x="532" y="61" type="line"/>
      <point x="358" y="73" type="line"/>
      <point x="358" y="536" type="line"/>
      <point x="94" y="536" type="line"/>
      <point x="94" y="475" type="line"/>
      <point x="271" y="461" type="line"/>
      <point x="271" y="73" type="line"/>
      <point x="81" y="61" type="line"/>
    </contour>
  </outline>
</glyph>
<glyph name="IJ" format="2">
  <advance width="620"/>
  <unicode hex="0132"/>
  <anchor x="301" y="0" name="bottom"/>
  <anchor x="-10" y="0" name="caret_1"/>
  <anchor x="301" y="714" name="top"/>
  <anchor x="13" y="714" name="topleft"/>
  <outline>
    <contour>
      <point x="281" y="-10" type="curve" smooth="yes"/>
      <point x="431" y="-10"/>
      <point x="505" y="70"/>
      <point x="505" y="213" type="curve" smooth="yes"/>
      <point x="505" y="714" type="line"/>
      <point x="416" y="714" type="line"/>
      <point x="416" y="225" type="line" smooth="yes"/>
      <point x="416" y="113"/>
      <point x="364" y="72"/>
      <point x="271" y="72" type="curve" smooth="yes"/>
      <point x="206" y="72"/>
      <point x="135" y="92"/>
      <point x="107" y="103" type="curve"/>
      <point x="107" y="19" type="line"/>
      <point x="142" y="2"/>
      <point x="218" y="-10"/>
    </contour>
    <contour>
      <point x="104" y="188" type="line"/>
      <point x="191" y="188" type="line"/>
      <point x="191" y="714" type="line"/>
      <point x="104" y="714" type="line"/>
    </contour>
  </outline>
</glyph>
<glyph name="ij" format="2">
  <advance width="620"/>
  <unicode hex="0133"/>
  <anchor x="313" y="-245" name="bottom"/>
  <anchor x="-10" y="0" name="caret_1"/>
  <anchor x="305" y="764" name="top"/>
  <outline>
    <contour>
      <point x="271" y="-245" type="curve" smooth="yes"/>
      <point x="412" y="-245"/>
      <point x="491" y="-182"/>
      <point x="491" y="-57" type="curve" smooth="yes"/>
      <point x="491" y="536" type="line"/>
      <point x="404" y="536" type="line"/>
      <point x="404" y="-56" type="line" smooth="yes"/>
      <point x="404" y="-131"/>
      <point x="359" y="-170"/>
      <point x="265" y="-170" type="curve" smooth="yes"/>
      <point x="221" y="-170"/>
      <point x="163" y="-161"/>
      <point x="123" y="-150" type="curve"/>
      <point x="123" y="-228" type="line"/>
      <point x="162" y="-238"/>
      <point x="219" y="-245"/>
    </contour>
    <contour>
      <point x="113" y="0" type="line"/>
      <point x="200" y="0" type="line"/>
      <point x="200" y="536" type="line"/>
      <point x="113" y="536" type="line"/>
    </contour>
    <contour>
      <point x="158" y="632" type="curve" smooth="yes"/>
      <point x="196" y="632"/>
      <point x="220" y="654"/>
      <point x="220" y="698" type="curve" smooth="yes"/>
      <point x="220" y="743"/>
      <point x="196" y="764"/>
      <point x="158" y="764" type="curve" smooth="yes"/>
      <point x="119" y="764"/>
      <point x="95" y="743"/>
      <point x="95" y="698" type="curve" smooth="yes"/>
      <point x="95" y="654"/>
      <point x="118" y="632"/>
    </contour>
    <contour>
      <point x="444" y="632" type="curve" smooth="yes"/>
      <point x="482" y="632"/>
      <point x="507" y="654"/>
      <point x="507" y="698" type="curve" smooth="yes"/>
      <point x="507" y="743"/>
      <point x="482" y="764"/>
      <point x="444" y="764" type="curve" smooth="yes"/>
      <point x="405" y="764"/>
      <point x="382" y="743"/>
      <point x="382" y="698" type="curve" smooth="yes"/>
      <point x="382" y="654"/>
      <point x="405" y="632"/>
    </contour>
  </outline>
</glyph>
<glyph name="kgreenlandic" format="2">
  <advance width="620"/>
  <unicode hex="0138"/>
  <anchor x="301" y="0" name="bottom"/>
  <anchor x="301" y="536" name="top"/>
  <outline>
    <contour>
      <point x="89" y="0" type="line"/>
      <point x="176" y="0" type="line"/>
      <point x="176" y="189" type="line"/>
      <point x="265" y="244" type="line"/>
      <point x="474" y="0" type="line"/>
      <point x="578" y="0" type="line"/>
      <point x="324" y="305" type="line"/>
      <point x="562" y="536" type="line"/>
      <point x="454" y="536" type="line"/>
      <point x="241" y="340" type="line" smooth="yes"/>
      <point x="214" y="315"/>
      <point x="195" y="293"/>
      <point x="172" y="265" type="curve"/>
      <point x="170" y="265" type="line"/>
      <point x="174" y="314"/>
      <point x="176" y="361"/>
      <point x="176" y="406" type="curve" smooth="yes"/>
      <point x="176" y="536" type="line"/>
      <point x="89" y="536" type="line"/>
    </contour>
  </outline>
</glyph>
<glyph name="Lslash" format="2">
  <advance width="620"/>
  <unicode hex="0141"/>
  <anchor x="360" y="0" name="bottom"/>
  <anchor x="187" y="714" name="top"/>
  <anchor x="442" y="714" name="topright"/>
  <anchor x="301" y="357" name="center"/>
  <outline>
    <contour>
      <point x="19" y="285" type="line"/>
      <point x="421" y="463" type="line"/>
      <point x="421" y="525" type="line"/>
      <point x="19" y="347" type="line"/>
    </contour>
    <component base="L"/>
  </outline>
</glyph>
<glyph name="lslash" format="2">
  <advance width="620"/>
  <unicode hex="0142"/>
  <anchor x="301" y="0" name="bottom"/>
  <anchor x="301" y="760" name="top"/>
  <anchor x="501" y="760" name="topright"/>
  <anchor x="312" y="376" name="center"/>
  <outline>
    <contour>
      <point x="115" y="285" type="line"/>
      <point x="517" y="463" type="line"/>
      <point x="517" y="525" type="line"/>
      <point x="115" y="347" type="line"/>
    </contour>
    <component base="l"/>
  </outline>
</glyph>
<glyph name="napostrophe" format="2">
  <advance width="620"/>
  <unicode hex="0149"/>
  <anchor x="317" y="0" name="bottom"/>
  <anchor x="320" y="536" name="top"/>
  <outline>
    <contour>
      <point x="87" y="0" type="line"/>
      <point x="175" y="0" type="line"/>
      <point x="175" y="277" type="line" smooth="yes"/>
      <point x="175" y="401"/>
      <point x="223" y="472"/>
      <point x="323" y="472" type="curve" smooth="yes"/>
      <point x="402" y="472"/>
      <point x="448" y="430"/>
      <point x="448" y="344" type="curve" smooth="yes"/>
      <point x="448" y="0" type="line"/>
      <point x="535" y="0" type="line"/>
      <point x="535" y="353" type="line" smooth="yes"/>
      <point x="535" y="487"/>
      <point x="465" y="547"/>
      <point x="351" y="547" type="curve" smooth="yes"/>
      <point x="267" y="547"/>
      <point x="207" y="520"/>
      <point x="176" y="462" type="curve"/>
      <point x="171" y="462" type="line"/>
      <point x="158" y="536" type="line"/>
      <point x="87" y="536" type="line"/>
    </contour>
    <component base="quoteright" xOffset="-302"/>
  </outline>
</glyph>
<glyph name="Eng" format="2">
  <advance width="620"/>
  <unicode hex="014A"/>
  <anchor x="321" y="-192" name="bottom"/>
  <anchor x="317" y="714" name="top"/>
  <anchor x="612" y="714" name="topright"/>
  <outline>
    <contour>
      <point x="352" y="-192" type="curve" smooth="yes"/>
      <point x="475" y="-192"/>
      <point x="544" y="-128"/>
      <point x="544" y="5" type="curve" smooth="yes"/>
      <point x="544" y="72" type="line"/>
      <point x="469" y="72" type="line"/>
      <point x="469" y="3" type="line" smooth="yes"/>
      <point x="469" y="-90"/>
      <point x="415" y="-123"/>
      <point x="345" y="-123" type="curve" smooth="yes"/>
      <point x="319" y="-123"/>
      <point x="290" y="-119"/>
      <point x="268" y="-113" type="curve"/>
      <point x="268" y="-180" type="line"/>
      <point x="288" y="-188"/>
      <point x="319" y="-192"/>
    </contour>
    <component base="N"/>
  </outline>
</glyph>
<glyph name="eng" format="2">
  <advance width="620"/>
  <unicode hex="014B"/>
  <anchor x="311" y="-240" name="bottom"/>
  <anchor x="313" y="536" name="top"/>
  <anchor x="589" y="536" name="topright"/>
  <outline>
    <contour>
      <point x="388" y="-240" type="curve" smooth="yes"/>
      <point x="487" y="-240"/>
      <point x="535" y="-180"/>
      <point x="535" y="-80" type="curve" smooth="yes"/>
      <point x="535" y="253" type="line"/>
      <point x="448" y="249" type="line"/>
      <point x="448" y="-81" type="line" smooth="yes"/>
      <point x="448" y="-144"/>
      <point x="420" y="-165"/>
      <point x="376" y="-165" type="curve" smooth="yes"/>
      <point x="353" y="-165"/>
      <point x="333" y="-162"/>
      <point x="312" y="-156" type="curve"/>
      <point x="312" y="-230" type="line"/>
      <point x="332" y="-236"/>
      <point x="356" y="-240"/>
    </contour>
    <component base="n"/>
  </outline>
</glyph>
<glyph name="OE" format="2">
  <advance width="620"/>
  <unicode hex="0152"/>
  <anchor x="301" y="0" name="bottom"/>
  <anchor x="301" y="714" name="top"/>
  <outline>
    <contour>
      <point x="258" y="-10" type="curve" smooth="yes"/>
      <point x="283" y="-10"/>
      <point x="306" y="-6"/>
      <point x="328" y="0" type="curve"/>
      <point x="581" y="0" type="line"/>
      <point x="581" y="82" type="line"/>
      <point x="395" y="82" type="line"/>
      <point x="395" y="332" type="line"/>
      <point x="563" y="332" type="line"/>
      <point x="563" y="413" type="line"/>
      <point x="395" y="413" type="line"/>
      <point x="395" y="632" type="line"/>
      <point x="581" y="632" type="line"/>
      <point x="581" y="714" type="line"/>
      <point x="338" y="714" type="line"/>
      <point x="313" y="720"/>
      <point x="288" y="724"/>
      <point x="265" y="724" type="curve" smooth="yes"/>
      <point x="92" y="724"/>
      <point x="28" y="579"/>
      <point x="28" y="359" type="curve" smooth="yes"/>
      <point x="28" y="137"/>
      <point x="94" y="-10"/>
    </contour>
    <contour>
      <point x="261" y="69" type="curve" smooth="yes"/>
      <point x="156" y="69"/>
      <point x="116" y="180"/>
      <point x="116" y="358" type="curve" smooth="yes"/>
      <point x="116" y="536"/>
      <point x="152" y="647"/>
      <point x="262" y="647" type="curve" smooth="yes"/>
      <point x="282" y="647"/>
      <point x="297" y="643"/>
      <point x="308" y="632" type="curve"/>
      <point x="308" y="83" type="line"/>
      <point x="296" y="74"/>
      <point x="279" y="69"/>
    </contour>
  </outline>
</glyph>
<glyph name="oe" format="2">
  <advance width="620"/>
  <unicode hex="0153"/>
  <anchor x="301" y="0" name="bottom"/>
  <anchor x="301" y="536" name="top"/>
  <outline>
    <contour>
      <point x="182" y="-10" type="curve" smooth="yes"/>
      <point x="248" y="-10"/>
      <point x="287" y="19"/>
      <point x="313" y="86" type="curve"/>
      <point x="338" y="20"/>
      <point x="388" y="-10"/>
      <point x="458" y="-10" type="curve" smooth="yes"/>
      <point x="498" y="-10"/>
      <point x="535" y="2"/>
      <point x="571" y="26" type="curve"/>
      <point x="571" y="100" type="line"/>
      <point x="534" y="77"/>
      <point x="500" y="63"/>
      <point x="467" y="63" type="curve" smooth="yes"/>
      <point x="394" y="63"/>
      <point x="352" y="122"/>
      <point x="350" y="251" type="curve"/>
      <point x="587" y="251" type="line"/>
      <point x="587" y="307" type="line" smooth="yes"/>
      <point x="587" y="453"/>
      <point x="539" y="546"/>
      <point x="442" y="546" type="curve" smooth="yes"/>
      <point x="382" y="546"/>
      <point x="339" y="516"/>
      <point x="313" y="452" type="curve"/>
      <point x="287" y="519"/>
      <point x="247" y="546"/>
      <point x="183" y="546" type="curve" smooth="yes"/>
      <point x="77" y="546"/>
      <point x="16" y="466"/>
      <point x="16" y="268" type="curve" smooth="yes"/>
      <point x="16" y="83"/>
      <point x="71" y="-10"/>
    </contour>
    <contour>
      <point x="183" y="63" type="curve" smooth="yes"/>
      <point x="120" y="63"/>
      <point x="93" y="135"/>
      <point x="93" y="268" type="curve" smooth="yes"/>
      <point x="93" y="409"/>
      <point x="122" y="473"/>
      <point x="183" y="473" type="curve" smooth="yes"/>
      <point x="242" y="473"/>
      <point x="270" y="408"/>
      <point x="270" y="267" type="curve" smooth="yes"/>
      <point x="270" y="132"/>
      <point x="243" y="63"/>
    </contour>
    <contour>
      <point x="351" y="321" type="line"/>
      <point x="354" y="407"/>
      <point x="387" y="474"/>
      <point x="437" y="474" type="curve" smooth="yes"/>
      <point x="485" y="474"/>
      <point x="511" y="418"/>
      <point x="512" y="321" type="curve"/>
    </contour>
  </outline>
</glyph>
<glyph name="tbar" format="2">
  <advance width="620"/>
  <unicode hex="0167"/>
  <anchor x="338" y="0" name="bottom"/>
  <anchor x="275" y="679" name="top"/>
  <anchor x="589" y="679" name="topright"/>
  <anchor x="267" y="283" name="center"/>
  <outline>
    <contour>
      <point x="55" y="277" type="line"/>
      <point x="525" y="277" type="line"/>
      <point x="525" y="342" type="line"/>
      <point x="55" y="342" type="line"/>
    </contour>
    <component base="t"/>
  </outline>
</glyph>
<glyph name="Uogonek" format="2">
  <advance width="620"/>
  <unicode hex="0172"/>
  <anchor x="335" y="-224" name="bottom"/>
  <anchor x="301" y="714" name="top"/>
  <anchor x="550" y="10" name="ogonek"/>
  <anchor x="589" y="714" name="topright"/>
  <outline>
    <contour>
      <point x="337" y="-224" type="curve" smooth="yes"/>
      <point x="361" y="-224"/>
      <point x="381" y="-220"/>
      <point x="395" y="-215" type="curve"/>
      <point x="395" y="-157" type="line"/>
      <point x="386" y="-161"/>
      <point x="370" y="-164"/>
      <point x="354" y="-164" type="curve" smooth="yes"/>
      <point x="316" y="-164"/>
      <point x="297" y="-147"/>
      <point x="297" y="-115" type="curve" smooth="yes"/>
      <point x="297" y="-66"/>
      <point x="353" y="-27"/>
      <point x="426" y="15" type="curve"/>
      <point x="378" y="28" type="line"/>
      <point x="298" y="-4"/>
      <point x="226" y="-58"/>
      <point x="226" y="-131" type="curve" smooth="yes"/>
      <point x="226" y="-187"/>
      <point x="265" y="-224"/>
    </contour>
    <component base="U"/>
  </outline>
</glyph>
<glyph name="longs" format="2">
  <advance width="620"/>
  <unicode hex="017F"/>
  <anchor x="301" y="0" name="bottom"/>
  <anchor x="411" y="765" name="top"/>
  <outline>
    <contour>
      <point x="229" y="0" type="line"/>
      <point x="317" y="0" type="line"/>
      <point x="317" y="562" type="line" smooth="yes"/>
      <point x="317" y="659"/>
      <point x="357" y="691"/>
      <point x="437" y="691" type="curve" smooth="yes"/>
      <point x="469" y="691"/>
      <point x="499" y="684"/>
      <point x="522" y="678" type="curve"/>
      <point x="544" y="748" type="line"/>
      <point x="514" y="758"/>
      <point x="478" y="765"/>
      <point x="434" y="765" type="curve" smooth="yes"/>
      <point x="301" y="765"/>
      <point x="229" y="707"/>
      <point x="229" y="574" type="curve" smooth="yes"/>
    </contour>
  </outline>
</glyph>
<glyph name="uni0180" format="2">
  <advance width="620"/>
  <unicode hex="0180"/>
  <anchor x="301" y="0" name="bottom"/>
  <anchor x="282" y="760" name="top"/>
  <anchor x="579" y="760" name="topright"/>
  <outline>
    <contour>
      <point x="-3" y="606" type="line"/>
      <point x="339" y="606" type="line"/>
      <point x="339" y="671" type="line"/>
      <point x="-3" y="671" type="line"/>
    </contour>
    <component base="b" xOffset="-10"/>
  </outline>
</glyph>
<glyph name="uni0181" format="2">
  <advance width="620"/>
  <unicode hex="0181"/>
  <anchor x="319" y="0" name="bottom"/>
  <anchor x="319" y="714" name="top"/>
  <outline>
    <contour>
      <point x="142" y="0" type="line"/>
      <point x="322" y="0" type="line" smooth="yes"/>
      <point x="483" y="0"/>
      <point x="578" y="76"/>
      <point x="578" y="205" type="curve" smooth="yes"/>
      <point x="578" y="313"/>
      <point x="516" y="358"/>
      <point x="417" y="374" type="curve"/>
      <point x="417" y="379" type="line"/>
      <point x="507" y="394"/>
      <point x="556" y="450"/>
      <point x="556" y="540" type="curve" smooth="yes"/>
      <point x="556" y="663"/>
      <point x="466" y="714"/>
      <point x="297" y="714" type="curve" smooth="yes"/>
      <point x="142" y="714" type="line"/>
    </contour>
    <contour>
      <point x="226" y="78" type="line"/>
      <point x="226" y="335" type="line"/>
      <point x="301" y="335" type="line" smooth="yes"/>
      <point x="435" y="335"/>
      <point x="487" y="287"/>
      <point x="487" y="207" type="curve" smooth="yes"/>
      <point x="487" y="128"/>
      <point x="431" y="78"/>
      <point x="308" y="78" type="curve" smooth="yes"/>
    </contour>
    <contour>
      <point x="10" y="522" type="curve"/>
      <point x="86" y="522" type="line"/>
      <point x="82" y="531"/>
      <point x="76" y="554"/>
      <point x="76" y="581" type="curve" smooth="yes"/>
      <point x="76" y="618"/>
      <point x="95" y="637"/>
      <point x="139" y="637" type="curve" smooth="yes"/>
      <point x="164" y="637" type="line"/>
      <point x="164" y="714" type="line"/>
      <point x="144" y="714" type="line" smooth="yes"/>
      <point x="42" y="714"/>
      <point x="0" y="666"/>
      <point x="0" y="585" type="curve" smooth="yes"/>
      <point x="0" y="559"/>
      <point x="5" y="534"/>
    </contour>
    <contour>
      <point x="226" y="412" type="line"/>
      <point x="226" y="636" type="line"/>
      <point x="286" y="636" type="line" smooth="yes"/>
      <point x="419" y="636"/>
      <point x="467" y="604"/>
      <point x="467" y="526" type="curve" smooth="yes"/>
      <point x="467" y="450"/>
      <point x="416" y="412"/>
      <point x="297" y="412" type="curve" smooth="yes"/>
    </contour>
  </outline>
</glyph>
<glyph name="uni0184" format="2">
  <advance width="620"/>
  <unicode hex="0184"/>
  <anchor x="301" y="0" name="bottom"/>
  <anchor x="301" y="760" name="top"/>
  <outline>
    <contour>
      <point x="314" y="-9" type="curve" smooth="yes"/>
      <point x="468" y="-9"/>
      <point x="552" y="79"/>
      <point x="552" y="209" type="curve" smooth="yes"/>
      <point x="552" y="334"/>
      <point x="476" y="416"/>
      <point x="300" y="416" type="curve" smooth="yes"/>
      <point x="170" y="416" type="line"/>
      <point x="170" y="714" type="line"/>
      <point x="82" y="714" type="line"/>
      <point x="82" y="206" type="line" smooth="yes"/>
      <point x="82" y="64"/>
      <point x="159" y="-9"/>
    </contour>
    <contour>
      <point x="316" y="71" type="curve" smooth="yes"/>
      <point x="223" y="71"/>
      <point x="170" y="112"/>
      <point x="170" y="214" type="curve" smooth="yes"/>
      <point x="170" y="340" type="line"/>
      <point x="287" y="340" type="line" smooth="yes"/>
      <point x="412" y="340"/>
      <point x="463" y="298"/>
      <point x="463" y="209" type="curve" smooth="yes"/>
      <point x="463" y="117"/>
      <point x="413" y="71"/>
    </contour>
  </outline>
</glyph>
<glyph name="uni0185" format="2">
  <advance width="620"/>
  <unicode hex="0185"/>
  <anchor x="301" y="0" name="bottom"/>
  <anchor x="301" y="760" name="top"/>
  <outline>
    <contour>
      <point x="310" y="-10" type="curve" smooth="yes"/>
      <point x="470" y="-10"/>
      <point x="556" y="88"/>
      <point x="556" y="269" type="curve" smooth="yes"/>
      <point x="556" y="452"/>
      <point x="473" y="547"/>
      <point x="335" y="547" type="curve" smooth="yes"/>
      <point x="249" y="547"/>
      <point x="188" y="513"/>
      <point x="159" y="465" type="curve"/>
      <point x="155" y="465" type="line"/>
      <point x="158" y="497"/>
      <point x="159" y="536"/>
      <point x="159" y="576" type="curve" smooth="yes"/>
      <point x="159" y="760" type="line"/>
      <point x="72" y="760" type="line"/>
      <point x="72" y="264" type="line" smooth="yes"/>
      <point x="72" y="64"/>
      <point x="159" y="-10"/>
    </contour>
    <contour>
      <point x="311" y="65" type="curve" smooth="yes"/>
      <point x="215" y="65"/>
      <point x="159" y="110"/>
      <point x="159" y="262" type="curve" smooth="yes"/>
      <point x="159" y="274" type="line" smooth="yes"/>
      <point x="159" y="409"/>
      <point x="215" y="472"/>
      <point x="315" y="472" type="curve" smooth="yes"/>
      <point x="416" y="472"/>
      <point x="466" y="407"/>
      <point x="466" y="268" type="curve" smooth="yes"/>
      <point x="466" y="129"/>
      <point x="411" y="65"/>
    </contour>
  </outline>
</glyph>
<glyph name="uni0187" format="2">
  <advance width="620"/>
  <unicode hex="0187"/>
  <anchor x="361" y="0" name="bottom"/>
  <anchor x="361" y="864" name="top"/>
  <anchor x="579" y="714" name="topright"/>
  <outline>
    <contour>
      <point x="496" y="686" type="line"/>
      <point x="572" y="686" type="line"/>
      <point x="572" y="736" type="line" smooth="yes"/>
      <point x="572" y="777"/>
      <point x="591" y="789"/>
      <point x="622" y="789" type="curve" smooth="yes"/>
      <point x="643" y="789"/>
      <point x="663" y="782"/>
      <point x="673" y="778" type="curve"/>
      <point x="673" y="852" type="line"/>
      <point x="661" y="858"/>
      <point x="639" y="864"/>
      <point x="611" y="864" type="curve" smooth="yes"/>
      <point x="544" y="864"/>
      <point x="496" y="827"/>
      <point x="496" y="741" type="curve" smooth="yes"/>
    </contour>
    <component base="C" xOffset="-10"/>
  </outline>
</glyph>
<glyph name="uni0188" format="2">
  <advance width="620"/>
  <unicode hex="0188"/>
  <anchor x="301" y="0" name="bottom"/>
  <anchor x="301" y="767" name="top"/>
  <anchor x="579" y="536" name="topright"/>
  <outline>
    <contour>
      <point x="451" y="515" type="line"/>
      <point x="526" y="515" type="line"/>
      <point x="526" y="639" type="line" smooth="yes"/>
      <point x="526" y="679"/>
      <point x="545" y="692"/>
      <point x="577" y="692" type="curve" smooth="yes"/>
      <point x="599" y="692"/>
      <point x="617" y="686"/>
      <point x="626" y="682" type="curve"/>
      <point x="626" y="754" type="line"/>
      <point x="614" y="760"/>
      <point x="595" y="767"/>
      <point x="567" y="767" type="curve" smooth="yes"/>
      <point x="495" y="767"/>
      <point x="451" y="726"/>
      <point x="451" y="639" type="curve" smooth="yes"/>
    </contour>
    <component base="c" xOffset="-10"/>
  </outline>
</glyph>
<glyph name="uni018A" format="2">
  <advance width="620"/>
  <unicode hex="018A"/>
  <anchor x="301" y="0" name="bottom"/>
  <anchor x="301" y="714" name="top"/>
  <outline>
    <contour>
      <point x="141" y="0" type="line"/>
      <point x="266" y="0" type="line" smooth="yes"/>
      <point x="479" y="0"/>
      <point x="569" y="125"/>
      <point x="569" y="366" type="curve" smooth="yes"/>
      <point x="569" y="593"/>
      <point x="485" y="714"/>
      <point x="283" y="714" type="curve" smooth="yes"/>
      <point x="141" y="714" type="line"/>
    </contour>
    <contour>
      <point x="227" y="80" type="line"/>
      <point x="227" y="634" type="line"/>
      <point x="270" y="634" type="line" smooth="yes"/>
      <point x="431" y="634"/>
      <point x="478" y="550"/>
      <point x="478" y="364" type="curve" smooth="yes"/>
      <point x="478" y="176"/>
      <point x="424" y="80"/>
      <point x="267" y="80" type="curve" smooth="yes"/>
    </contour>
    <contour>
      <point x="10" y="522" type="curve"/>
      <point x="86" y="522" type="line"/>
      <point x="82" y="531"/>
      <point x="76" y="554"/>
      <point x="76" y="581" type="curve" smooth="yes"/>
      <point x="76" y="615"/>
      <point x="95" y="635"/>
      <point x="139" y="635" type="curve" smooth="yes"/>
      <point x="164" y="635" type="line"/>
      <point x="164" y="714" type="line"/>
      <point x="144" y="714" type="line" smooth="yes"/>
      <point x="42" y="714"/>
      <point x="0" y="666"/>
      <point x="0" y="585" type="curve" smooth="yes"/>
      <point x="0" y="559"/>
      <point x="5" y="534"/>
    </contour>
  </outline>
</glyph>
<glyph name="uni018B" format="2">
  <advance width="620"/>
  <unicode hex="018B"/>
  <anchor x="301" y="0" name="bottom"/>
  <anchor x="305" y="714" name="top"/>
  <anchor x="0" y="0" name="topright"/>
  <outline>
    <contour>
      <point x="92" y="635" type="line"/>
      <point x="472" y="635" type="line"/>
      <point x="472" y="714" type="line"/>
      <point x="92" y="714" type="line"/>
    </contour>
    <component base="P" xScale="-1" yScale="-1" xOffset="612" yOffset="714"/>
  </outline>
</glyph>
<glyph name="uni018C" format="2">
  <advance width="620"/>
  <unicode hex="018C"/>
  <anchor x="301" y="0" name="bottom"/>
  <anchor x="315" y="760" name="top"/>
  <anchor x="579" y="760" name="topright"/>
  <anchor x="291" y="268" name="center"/>
  <outline>
    <contour>
      <point x="113" y="688" type="line"/>
      <point x="486" y="688" type="line"/>
      <point x="486" y="760" type="line"/>
      <point x="113" y="760" type="line"/>
    </contour>
    <component base="d" xOffset="-10"/>
  </outline>
</glyph>
<glyph name="uni0191" format="2">
  <advance width="620"/>
  <unicode hex="0191"/>
  <anchor x="307" y="-193" name="bottom"/>
  <anchor x="316" y="714" name="top"/>
  <outline>
    <contour>
      <point x="18" y="-193" type="curve" smooth="yes"/>
      <point x="111" y="-193"/>
      <point x="171" y="-147"/>
      <point x="171" y="-23" type="curve" smooth="yes"/>
      <point x="171" y="303" type="line"/>
      <point x="513" y="303" type="line"/>
      <point x="513" y="383" type="line"/>
      <point x="171" y="383" type="line"/>
      <point x="171" y="633" type="line"/>
      <point x="531" y="633" type="line"/>
      <point x="531" y="714" type="line"/>
      <point x="82" y="714" type="line"/>
      <point x="82" y="-10" type="line" smooth="yes"/>
      <point x="82" y="-90"/>
      <point x="58" y="-118"/>
      <point x="9" y="-118" type="curve" smooth="yes"/>
      <point x="-15" y="-118"/>
      <point x="-35" y="-114"/>
      <point x="-53" y="-108" type="curve"/>
      <point x="-53" y="-182" type="line"/>
      <point x="-33" y="-190"/>
      <point x="-11" y="-193"/>
    </contour>
  </outline>
</glyph>
<glyph name="florin" format="2">
  <advance width="620"/>
  <unicode hex="0192"/>
  <anchor x="287" y="-240" name="bottom"/>
  <anchor x="395" y="724" name="top"/>
  <outline>
    <contour>
      <point x="170" y="-240" type="curve" smooth="yes"/>
      <point x="290" y="-240"/>
      <point x="336" y="-181"/>
      <point x="336" y="-52" type="curve" smooth="yes"/>
      <point x="336" y="403" type="line"/>
      <point x="478" y="403" type="line"/>
      <point x="478" y="473" type="line"/>
      <point x="335" y="473" type="line"/>
      <point x="335" y="540" type="line" smooth="yes"/>
      <point x="335" y="622"/>
      <point x="365" y="651"/>
      <point x="432" y="651" type="curve" smooth="yes"/>
      <point x="460" y="651"/>
      <point x="487" y="645"/>
      <point x="511" y="636" type="curve"/>
      <point x="534" y="703" type="line"/>
      <point x="498" y="717"/>
      <point x="464" y="724"/>
      <point x="422" y="724" type="curve" smooth="yes"/>
      <point x="305" y="724"/>
      <point x="250" y="671"/>
      <point x="250" y="540" type="curve" smooth="yes"/>
      <point x="250" y="476" type="line"/>
      <point x="122" y="448" type="line"/>
      <point x="122" y="403" type="line"/>
      <point x="249" y="403" type="line"/>
      <point x="249" y="-64" type="line" smooth="yes"/>
      <point x="249" y="-136"/>
      <point x="223" y="-167"/>
      <point x="159" y="-167" type="curve" smooth="yes"/>
      <point x="136" y="-167"/>
      <point x="111" y="-163"/>
      <point x="87" y="-158" type="curve"/>
      <point x="87" y="-232" type="line"/>
      <point x="109" y="-237"/>
      <point x="137" y="-240"/>
    </contour>
  </outline>
</glyph>
<glyph name="uni0193" format="2">
  <advance width="620"/>
  <unicode hex="0193"/>
  <anchor x="306" y="0" name="bottom"/>
  <anchor x="306" y="864" name="top"/>
  <anchor x="579" y="714" name="topright"/>
  <outline>
    <contour>
      <point x="465" y="682" type="line"/>
      <point x="540" y="682" type="line"/>
      <point x="540" y="736" type="line" smooth="yes"/>
      <point x="540" y="777"/>
      <point x="559" y="789"/>
      <point x="590" y="789" type="curve" smooth="yes"/>
      <point x="612" y="789"/>
      <point x="632" y="782"/>
      <point x="642" y="778" type="curve"/>
      <point x="642" y="852" type="line"/>
      <point x="629" y="858"/>
      <point x="608" y="864"/>
      <point x="580" y="864" type="curve" smooth="yes"/>
      <point x="512" y="864"/>
      <point x="465" y="827"/>
      <point x="465" y="741" type="curve" smooth="yes"/>
    </contour>
    <component base="G" xOffset="-10"/>
  </outline>
</glyph>
<glyph name="uni0194" format="2">
  <advance width="620"/>
  <unicode hex="0194"/>
  <anchor x="301" y="-240" name="bottom"/>
  <anchor x="301" y="714" name="top"/>
  <outline>
    <contour>
      <point x="300" y="-240" type="curve" smooth="yes"/>
      <point x="391" y="-240"/>
      <point x="434" y="-186"/>
      <point x="434" y="-103" type="curve" smooth="yes"/>
      <point x="434" y="-36"/>
      <point x="394" y="40"/>
      <point x="348" y="126" type="curve"/>
      <point x="579" y="714" type="line"/>
      <point x="487" y="714" type="line"/>
      <point x="340" y="335" type="line" smooth="yes"/>
      <point x="327" y="298"/>
      <point x="311" y="247"/>
      <point x="300" y="204" type="curve"/>
      <point x="291" y="246"/>
      <point x="276" y="297"/>
      <point x="263" y="335" type="curve" smooth="yes"/>
      <point x="114" y="714" type="line"/>
      <point x="23" y="714" type="line"/>
      <point x="253" y="122" type="line"/>
      <point x="209" y="48"/>
      <point x="168" y="-35"/>
      <point x="168" y="-104" type="curve" smooth="yes"/>
      <point x="168" y="-188"/>
      <point x="213" y="-240"/>
    </contour>
    <contour>
      <point x="302" y="-171" type="curve" smooth="yes"/>
      <point x="269" y="-171"/>
      <point x="246" y="-151"/>
      <point x="246" y="-104" type="curve" smooth="yes"/>
      <point x="246" y="-63"/>
      <point x="267" y="-12"/>
      <point x="302" y="46" type="curve"/>
      <point x="334" y="-11"/>
      <point x="356" y="-63"/>
      <point x="356" y="-106" type="curve" smooth="yes"/>
      <point x="356" y="-152"/>
      <point x="335" y="-171"/>
    </contour>
  </outline>
</glyph>
<glyph name="uni0195" format="2">
  <advance width="620"/>
  <unicode hex="0195"/>
  <anchor x="305" y="0" name="bottom"/>
  <anchor x="94" y="760" name="top"/>
  <outline>
    <contour>
      <point x="414" y="-11" type="curve" smooth="yes"/>
      <point x="506" y="-11"/>
      <point x="560" y="38"/>
      <point x="560" y="122" type="curve" smooth="yes"/>
      <point x="560" y="536" type="line"/>
      <point x="483" y="536" type="line"/>
      <point x="483" y="126" type="line" smooth="yes"/>
      <point x="483" y="80"/>
      <point x="456" y="60"/>
      <point x="414" y="60" type="curve" smooth="yes"/>
      <point x="372" y="60"/>
      <point x="345" y="78"/>
      <point x="345" y="135" type="curve" smooth="yes"/>
      <point x="345" y="413" type="line" smooth="yes"/>
      <point x="345" y="512"/>
      <point x="303" y="546"/>
      <point x="229" y="546" type="curve" smooth="yes"/>
      <point x="178" y="546"/>
      <point x="146" y="526"/>
      <point x="130" y="490" type="curve"/>
      <point x="125" y="490" type="line"/>
      <point x="128" y="512"/>
      <point x="130" y="535"/>
      <point x="130" y="561" type="curve" smooth="yes"/>
      <point x="130" y="760" type="line"/>
      <point x="52" y="760" type="line"/>
      <point x="52" y="0" type="line"/>
      <point x="130" y="0" type="line"/>
      <point x="130" y="350" type="line" smooth="yes"/>
      <point x="130" y="447"/>
      <point x="159" y="476"/>
      <point x="209" y="476" type="curve" smooth="yes"/>
      <point x="244" y="476"/>
      <point x="268" y="454"/>
      <point x="268" y="394" type="curve" smooth="yes"/>
      <point x="268" y="131" type="line" smooth="yes"/>
      <point x="268" y="24"/>
      <point x="327" y="-11"/>
    </contour>
  </outline>
</glyph>
<glyph name="uni0196" format="2">
  <advance width="620"/>
  <unicode hex="0196"/>
  <anchor x="355" y="0" name="bottom"/>
  <anchor x="254" y="714" name="top"/>
  <outline>
    <contour>
      <point x="379" y="-10" type="curve" smooth="yes"/>
      <point x="421" y="-10"/>
      <point x="471" y="-4"/>
      <point x="502" y="6" type="curve"/>
      <point x="502" y="81" type="line"/>
      <point x="472" y="74"/>
      <point x="433" y="69"/>
      <point x="402" y="69" type="curve" smooth="yes"/>
      <point x="333" y="69"/>
      <point x="298" y="93"/>
      <point x="298" y="152" type="curve" smooth="yes"/>
      <point x="298" y="714" type="line"/>
      <point x="208" y="714" type="line"/>
      <point x="208" y="145" type="line" smooth="yes"/>
      <point x="208" y="31"/>
      <point x="270" y="-10"/>
    </contour>
  </outline>
</glyph>
<glyph name="uni0197" format="2">
  <advance width="620"/>
  <unicode hex="0197"/>
  <anchor x="301" y="0" name="bottom"/>
  <anchor x="301" y="714" name="top"/>
  <anchor x="3" y="714" name="topleft"/>
  <anchor x="362" y="10" name="ogonek"/>
  <anchor x="579" y="714" name="topright"/>
  <outline>
    <contour>
      <point x="114" y="333" type="line"/>
      <point x="489" y="333" type="line"/>
      <point x="489" y="409" type="line"/>
      <point x="114" y="409" type="line"/>
    </contour>
    <component base="I" xOffset="-10"/>
  </outline>
</glyph>
<glyph name="uni0198" format="2">
  <advance width="620"/>
  <unicode hex="0198"/>
  <anchor x="301" y="0" name="bottom"/>
  <anchor x="301" y="714" name="top"/>
  <outline>
    <contour>
      <point x="58" y="0" type="line"/>
      <point x="144" y="0" type="line"/>
      <point x="144" y="254" type="line"/>
      <point x="234" y="331" type="line"/>
      <point x="470" y="0" type="line"/>
      <point x="570" y="0" type="line"/>
      <point x="294" y="393" type="line"/>
      <point x="464" y="595" type="line" smooth="yes"/>
      <point x="499" y="635"/>
      <point x="518" y="645"/>
      <point x="542" y="645" type="curve" smooth="yes"/>
      <point x="559" y="645"/>
      <point x="576" y="641"/>
      <point x="585" y="639" type="curve"/>
      <point x="585" y="713" type="line"/>
      <point x="572" y="718"/>
      <point x="554" y="722"/>
      <point x="530" y="722" type="curve" smooth="yes"/>
      <point x="476" y="722"/>
      <point x="448" y="702"/>
      <point x="391" y="636" type="curve" smooth="yes"/>
      <point x="231" y="463" type="line" smooth="yes"/>
      <point x="195" y="418"/>
      <point x="171" y="380"/>
      <point x="144" y="348" type="curve"/>
      <point x="144" y="714" type="line"/>
      <point x="58" y="714" type="line"/>
    </contour>
  </outline>
</glyph>
<glyph name="uni0199" format="2">
  <advance width="620"/>
  <unicode hex="0199"/>
  <anchor x="301" y="0" name="bottom"/>
  <anchor x="301" y="765" name="top"/>
  <outline>
    <contour>
      <point x="89" y="0" type="line"/>
      <point x="176" y="0" type="line"/>
      <point x="176" y="189" type="line"/>
      <point x="265" y="244" type="line"/>
      <point x="474" y="0" type="line"/>
      <point x="578" y="0" type="line"/>
      <point x="324" y="305" type="line"/>
      <point x="562" y="536" type="line"/>
      <point x="454" y="536" type="line"/>
      <point x="241" y="340" type="line" smooth="yes"/>
      <point x="214" y="315"/>
      <point x="195" y="293"/>
      <point x="172" y="265" type="curve"/>
      <point x="170" y="265" type="line"/>
      <point x="174" y="314"/>
      <point x="176" y="361"/>
      <point x="176" y="406" type="curve" smooth="yes"/>
      <point x="176" y="622" type="line" smooth="yes"/>
      <point x="176" y="672"/>
      <point x="195" y="689"/>
      <point x="237" y="689" type="curve" smooth="yes"/>
      <point x="254" y="689"/>
      <point x="271" y="685"/>
      <point x="284" y="680" type="curve"/>
      <point x="284" y="755" type="line"/>
      <point x="270" y="760"/>
      <point x="246" y="765"/>
      <point x="225" y="765" type="curve" smooth="yes"/>
      <point x="137" y="765"/>
      <point x="89" y="715"/>
      <point x="89" y="623" type="curve" smooth="yes"/>
    </contour>
  </outline>
</glyph>
<glyph name="uni019A" format="2">
  <advance width="620"/>
  <unicode hex="019A"/>
  <anchor x="301" y="0" name="bottom"/>
  <anchor x="301" y="760" name="top"/>
  <anchor x="491" y="760" name="topright"/>
  <anchor x="302" y="376" name="center"/>
  <outline>
    <contour>
      <point x="113" y="349" type="line"/>
      <point x="507" y="349" type="line"/>
      <point x="507" y="414" type="line"/>
      <point x="113" y="414" type="line"/>
    </contour>
    <component base="l" xOffset="-10"/>
  </outline>
</glyph>
<glyph name="uni019B" format="2">
  <advance width="620"/>
  <unicode hex="019B"/>
  <anchor x="283" y="0" name="bottom"/>
  <anchor x="290" y="766" name="top"/>
  <outline>
    <contour>
      <point x="144" y="530" type="line"/>
      <point x="430" y="613" type="line"/>
      <point x="410" y="672" type="line"/>
      <point x="125" y="590" type="line"/>
    </contour>
    <component base="lambda" xOffset="-4"/>
  </outline>
</glyph>
<glyph name="uni019C" format="2">
  <advance width="620"/>
  <unicode hex="019C"/>
  <anchor x="301" y="0" name="bottom"/>
  <anchor x="301" y="357" name="center"/>
  <anchor x="301" y="714" name="top"/>
  <anchor x="13" y="714" name="topleft"/>
  <outline>
    <contour>
      <point x="153" y="-11" type="curve" smooth="yes"/>
      <point x="210" y="-11"/>
      <point x="245" y="13"/>
      <point x="270" y="61" type="curve"/>
      <point x="274" y="61" type="line"/>
      <point x="290" y="14"/>
      <point x="322" y="-11"/>
      <point x="378" y="-11" type="curve" smooth="yes"/>
      <point x="433" y="-11"/>
      <point x="466" y="9"/>
      <point x="488" y="56" type="curve"/>
      <point x="493" y="56" type="line"/>
      <point x="505" y="0" type="line"/>
      <point x="566" y="0" type="line"/>
      <point x="566" y="714" type="line"/>
      <point x="485" y="714" type="line"/>
      <point x="485" y="224" type="line" smooth="yes"/>
      <point x="485" y="138"/>
      <point x="469" y="66"/>
      <point x="403" y="66" type="curve" smooth="yes"/>
      <point x="356" y="66"/>
      <point x="342" y="102"/>
      <point x="342" y="164" type="curve" smooth="yes"/>
      <point x="342" y="714" type="line"/>
      <point x="259" y="714" type="line"/>
      <point x="259" y="218" type="line" smooth="yes"/>
      <point x="259" y="126"/>
      <point x="239" y="66"/>
      <point x="179" y="66" type="curve" smooth="yes"/>
      <point x="131" y="66"/>
      <point x="117" y="102"/>
      <point x="117" y="164" type="curve" smooth="yes"/>
      <point x="117" y="714" type="line"/>
      <point x="36" y="714" type="line"/>
      <point x="36" y="152" type="line" smooth="yes"/>
      <point x="36" y="38"/>
      <point x="76" y="-11"/>
    </contour>
  </outline>
</glyph>
<glyph name="uni019D" format="2">
  <advance width="620"/>
  <unicode hex="019D"/>
  <anchor x="302" y="-187" name="bottom"/>
  <anchor x="302" y="714" name="top"/>
  <anchor x="602" y="714" name="topright"/>
  <outline>
    <contour>
      <point x="3" y="-187" type="curve" smooth="yes"/>
      <point x="94" y="-187"/>
      <point x="140" y="-137"/>
      <point x="140" y="-13" type="curve" smooth="yes"/>
      <point x="140" y="154" type="line"/>
      <point x="58" y="143" type="line"/>
      <point x="58" y="-1" type="line" smooth="yes"/>
      <point x="58" y="-83"/>
      <point x="38" y="-114"/>
      <point x="-6" y="-114" type="curve" smooth="yes"/>
      <point x="-29" y="-114"/>
      <point x="-48" y="-110"/>
      <point x="-66" y="-104" type="curve"/>
      <point x="-66" y="-176" type="line"/>
      <point x="-47" y="-184"/>
      <point x="-24" y="-187"/>
    </contour>
    <component base="N" xOffset="-10"/>
  </outline>
</glyph>
<glyph name="uni01A2" format="2">
  <advance width="620"/>
  <unicode hex="01A2"/>
  <anchor x="118" y="0" name="bottom"/>
  <anchor x="130" y="10" name="ogonek"/>
  <anchor x="336" y="714" name="top"/>
  <anchor x="-164" y="714" name="topleft"/>
  <anchor x="849" y="714" name="topright"/>
  <outline>
    <contour>
      <point x="115" y="-10" type="curve" smooth="yes"/>
      <point x="327" y="-10"/>
      <point x="422" y="147"/>
      <point x="422" y="358" type="curve" smooth="yes"/>
      <point x="422" y="553"/>
      <point x="340" y="724"/>
      <point x="121" y="724" type="curve" smooth="yes"/>
      <point x="-71" y="724"/>
      <point x="-192" y="598"/>
      <point x="-192" y="356" type="curve" smooth="yes"/>
      <point x="-192" y="151"/>
      <point x="-100" y="-10"/>
    </contour>
    <contour>
      <point x="116" y="69" type="curve" smooth="yes"/>
      <point x="-28" y="69"/>
      <point x="-100" y="171"/>
      <point x="-100" y="356" type="curve" smooth="yes"/>
      <point x="-100" y="543"/>
      <point x="-27" y="645"/>
      <point x="118" y="645" type="curve" smooth="yes"/>
      <point x="259" y="645"/>
      <point x="328" y="547"/>
      <point x="328" y="360" type="curve" smooth="yes"/>
      <point x="328" y="168"/>
      <point x="258" y="69"/>
    </contour>
    <contour>
      <point x="706" y="0" type="line"/>
      <point x="794" y="0" type="line"/>
      <point x="794" y="497" type="line" smooth="yes"/>
      <point x="794" y="654"/>
      <point x="710" y="724"/>
      <point x="570" y="724" type="curve" smooth="yes"/>
      <point x="463" y="724"/>
      <point x="387" y="683"/>
      <point x="327" y="617" type="curve"/>
      <point x="356" y="565" type="line"/>
      <point x="399" y="608"/>
      <point x="464" y="646"/>
      <point x="549" y="646" type="curve" smooth="yes"/>
      <point x="649" y="646"/>
      <point x="706" y="596"/>
      <point x="706" y="480" type="curve" smooth="yes"/>
    </contour>
  </outline>
</glyph>
<glyph name="uni01A3" format="2">
  <advance width="620"/>
  <unicode hex="01A3"/>
  <anchor x="191" y="0" name="bottom"/>
  <anchor x="191" y="277" name="center"/>
  <anchor x="195" y="10" name="ogonek"/>
  <anchor x="302" y="536" name="top"/>
  <outline>
    <contour>
      <point x="471" y="-240" type="line"/>
      <point x="558" y="-240" type="line"/>
      <point x="558" y="403" type="line" smooth="yes"/>
      <point x="558" y="511"/>
      <point x="508" y="548"/>
      <point x="436" y="548" type="curve" smooth="yes"/>
      <point x="365" y="548"/>
      <point x="338" y="515"/>
      <point x="318" y="483" type="curve"/>
      <point x="294" y="527"/>
      <point x="255" y="548"/>
      <point x="193" y="548" type="curve" smooth="yes"/>
      <point x="76" y="548"/>
      <point x="26" y="465"/>
      <point x="26" y="269" type="curve" smooth="yes"/>
      <point x="26" y="85"/>
      <point x="77" y="-10"/>
      <point x="191" y="-10" type="curve" smooth="yes"/>
      <point x="310" y="-10"/>
      <point x="358" y="86"/>
      <point x="358" y="269" type="curve" smooth="yes"/>
      <point x="358" y="327"/>
      <point x="351" y="394"/>
      <point x="340" y="433" type="curve"/>
      <point x="353" y="452"/>
      <point x="374" y="474"/>
      <point x="412" y="474" type="curve" smooth="yes"/>
      <point x="451" y="474"/>
      <point x="471" y="455"/>
      <point x="471" y="405" type="curve" smooth="yes"/>
    </contour>
    <contour>
      <point x="192" y="63" type="curve" smooth="yes"/>
      <point x="136" y="63"/>
      <point x="112" y="116"/>
      <point x="112" y="269" type="curve" smooth="yes"/>
      <point x="112" y="424"/>
      <point x="135" y="476"/>
      <point x="192" y="476" type="curve" smooth="yes"/>
      <point x="249" y="476"/>
      <point x="271" y="424"/>
      <point x="271" y="269" type="curve" smooth="yes"/>
      <point x="271" y="114"/>
      <point x="247" y="63"/>
    </contour>
  </outline>
</glyph>
<glyph name="uni01A4" format="2">
  <advance width="620"/>
  <unicode hex="01A4"/>
  <anchor x="337" y="0" name="bottom"/>
  <anchor x="337" y="714" name="top"/>
  <outline>
    <contour>
      <point x="160" y="0" type="line"/>
      <point x="247" y="0" type="line"/>
      <point x="247" y="276" type="line"/>
      <point x="301" y="276" type="line" smooth="yes"/>
      <point x="482" y="276"/>
      <point x="555" y="377"/>
      <point x="555" y="505" type="curve" smooth="yes"/>
      <point x="555" y="638"/>
      <point x="478" y="714"/>
      <point x="314" y="714" type="curve" smooth="yes"/>
      <point x="160" y="714" type="line" smooth="yes"/>
      <point x="56" y="714"/>
      <point x="13" y="664"/>
      <point x="13" y="582" type="curve" smooth="yes"/>
      <point x="13" y="555"/>
      <point x="18" y="529"/>
      <point x="23" y="516" type="curve"/>
      <point x="99" y="516" type="line"/>
      <point x="95" y="525"/>
      <point x="89" y="549"/>
      <point x="89" y="578" type="curve" smooth="yes"/>
      <point x="89" y="612"/>
      <point x="107" y="638"/>
      <point x="160" y="638" type="curve"/>
    </contour>
    <contour>
      <point x="247" y="355" type="line"/>
      <point x="247" y="638" type="line"/>
      <point x="309" y="638" type="line" smooth="yes"/>
      <point x="416" y="638"/>
      <point x="465" y="591"/>
      <point x="465" y="500" type="curve" smooth="yes"/>
      <point x="465" y="395"/>
      <point x="405" y="355"/>
      <point x="292" y="355" type="curve" smooth="yes"/>
    </contour>
  </outline>
</glyph>
<glyph name="uni01A5" format="2">
  <advance width="620"/>
  <unicode hex="01A5"/>
  <anchor x="324" y="-240" name="bottom"/>
  <anchor x="324" y="765" name="top"/>
  <outline>
    <contour>
      <point x="72" y="-240" type="line"/>
      <point x="159" y="-240" type="line"/>
      <point x="159" y="-11" type="line" smooth="yes"/>
      <point x="159" y="11"/>
      <point x="158" y="46"/>
      <point x="154" y="68" type="curve"/>
      <point x="161" y="68" type="line"/>
      <point x="194" y="26"/>
      <point x="248" y="-10"/>
      <point x="334" y="-10" type="curve" smooth="yes"/>
      <point x="469" y="-10"/>
      <point x="556" y="86"/>
      <point x="556" y="269" type="curve" smooth="yes"/>
      <point x="556" y="451"/>
      <point x="475" y="547"/>
      <point x="337" y="547" type="curve" smooth="yes"/>
      <point x="248" y="547"/>
      <point x="192" y="512"/>
      <point x="160" y="464" type="curve"/>
      <point x="156" y="464" type="line"/>
      <point x="158" y="492"/>
      <point x="159" y="516"/>
      <point x="159" y="548" type="curve" smooth="yes"/>
      <point x="159" y="622" type="line" smooth="yes"/>
      <point x="159" y="673"/>
      <point x="179" y="689"/>
      <point x="221" y="689" type="curve" smooth="yes"/>
      <point x="240" y="689"/>
      <point x="258" y="685"/>
      <point x="271" y="681" type="curve"/>
      <point x="271" y="755" type="line"/>
      <point x="257" y="760"/>
      <point x="232" y="765"/>
      <point x="208" y="765" type="curve" smooth="yes"/>
      <point x="119" y="765"/>
      <point x="72" y="715"/>
      <point x="72" y="623" type="curve" smooth="yes"/>
    </contour>
    <contour>
      <point x="315" y="65" type="curve" smooth="yes"/>
      <point x="207" y="65"/>
      <point x="159" y="141"/>
      <point x="159" y="269" type="curve" smooth="yes"/>
      <point x="159" y="289" type="line" smooth="yes"/>
      <point x="159" y="406"/>
      <point x="208" y="472"/>
      <point x="317" y="472" type="curve" smooth="yes"/>
      <point x="416" y="472"/>
      <point x="466" y="406"/>
      <point x="466" y="270" type="curve" smooth="yes"/>
      <point x="466" y="137"/>
      <point x="414" y="65"/>
    </contour>
  </outline>
</glyph>
<glyph name="uni01A6" format="2">
  <advance width="620"/>
  <unicode hex="01A6"/>
  <anchor x="324" y="-99" name="bottom"/>
  <anchor x="324" y="714" name="top"/>
  <outline>
    <contour>
      <point x="480" y="-100" type="line"/>
      <point x="580" y="-100" type="line"/>
      <point x="368" y="216" type="line"/>
      <point x="477" y="248"/>
      <point x="532" y="312"/>
      <point x="532" y="414" type="curve" smooth="yes"/>
      <point x="532" y="547"/>
      <point x="438" y="614"/>
      <point x="246" y="614" type="curve" smooth="yes"/>
      <point x="170" y="614" type="line"/>
      <point x="170" y="714" type="line"/>
      <point x="81" y="714" type="line"/>
      <point x="81" y="0" type="line"/>
      <point x="170" y="0" type="line"/>
      <point x="170" y="197" type="line"/>
      <point x="285" y="197" type="line"/>
    </contour>
    <contour>
      <point x="170" y="274" type="line"/>
      <point x="170" y="536" type="line"/>
      <point x="244" y="536" type="line" smooth="yes"/>
      <point x="377" y="536"/>
      <point x="442" y="498"/>
      <point x="442" y="409" type="curve" smooth="yes"/>
      <point x="442" y="316"/>
      <point x="376" y="274"/>
      <point x="259" y="274" type="curve" smooth="yes"/>
    </contour>
  </outline>
</glyph>
<glyph name="uni01AA" format="2">
  <advance width="620"/>
  <unicode hex="01AA"/>
  <anchor x="307" y="-240" name="bottom"/>
  <anchor x="307" y="770" name="top"/>
  <outline>
    <contour>
      <point x="444" y="-240" type="curve" smooth="yes"/>
      <point x="485" y="-240"/>
      <point x="526" y="-233"/>
      <point x="555" y="-218" type="curve"/>
      <point x="555" y="-147" type="line"/>
      <point x="527" y="-158"/>
      <point x="494" y="-166"/>
      <point x="456" y="-166" type="curve" smooth="yes"/>
      <point x="382" y="-166"/>
      <point x="351" y="-131"/>
      <point x="351" y="-67" type="curve" smooth="yes"/>
      <point x="351" y="613" type="line" smooth="yes"/>
      <point x="351" y="717"/>
      <point x="293" y="765"/>
      <point x="197" y="765" type="curve" smooth="yes"/>
      <point x="92" y="765"/>
      <point x="46" y="707"/>
      <point x="46" y="651" type="curve" smooth="yes"/>
      <point x="46" y="583"/>
      <point x="94" y="533"/>
      <point x="200" y="533" type="curve" smooth="yes"/>
      <point x="263" y="533" type="line"/>
      <point x="263" y="-68" type="line" smooth="yes"/>
      <point x="263" y="-193"/>
      <point x="330" y="-240"/>
    </contour>
    <contour>
      <point x="205" y="602" type="line" smooth="yes"/>
      <point x="154" y="602"/>
      <point x="128" y="619"/>
      <point x="128" y="649" type="curve" smooth="yes"/>
      <point x="128" y="678"/>
      <point x="150" y="695"/>
      <point x="192" y="695" type="curve" smooth="yes"/>
      <point x="241" y="695"/>
      <point x="263" y="665"/>
      <point x="263" y="621" type="curve" smooth="yes"/>
      <point x="263" y="602" type="line"/>
    </contour>
  </outline>
</glyph>
<glyph name="uni01AB" format="2">
  <advance width="620"/>
  <unicode hex="01AB"/>
  <anchor x="393" y="-240" name="bottom"/>
  <anchor x="301" y="679" name="top"/>
  <anchor x="579" y="679" name="topright"/>
  <anchor x="257" y="283" name="center"/>
  <outline>
    <contour>
      <point x="400" y="-240" type="curve" smooth="yes"/>
      <point x="484" y="-240"/>
      <point x="528" y="-190"/>
      <point x="528" y="-100" type="curve" smooth="yes"/>
      <point x="528" y="44" type="line"/>
      <point x="447" y="21" type="line"/>
      <point x="447" y="-99" type="line" smooth="yes"/>
      <point x="447" y="-148"/>
      <point x="426" y="-165"/>
      <point x="387" y="-165" type="curve" smooth="yes"/>
      <point x="369" y="-165"/>
      <point x="352" y="-161"/>
      <point x="338" y="-156" type="curve"/>
      <point x="338" y="-230" type="line"/>
      <point x="352" y="-235"/>
      <point x="376" y="-240"/>
    </contour>
    <component base="t" xOffset="-10"/>
  </outline>
</glyph>
